SplineFontDB: 3.2
FontName: Montserrat-Medium
FullName: Montserrat Medium
FamilyName: Montserrat Medium
Weight: Medium
Copyright: Copyright 2011 The Montserrat Project Authors (https://github.com/JulietaUla/Montserrat)
Version: 9.000
ItalicAngle: 0
UnderlinePosition: -125
UnderlineWidth: 50
Ascent: 800
Descent: 200
InvalidEm: 0
sfntRevision: 0x00090000
LayerCount: 2
Layer: 0 1 "Back" 1
Layer: 1 1 "Fore" 0
XUID: [1021 598 623987363 2408308]
StyleMap: 0x0040
FSType: 0
OS2Version: 4
OS2_WeightWidthSlopeOnly: 0
OS2_UseTypoMetrics: 1
CreationTime: 1624264748
ModificationTime: 1775135762
PfmFamily: 81
TTFWeight: 500
TTFWidth: 5
LineGap: 0
VLineGap: 0
Panose: 0 0 0 0 0 0 0 0 0 0
OS2TypoAscent: 968
OS2TypoAOffset: 0
OS2TypoDescent: -251
OS2TypoDOffset: 0
OS2TypoLinegap: 0
OS2WinAscent: 1109
OS2WinAOffset: 0
OS2WinDescent: 453
OS2WinDOffset: 0
HheadAscent: 968
HheadAOffset: 0
HheadDescent: -251
HheadDOffset: 0
OS2SubXSize: 650
OS2SubYSize: 600
OS2SubXOff: 0
OS2SubYOff: 75
OS2SupXSize: 650
OS2SupYSize: 600
OS2SupXOff: 0
OS2SupYOff: 350
OS2StrikeYSize: 50
OS2StrikeYPos: 318
OS2CapHeight: 700
OS2XHeight: 530
OS2Vendor: 'ULA '
OS2CodePages: 20000197.00000000
OS2UnicodeRanges: a00002ff.4000247b.00000000.00000000
Lookup: 1 0 0 "'aalt' Access All Alternates lookup 0" { "'aalt' Access All Alternates lookup 0 subtable"  } ['aalt' ('DFLT' <'NAV ' 'dflt' > 'cyrl' <'BGR ' 'BSH ' 'CHU ' 'MKD ' 'SRB ' 'dflt' > 'latn' <'AZE ' 'CAT ' 'CRT ' 'KAZ ' 'MOL ' 'NAV ' 'NLD ' 'NSM ' 'ROM ' 'TAT ' 'TOD0' 'TRK ' 'VIT ' 'XPE ' 'dflt' > ) ]
Lookup: 3 0 0 "'aalt' Access All Alternates lookup 1" { "'aalt' Access All Alternates lookup 1 subtable"  } ['aalt' ('DFLT' <'NAV ' 'dflt' > 'cyrl' <'BGR ' 'BSH ' 'CHU ' 'MKD ' 'SRB ' 'dflt' > 'latn' <'AZE ' 'CAT ' 'CRT ' 'KAZ ' 'MOL ' 'NAV ' 'NLD ' 'NSM ' 'ROM ' 'TAT ' 'TOD0' 'TRK ' 'VIT ' 'XPE ' 'dflt' > ) ]

StartChar: .notdef
Encoding: 65536 -1 0
Width: 607
GlyphClass: 1
Flags: W
LayerCount: 2
Fore
SplineSet
50 0 m 1,0,-1
 50 700 l 1,1,-1
 557 700 l 1,2,-1
 557 0 l 1,3,-1
 50 0 l 1,0,-1
130 70 m 1,4,-1
 477 70 l 1,5,-1
 477 630 l 1,6,-1
 130 630 l 1,7,-1
 130 70 l 1,4,-1
EndSplineSet
EndChar

StartChar: A
Encoding: 65 65 1
Width: 752
GlyphClass: 2
Flags: W
AnchorPoint: "Anchor-3" 376 700 basechar 0
AnchorPoint: "Anchor-2" 743 0 basechar 0
AnchorPoint: "Anchor-0" 376 0 basechar 0
LayerCount: 2
Fore
SplineSet
9 0 m 1,0,-1
 326 700 l 1,1,-1
 425 700 l 1,2,-1
 743 0 l 1,3,-1
 638 0 l 1,4,-1
 355 644 l 1,5,-1
 395 644 l 1,6,-1
 112 0 l 1,7,-1
 9 0 l 1,0,-1
144 175 m 1,8,-1
 171 255 l 1,9,-1
 565 255 l 1,10,-1
 594 175 l 1,11,-1
 144 175 l 1,8,-1
EndSplineSet
Substitution2: "'ss01' Style Set 1 lookup 50 subtable" A.ss01
Substitution2: "'c2sc' Capitals to Small Capitals lookup 45 subtable" a.sc
Substitution2: "Single Substitution lookup 39 subtable" ordfeminine
AlternateSubs2: "'aalt' Access All Alternates lookup 1 subtable" ordfeminine a.sc A.ss01
EndChar

StartChar: uni2C6D
Encoding: 11373 11373 25
Width: 915
GlyphClass: 2
Flags: W
AnchorPoint: "Anchor-3" 442 700 basechar 0
AnchorPoint: "Anchor-2" 800 0 basechar 0
AnchorPoint: "Anchor-0" 442 0 basechar 0
LayerCount: 2
Fore
SplineSet
421 -7 m 0,0,1
 344 -7 344 -7 278 19 c 128,-1,2
 212 45 212 45 162.5 92.5 c 128,-1,3
 113 140 113 140 85.5 205.5 c 128,-1,4
 58 271 58 271 58 351 c 256,5,6
 58 431 58 431 85.5 496.5 c 128,-1,7
 113 562 113 562 162 609.5 c 128,-1,8
 211 657 211 657 277 682.5 c 128,-1,9
 343 708 343 708 420 708 c 0,10,11
 492 708 492 708 554 684.5 c 128,-1,12
 616 661 616 661 662.5 615.5 c 128,-1,13
 709 570 709 570 734.5 503.5 c 128,-1,14
 760 437 760 437 760 351 c 256,15,16
 760 265 760 265 735 198.5 c 128,-1,17
 710 132 710 132 664 86.5 c 128,-1,18
 618 41 618 41 555.5 17 c 128,-1,19
 493 -7 493 -7 421 -7 c 0,0,1
431 82 m 0,20,21
 508 82 508 82 569 115.5 c 128,-1,22
 630 149 630 149 665.5 210 c 128,-1,23
 701 271 701 271 701 351 c 0,24,25
 701 432 701 432 665.5 492 c 128,-1,26
 630 552 630 552 569 586 c 128,-1,27
 508 620 508 620 431 620 c 256,28,29
 354 620 354 620 292 586 c 128,-1,30
 230 552 230 552 194.5 492 c 128,-1,31
 159 432 159 432 159 351 c 0,32,33
 159 271 159 271 194.5 210 c 128,-1,34
 230 149 230 149 291.5 115.5 c 128,-1,35
 353 82 353 82 431 82 c 0,20,21
704 0 m 1,36,-1
 704 208 l 1,37,-1
 713 353 l 1,38,-1
 699 498 l 1,39,-1
 699 700 l 1,40,-1
 800 700 l 1,41,-1
 800 0 l 1,42,-1
 704 0 l 1,36,-1
EndSplineSet
Substitution2: "'c2sc' Capitals to Small Capitals lookup 45 subtable" uni0251.sc
Substitution2: "'aalt' Access All Alternates lookup 0 subtable" uni0251.sc
EndChar

StartChar: uni023A
Encoding: 570 570 31
Width: 752
GlyphClass: 1
Flags: W
LayerCount: 2
Fore
SplineSet
9 0 m 1,0,-1
 326 700 l 1,1,-1
 425 700 l 1,2,-1
 743 0 l 1,3,-1
 638 0 l 1,4,-1
 355 649 l 1,5,-1
 395 649 l 1,6,-1
 112 0 l 1,7,-1
 9 0 l 1,0,-1
144 178 m 1,8,-1
 171 253 l 1,9,-1
 565 253 l 1,10,-1
 594 178 l 1,11,-1
 144 178 l 1,8,-1
189 -70 m 1,12,-1
 555 770 l 1,13,-1
 636 770 l 1,14,-1
 270 -70 l 1,15,-1
 189 -70 l 1,12,-1
EndSplineSet
Substitution2: "'ss01' Style Set 1 lookup 50 subtable" uni023A.ss01
Substitution2: "'c2sc' Capitals to Small Capitals lookup 45 subtable" uni2C65.sc
AlternateSubs2: "'aalt' Access All Alternates lookup 1 subtable" uni2C65.sc uni023A.ss01
EndChar

StartChar: uni2C6F
Encoding: 11375 11375 33
Width: 752
GlyphClass: 2
Flags: W
AnchorPoint: "Anchor-3" 376 700 basechar 0
AnchorPoint: "Anchor-2" 9 700 basechar 0
AnchorPoint: "Anchor-0" 376 0 basechar 0
LayerCount: 2
Fore
SplineSet
743 700 m 1,0,-1
 426 0 l 1,1,-1
 327 0 l 1,2,-1
 9 700 l 1,3,-1
 114 700 l 1,4,-1
 397 56 l 1,5,-1
 357 56 l 1,6,-1
 640 700 l 1,7,-1
 743 700 l 1,0,-1
608 525 m 1,8,-1
 580 445 l 1,9,-1
 187 445 l 1,10,-1
 158 525 l 1,11,-1
 608 525 l 1,8,-1
EndSplineSet
Substitution2: "'ss01' Style Set 1 lookup 50 subtable" uni2C6F.ss01
Substitution2: "'c2sc' Capitals to Small Capitals lookup 45 subtable" uni0250.sc
AlternateSubs2: "'aalt' Access All Alternates lookup 1 subtable" uni0250.sc uni2C6F.ss01
EndChar

StartChar: AE
Encoding: 198 198 34
Width: 1067
GlyphClass: 2
Flags: W
AnchorPoint: "Anchor-3" 629 700 basechar 0
AnchorPoint: "Anchor-2" 1001 0 basechar 0
AnchorPoint: "Anchor-0" 542 0 basechar 0
LayerCount: 2
Fore
SplineSet
9 0 m 1,0,-1
 426 700 l 1,1,-1
 526 700 l 1,2,-1
 526 613 l 1,3,-1
 438 613 l 1,4,-1
 499 657 l 1,5,-1
 112 0 l 1,6,-1
 9 0 l 1,0,-1
187 175 m 1,7,-1
 193 255 l 1,8,-1
 526 255 l 1,9,-1
 526 175 l 1,10,-1
 187 175 l 1,7,-1
493 0 m 1,11,-1
 493 700 l 1,12,-1
 987 700 l 1,13,-1
 987 613 l 1,14,-1
 592 613 l 1,15,-1
 592 87 l 1,16,-1
 1001 87 l 1,17,-1
 1001 0 l 1,18,-1
 493 0 l 1,11,-1
583 313 m 1,19,-1
 584 398 l 1,20,-1
 943 398 l 1,21,-1
 943 313 l 1,22,-1
 583 313 l 1,19,-1
EndSplineSet
Substitution2: "'ss01' Style Set 1 lookup 50 subtable" AE.ss01
Substitution2: "'c2sc' Capitals to Small Capitals lookup 45 subtable" ae.sc
AlternateSubs2: "'aalt' Access All Alternates lookup 1 subtable" ae.sc AE.ss01
EndChar

StartChar: B
Encoding: 66 66 37
Width: 777
GlyphClass: 2
Flags: W
AnchorPoint: "Anchor-3" 389 700 basechar 0
AnchorPoint: "Anchor-0" 389 0 basechar 0
LayerCount: 2
Fore
SplineSet
115 0 m 1,0,-1
 115 700 l 1,1,-1
 429 700 l 2,2,3
 550 700 550 700 615 651.5 c 128,-1,4
 680 603 680 603 680 519 c 0,5,6
 680 462 680 462 654.5 423 c 128,-1,7
 629 384 629 384 586 363 c 128,-1,8
 543 342 543 342 493 342 c 1,9,-1
 511 372 l 1,10,11
 571 372 571 372 617 351 c 128,-1,12
 663 330 663 330 690 289.5 c 128,-1,13
 717 249 717 249 717 189 c 0,14,15
 717 99 717 99 649.5 49.5 c 128,-1,16
 582 0 582 0 449 0 c 2,17,-1
 115 0 l 1,0,-1
215 81 m 1,18,-1
 445 81 l 2,19,20
 528 81 528 81 572 109 c 128,-1,21
 616 137 616 137 616 197 c 0,22,23
 616 258 616 258 572 286 c 128,-1,24
 528 314 528 314 445 314 c 2,25,-1
 206 314 l 1,26,-1
 206 395 l 1,27,-1
 420 395 l 2,28,29
 496 395 496 395 538 423 c 128,-1,30
 580 451 580 451 580 507 c 256,31,32
 580 563 580 563 538 591 c 128,-1,33
 496 619 496 619 420 619 c 2,34,-1
 215 619 l 1,35,-1
 215 81 l 1,18,-1
EndSplineSet
Substitution2: "'c2sc' Capitals to Small Capitals lookup 45 subtable" b.sc
Substitution2: "'aalt' Access All Alternates lookup 0 subtable" b.sc
EndChar

StartChar: uniA7B4
Encoding: 42932 42932 40
Width: 777
GlyphClass: 2
Flags: W
AnchorPoint: "Anchor-3" 389 700 basechar 0
AnchorPoint: "Anchor-0" 389 0 basechar 0
LayerCount: 2
Fore
SplineSet
115 -194 m 1,0,-1
 115 700 l 1,1,-1
 429 700 l 2,2,3
 550 700 550 700 615 651.5 c 128,-1,4
 680 603 680 603 680 519 c 0,5,6
 680 462 680 462 654.5 423 c 128,-1,7
 629 384 629 384 586 363 c 128,-1,8
 543 342 543 342 493 342 c 1,9,-1
 511 372 l 1,10,11
 571 372 571 372 617 351 c 128,-1,12
 663 330 663 330 690 289.5 c 128,-1,13
 717 249 717 249 717 189 c 0,14,15
 717 99 717 99 649.5 49.5 c 128,-1,16
 582 0 582 0 449 0 c 2,17,-1
 206 0 l 1,18,-1
 206 81 l 1,19,-1
 445 81 l 2,20,21
 528 81 528 81 572 109 c 128,-1,22
 616 137 616 137 616 197 c 0,23,24
 616 258 616 258 572 286 c 128,-1,25
 528 314 528 314 445 314 c 2,26,-1
 206 314 l 1,27,-1
 206 395 l 1,28,-1
 420 395 l 2,29,30
 496 395 496 395 538 423 c 128,-1,31
 580 451 580 451 580 507 c 256,32,33
 580 563 580 563 538 591 c 128,-1,34
 496 619 496 619 420 619 c 2,35,-1
 215 619 l 1,36,-1
 215 -194 l 1,37,-1
 115 -194 l 1,0,-1
EndSplineSet
Substitution2: "'c2sc' Capitals to Small Capitals lookup 45 subtable" uniA7B5.sc
Substitution2: "'aalt' Access All Alternates lookup 0 subtable" uniA7B5.sc
EndChar

StartChar: uni0181
Encoding: 385 385 41
Width: 943
GlyphClass: 2
Flags: W
AnchorPoint: "Anchor-3" 555 700 basechar 0
AnchorPoint: "Anchor-0" 555 0 basechar 0
LayerCount: 2
Fore
SplineSet
112 383 m 1,0,1
 77 416 77 416 59 458 c 128,-1,2
 41 500 41 500 41.5 542 c 128,-1,3
 42 584 42 584 61.5 620 c 128,-1,4
 81 656 81 656 121 678 c 128,-1,5
 161 700 161 700 223 700 c 2,6,-1
 289 700 l 1,7,-1
 289 613 l 1,8,-1
 224 613 l 2,9,10
 188 613 188 613 167.5 596.5 c 128,-1,11
 147 580 147 580 141.5 553.5 c 128,-1,12
 136 527 136 527 145.5 496.5 c 128,-1,13
 155 466 155 466 180 438 c 1,14,-1
 112 383 l 1,0,1
281 0 m 1,15,-1
 281 700 l 1,16,-1
 595 700 l 2,17,18
 716 700 716 700 781 651.5 c 128,-1,19
 846 603 846 603 846 519 c 0,20,21
 846 462 846 462 820 423 c 128,-1,22
 794 384 794 384 751.5 363 c 128,-1,23
 709 342 709 342 659 342 c 1,24,-1
 677 372 l 1,25,26
 737 372 737 372 783 351 c 128,-1,27
 829 330 829 330 856 289.5 c 128,-1,28
 883 249 883 249 883 189 c 0,29,30
 883 99 883 99 815.5 49.5 c 128,-1,31
 748 0 748 0 615 0 c 2,32,-1
 281 0 l 1,15,-1
380 81 m 1,33,-1
 611 81 l 2,34,35
 694 81 694 81 738 109 c 128,-1,36
 782 137 782 137 782 197 c 0,37,38
 782 258 782 258 738 286 c 128,-1,39
 694 314 694 314 611 314 c 2,40,-1
 372 314 l 1,41,-1
 372 395 l 1,42,-1
 586 395 l 2,43,44
 662 395 662 395 704 423 c 128,-1,45
 746 451 746 451 746 507 c 256,46,47
 746 563 746 563 704 591 c 128,-1,48
 662 619 662 619 586 619 c 2,49,-1
 380 619 l 1,50,-1
 380 81 l 1,33,-1
EndSplineSet
Substitution2: "'c2sc' Capitals to Small Capitals lookup 45 subtable" uni0253.sc
Substitution2: "'locl' Localized Forms in Latin lookup 19 subtable" uni0181.loclXPE
AlternateSubs2: "'aalt' Access All Alternates lookup 1 subtable" uni0181.loclXPE uni0253.sc
EndChar

StartChar: uni0243
Encoding: 579 579 43
Width: 794
GlyphClass: 2
Flags: W
AnchorPoint: "Anchor-3" 406 700 basechar 0
AnchorPoint: "Anchor-0" 406 0 basechar 0
LayerCount: 2
Fore
SplineSet
132 0 m 1,0,-1
 132 700 l 1,1,-1
 446 700 l 2,2,3
 567 700 567 700 632 651.5 c 128,-1,4
 697 603 697 603 697 519 c 0,5,6
 697 462 697 462 671 423.5 c 128,-1,7
 645 385 645 385 602.5 365 c 128,-1,8
 560 345 560 345 510 345 c 1,9,-1
 528 375 l 1,10,11
 588 375 588 375 634 354 c 128,-1,12
 680 333 680 333 707 292 c 128,-1,13
 734 251 734 251 734 191 c 0,14,15
 734 102 734 102 666.5 51 c 128,-1,16
 599 0 599 0 466 0 c 2,17,-1
 132 0 l 1,0,-1
29 161 m 1,18,-1
 29 238 l 1,19,-1
 165 238 l 1,20,-1
 188 238 l 1,21,-1
 385 238 l 1,22,-1
 385 161 l 1,23,-1
 188 161 l 1,24,-1
 165 161 l 1,25,-1
 29 161 l 1,18,-1
231 81 m 1,26,-1
 462 81 l 2,27,28
 545 81 545 81 589 109 c 128,-1,29
 633 137 633 137 633 197 c 0,30,31
 633 258 633 258 589 287 c 128,-1,32
 545 316 545 316 462 316 c 2,33,-1
 223 316 l 1,34,-1
 223 398 l 1,35,-1
 437 398 l 2,36,37
 513 398 513 398 555 424.5 c 128,-1,38
 597 451 597 451 597 507 c 256,39,40
 597 563 597 563 555 591 c 128,-1,41
 513 619 513 619 437 619 c 2,42,-1
 231 619 l 1,43,-1
 231 81 l 1,26,-1
EndSplineSet
Substitution2: "'c2sc' Capitals to Small Capitals lookup 45 subtable" uni0180.sc
Substitution2: "'aalt' Access All Alternates lookup 0 subtable" uni0180.sc
EndChar

StartChar: uni0182
Encoding: 386 386 44
Width: 777
GlyphClass: 2
Flags: W
AnchorPoint: "Anchor-3" 389 700 basechar 0
AnchorPoint: "Anchor-0" 389 0 basechar 0
LayerCount: 2
Fore
SplineSet
115 0 m 1,0,-1
 115 700 l 1,1,-1
 655 700 l 1,2,-1
 655 619 l 1,3,-1
 215 619 l 1,4,-1
 215 81 l 1,5,-1
 445 81 l 2,6,7
 528 81 528 81 572 109.5 c 128,-1,8
 616 138 616 138 616 202 c 0,9,10
 616 265 616 265 572 293 c 128,-1,11
 528 321 528 321 445 321 c 2,12,-1
 206 321 l 1,13,-1
 206 403 l 1,14,-1
 458 403 l 2,15,16
 585 403 585 403 651 354.5 c 128,-1,17
 717 306 717 306 717 204 c 0,18,19
 717 101 717 101 649 50.5 c 128,-1,20
 581 0 581 0 449 0 c 2,21,-1
 115 0 l 1,0,-1
EndSplineSet
Substitution2: "'c2sc' Capitals to Small Capitals lookup 45 subtable" uni0183.sc
Substitution2: "'aalt' Access All Alternates lookup 0 subtable" uni0183.sc
EndChar

StartChar: C
Encoding: 67 67 45
Width: 733
GlyphClass: 2
Flags: W
AnchorPoint: "Anchor-3" 422 700 basechar 0
AnchorPoint: "Anchor-1" 159 358 basechar 0
AnchorPoint: "Anchor-0" 422 0 basechar 0
LayerCount: 2
Fore
SplineSet
428 -8 m 0,0,1
 348 -8 348 -8 280.5 18.5 c 128,-1,2
 213 45 213 45 163.5 93.5 c 128,-1,3
 114 142 114 142 86 207 c 128,-1,4
 58 272 58 272 58 350 c 256,5,6
 58 428 58 428 86 493 c 128,-1,7
 114 558 114 558 164 606.5 c 128,-1,8
 214 655 214 655 281.5 681.5 c 128,-1,9
 349 708 349 708 429 708 c 0,10,11
 510 708 510 708 578.5 680.5 c 128,-1,12
 647 653 647 653 695 599 c 1,13,-1
 630 536 l 1,14,15
 590 578 590 578 540 598.5 c 128,-1,16
 490 619 490 619 433 619 c 0,17,18
 374 619 374 619 323.5 599 c 128,-1,19
 273 579 273 579 236 543 c 128,-1,20
 199 507 199 507 178.5 457.5 c 128,-1,21
 158 408 158 408 158 350 c 256,22,23
 158 292 158 292 178.5 242.5 c 128,-1,24
 199 193 199 193 236 157 c 128,-1,25
 273 121 273 121 323.5 101 c 128,-1,26
 374 81 374 81 433 81 c 0,27,28
 490 81 490 81 540 101.5 c 128,-1,29
 590 122 590 122 630 165 c 1,30,-1
 695 102 l 1,31,32
 647 48 647 48 578.5 20 c 128,-1,33
 510 -8 510 -8 428 -8 c 0,0,1
EndSplineSet
Substitution2: "'c2sc' Capitals to Small Capitals lookup 45 subtable" c.sc
Substitution2: "'aalt' Access All Alternates lookup 0 subtable" c.sc
EndChar

StartChar: uniA792
Encoding: 42898 42898 47
Width: 800
GlyphClass: 2
Flags: W
AnchorPoint: "Anchor-3" 490 700 basechar 0
AnchorPoint: "Anchor-1" 226 358 basechar 0
AnchorPoint: "Anchor-0" 490 0 basechar 0
LayerCount: 2
Fore
SplineSet
496 -8 m 0,0,1
 416 -8 416 -8 348.5 18.5 c 128,-1,2
 281 45 281 45 231 93.5 c 128,-1,3
 181 142 181 142 153.5 207 c 128,-1,4
 126 272 126 272 126 350 c 256,5,6
 126 428 126 428 153.5 493 c 128,-1,7
 181 558 181 558 231.5 606.5 c 128,-1,8
 282 655 282 655 349.5 681.5 c 128,-1,9
 417 708 417 708 496 708 c 0,10,11
 577 708 577 708 646 680.5 c 128,-1,12
 715 653 715 653 762 599 c 1,13,-1
 698 536 l 1,14,15
 658 578 658 578 608 598.5 c 128,-1,16
 558 619 558 619 501 619 c 0,17,18
 441 619 441 619 391 599 c 128,-1,19
 341 579 341 579 304 543 c 128,-1,20
 267 507 267 507 246.5 457.5 c 128,-1,21
 226 408 226 408 226 350 c 256,22,23
 226 292 226 292 246.5 242.5 c 128,-1,24
 267 193 267 193 304 157 c 128,-1,25
 341 121 341 121 391 101 c 128,-1,26
 441 81 441 81 501 81 c 0,27,28
 558 81 558 81 608 101.5 c 128,-1,29
 658 122 658 122 698 165 c 1,30,-1
 762 102 l 1,31,32
 715 48 715 48 646 20 c 128,-1,33
 577 -8 577 -8 496 -8 c 0,0,1
22 319 m 1,34,-1
 22 398 l 1,35,-1
 399 398 l 1,36,-1
 399 319 l 1,37,-1
 22 319 l 1,34,-1
EndSplineSet
Substitution2: "'c2sc' Capitals to Small Capitals lookup 45 subtable" uniA793.sc
Substitution2: "'aalt' Access All Alternates lookup 0 subtable" uniA793.sc
EndChar

StartChar: uniA7B3
Encoding: 42931 42931 53
Width: 582
GlyphClass: 1
Flags: W
LayerCount: 2
Fore
SplineSet
696 -129 m 1,0,1
 675 -160 675 -160 640 -180 c 128,-1,2
 605 -200 605 -200 564.5 -202 c 128,-1,3
 524 -204 524 -204 486 -182.5 c 128,-1,4
 448 -161 448 -161 422 -109 c 2,5,-1
 261 217 l 1,6,-1
 232 261 l 1,7,-1
 74 572 l 2,8,9
 58 602 58 602 36.5 614 c 128,-1,10
 15 626 15 626 -8 618.5 c 128,-1,11
 -31 611 -31 611 -52 583 c 1,12,-1
 -114 635 l 1,13,14
 -93 665 -93 665 -58.5 685 c 128,-1,15
 -24 705 -24 705 16 707 c 128,-1,16
 56 709 56 709 93.5 688 c 128,-1,17
 131 667 131 667 156 615 c 2,18,-1
 294 340 l 1,19,-1
 319 299 l 1,20,-1
 506 -66 l 2,21,22
 521 -96 521 -96 543.5 -108 c 128,-1,23
 566 -120 566 -120 590 -112 c 128,-1,24
 614 -104 614 -104 634 -77 c 1,25,-1
 696 -129 l 1,0,1
-42 -194 m 1,26,-1
 249 312 l 1,27,-1
 258 315 l 1,28,-1
 485 700 l 1,29,-1
 590 700 l 1,30,-1
 312 242 l 1,31,-1
 302 233 l 1,32,-1
 61 -194 l 1,33,-1
 -42 -194 l 1,26,-1
EndSplineSet
Substitution2: "'c2sc' Capitals to Small Capitals lookup 45 subtable" uniAB53.sc
Substitution2: "'aalt' Access All Alternates lookup 0 subtable" uniAB53.sc
EndChar

StartChar: uni0187
Encoding: 391 391 54
Width: 766
GlyphClass: 2
Flags: W
AnchorPoint: "Anchor-3" 431 700 basechar 0
AnchorPoint: "Anchor-0" 431 0 basechar 0
LayerCount: 2
Fore
SplineSet
706 599 m 1,0,-1
 615 600 l 1,1,-1
 615 674 l 2,2,3
 615 727 615 727 635.5 763 c 128,-1,4
 656 799 656 799 689.5 818.5 c 128,-1,5
 723 838 723 838 764 839.5 c 128,-1,6
 805 841 805 841 846 824 c 1,7,-1
 819 746 l 1,8,9
 792 757 792 757 766 752 c 128,-1,10
 740 747 740 747 723 727 c 128,-1,11
 706 707 706 707 706 674 c 2,12,-1
 706 599 l 1,0,-1
440 -8 m 0,13,14
 360 -8 360 -8 292.5 18.5 c 128,-1,15
 225 45 225 45 175 93.5 c 128,-1,16
 125 142 125 142 97.5 207 c 128,-1,17
 70 272 70 272 70 350 c 256,18,19
 70 428 70 428 97.5 493 c 128,-1,20
 125 558 125 558 175.5 606.5 c 128,-1,21
 226 655 226 655 293.5 681.5 c 128,-1,22
 361 708 361 708 440 708 c 0,23,24
 521 708 521 708 590 680.5 c 128,-1,25
 659 653 659 653 706 599 c 1,26,-1
 642 536 l 1,27,28
 602 578 602 578 552 598.5 c 128,-1,29
 502 619 502 619 445 619 c 0,30,31
 385 619 385 619 335 599 c 128,-1,32
 285 579 285 579 248 543 c 128,-1,33
 211 507 211 507 190.5 457.5 c 128,-1,34
 170 408 170 408 170 350 c 256,35,36
 170 292 170 292 190.5 242.5 c 128,-1,37
 211 193 211 193 248 157 c 128,-1,38
 285 121 285 121 335 101 c 128,-1,39
 385 81 385 81 445 81 c 0,40,41
 502 81 502 81 552 101.5 c 128,-1,42
 602 122 602 122 642 165 c 1,43,-1
 706 102 l 1,44,45
 659 48 659 48 590 20 c 128,-1,46
 521 -8 521 -8 440 -8 c 0,13,14
EndSplineSet
Substitution2: "'c2sc' Capitals to Small Capitals lookup 45 subtable" uni0188.sc
Substitution2: "'aalt' Access All Alternates lookup 0 subtable" uni0188.sc
EndChar

StartChar: uni023B
Encoding: 571 571 55
Width: 733
GlyphClass: 2
Flags: W
AnchorPoint: "Anchor-3" 422 700 basechar 0
AnchorPoint: "Anchor-0" 422 0 basechar 0
LayerCount: 2
Fore
SplineSet
181 -70 m 1,0,-1
 568 770 l 1,1,-1
 650 770 l 1,2,-1
 264 -70 l 1,3,-1
 181 -70 l 1,0,-1
428 -8 m 0,4,5
 348 -8 348 -8 280.5 18.5 c 128,-1,6
 213 45 213 45 163.5 93.5 c 128,-1,7
 114 142 114 142 86 207 c 128,-1,8
 58 272 58 272 58 350 c 256,9,10
 58 428 58 428 86 493 c 128,-1,11
 114 558 114 558 164 606.5 c 128,-1,12
 214 655 214 655 281.5 681.5 c 128,-1,13
 349 708 349 708 429 708 c 0,14,15
 510 708 510 708 578.5 680.5 c 128,-1,16
 647 653 647 653 695 599 c 1,17,-1
 630 536 l 1,18,19
 590 578 590 578 540 598.5 c 128,-1,20
 490 619 490 619 433 619 c 0,21,22
 374 619 374 619 323.5 599 c 128,-1,23
 273 579 273 579 236 543 c 128,-1,24
 199 507 199 507 178.5 457.5 c 128,-1,25
 158 408 158 408 158 350 c 256,26,27
 158 292 158 292 178.5 242.5 c 128,-1,28
 199 193 199 193 236 157 c 128,-1,29
 273 121 273 121 323.5 101 c 128,-1,30
 374 81 374 81 433 81 c 0,31,32
 490 81 490 81 540 101.5 c 128,-1,33
 590 122 590 122 630 165 c 1,34,-1
 695 102 l 1,35,36
 647 48 647 48 578.5 20 c 128,-1,37
 510 -8 510 -8 428 -8 c 0,4,5
EndSplineSet
Substitution2: "'c2sc' Capitals to Small Capitals lookup 45 subtable" uni023C.sc
Substitution2: "'aalt' Access All Alternates lookup 0 subtable" uni023C.sc
EndChar

StartChar: D
Encoding: 68 68 56
Width: 846
GlyphClass: 2
Flags: W
AnchorPoint: "Anchor-3" 389 700 basechar 0
AnchorPoint: "Anchor-1" 213 359 basechar 0
AnchorPoint: "Anchor-0" 393 0 basechar 0
LayerCount: 2
Fore
SplineSet
115 0 m 1,0,-1
 115 700 l 1,1,-1
 410 700 l 2,2,3
 522 700 522 700 607.5 656 c 128,-1,4
 693 612 693 612 740.5 533 c 128,-1,5
 788 454 788 454 788 350 c 256,6,7
 788 246 788 246 740.5 167 c 128,-1,8
 693 88 693 88 607.5 44 c 128,-1,9
 522 0 522 0 410 0 c 2,10,-1
 115 0 l 1,0,-1
215 87 m 1,11,-1
 404 87 l 2,12,13
 491 87 491 87 554.5 120 c 128,-1,14
 618 153 618 153 653 212.5 c 128,-1,15
 688 272 688 272 688 350 c 0,16,17
 688 429 688 429 653 488 c 128,-1,18
 618 547 618 547 554.5 580 c 128,-1,19
 491 613 491 613 404 613 c 2,20,-1
 215 613 l 1,21,-1
 215 87 l 1,11,-1
EndSplineSet
Substitution2: "'c2sc' Capitals to Small Capitals lookup 45 subtable" d.sc
Substitution2: "'aalt' Access All Alternates lookup 0 subtable" d.sc
EndChar

StartChar: uni018A
Encoding: 394 394 65
Width: 1012
GlyphClass: 2
Flags: W
AnchorPoint: "Anchor-3" 555 700 basechar 0
AnchorPoint: "Anchor-1" 378 359 basechar 0
AnchorPoint: "Anchor-0" 559 0 basechar 0
LayerCount: 2
Fore
SplineSet
112 383 m 1,0,1
 77 416 77 416 59 458 c 128,-1,2
 41 500 41 500 41.5 542 c 128,-1,3
 42 584 42 584 61.5 620 c 128,-1,4
 81 656 81 656 121 678 c 128,-1,5
 161 700 161 700 223 700 c 2,6,-1
 289 700 l 1,7,-1
 289 613 l 1,8,-1
 224 613 l 2,9,10
 188 613 188 613 167.5 596.5 c 128,-1,11
 147 580 147 580 141.5 553.5 c 128,-1,12
 136 527 136 527 145.5 496.5 c 128,-1,13
 155 466 155 466 180 438 c 1,14,-1
 112 383 l 1,0,1
281 0 m 1,15,-1
 281 700 l 1,16,-1
 576 700 l 2,17,18
 688 700 688 700 773 656 c 128,-1,19
 858 612 858 612 906 533 c 128,-1,20
 954 454 954 454 954 350 c 256,21,22
 954 246 954 246 906 167 c 128,-1,23
 858 88 858 88 773 44 c 128,-1,24
 688 0 688 0 576 0 c 2,25,-1
 281 0 l 1,15,-1
380 87 m 1,26,-1
 570 87 l 2,27,28
 657 87 657 87 720.5 120 c 128,-1,29
 784 153 784 153 819 212.5 c 128,-1,30
 854 272 854 272 854 350 c 0,31,32
 854 429 854 429 819 488 c 128,-1,33
 784 547 784 547 720.5 580 c 128,-1,34
 657 613 657 613 570 613 c 2,35,-1
 380 613 l 1,36,-1
 380 87 l 1,26,-1
EndSplineSet
Substitution2: "'c2sc' Capitals to Small Capitals lookup 45 subtable" uni0257.sc
Substitution2: "'aalt' Access All Alternates lookup 0 subtable" uni0257.sc
EndChar

StartChar: uni018B
Encoding: 395 395 68
Width: 766
GlyphClass: 1
Flags: W
LayerCount: 2
Fore
SplineSet
315 0 m 2,0,1
 189 0 189 0 118.5 57 c 128,-1,2
 48 114 48 114 48 215 c 0,3,4
 48 311 48 311 115.5 363.5 c 128,-1,5
 183 416 183 416 313 416 c 2,6,-1
 553 416 l 1,7,-1
 553 613 l 1,8,-1
 126 613 l 1,9,-1
 126 700 l 1,10,-1
 651 700 l 1,11,-1
 651 0 l 1,12,-1
 315 0 l 2,0,1
323 81 m 2,13,-1
 553 81 l 1,14,-1
 553 334 l 1,15,-1
 323 334 l 2,16,17
 236 334 236 334 192 302 c 128,-1,18
 148 270 148 270 148 213 c 0,19,20
 148 154 148 154 192.5 117.5 c 128,-1,21
 237 81 237 81 323 81 c 2,13,-1
EndSplineSet
Substitution2: "'c2sc' Capitals to Small Capitals lookup 45 subtable" uni018C.sc
Substitution2: "'aalt' Access All Alternates lookup 0 subtable" uni018C.sc
EndChar

StartChar: E
Encoding: 69 69 72
Width: 690
GlyphClass: 2
Flags: W
AnchorPoint: "Anchor-3" 362 700 basechar 0
AnchorPoint: "Anchor-2" 623 0 basechar 0
AnchorPoint: "Anchor-0" 362 0 basechar 0
LayerCount: 2
Fore
SplineSet
115 0 m 1,0,-1
 115 700 l 1,1,-1
 609 700 l 1,2,-1
 609 613 l 1,3,-1
 215 613 l 1,4,-1
 215 87 l 1,5,-1
 623 87 l 1,6,-1
 623 0 l 1,7,-1
 115 0 l 1,0,-1
206 313 m 1,8,-1
 206 398 l 1,9,-1
 566 398 l 1,10,-1
 566 313 l 1,11,-1
 206 313 l 1,8,-1
EndSplineSet
Substitution2: "'ss01' Style Set 1 lookup 50 subtable" E.ss01
Substitution2: "'c2sc' Capitals to Small Capitals lookup 45 subtable" e.sc
AlternateSubs2: "'aalt' Access All Alternates lookup 1 subtable" e.sc E.ss01
EndChar

StartChar: uni0190
Encoding: 400 400 96
Width: 653
GlyphClass: 2
Flags: W
AnchorPoint: "Anchor-3" 349 700 basechar 0
AnchorPoint: "Anchor-2" 435 0 basechar 0
AnchorPoint: "Anchor-0" 349 0 basechar 0
LayerCount: 2
Fore
SplineSet
367 -8 m 0,0,1
 269 -8 269 -8 202 18.5 c 128,-1,2
 135 45 135 45 100.5 91.5 c 128,-1,3
 66 138 66 138 66 197 c 0,4,5
 66 254 66 254 94 293.5 c 128,-1,6
 122 333 122 333 168 354 c 128,-1,7
 214 375 214 375 268 375 c 1,8,-1
 273 346 l 1,9,10
 220 346 220 346 180 369 c 128,-1,11
 140 392 140 392 118 431 c 128,-1,12
 96 470 96 470 96 518 c 256,13,14
 96 566 96 566 117.5 602 c 128,-1,15
 139 638 139 638 177 661 c 128,-1,16
 215 684 215 684 263 695.5 c 128,-1,17
 311 707 311 707 363 707 c 0,18,19
 427 707 427 707 490.5 691.5 c 128,-1,20
 554 676 554 676 608 646 c 1,21,-1
 578 566 l 1,22,23
 549 582 549 582 512.5 594.5 c 128,-1,24
 476 607 476 607 437.5 614 c 128,-1,25
 399 621 399 621 363 621 c 0,26,27
 318 621 318 621 280 609 c 128,-1,28
 242 597 242 597 219 571.5 c 128,-1,29
 196 546 196 546 196 504 c 0,30,31
 196 453 196 453 233.5 427.5 c 128,-1,32
 271 402 271 402 340 402 c 2,33,-1
 500 402 l 1,34,-1
 500 321 l 1,35,-1
 335 321 l 2,36,37
 285 321 285 321 246.5 308.5 c 128,-1,38
 208 296 208 296 187 269.5 c 128,-1,39
 166 243 166 243 166 203 c 0,40,41
 166 145 166 145 215 111.5 c 128,-1,42
 264 78 264 78 366 78 c 0,43,44
 441 78 441 78 503 97 c 128,-1,45
 565 116 565 116 607 151 c 1,46,-1
 642 73 l 1,47,48
 597 35 597 35 525 13.5 c 128,-1,49
 453 -8 453 -8 367 -8 c 0,0,1
EndSplineSet
Substitution2: "'c2sc' Capitals to Small Capitals lookup 45 subtable" uni025B.sc
Substitution2: "'aalt' Access All Alternates lookup 0 subtable" uni025B.sc
EndChar

StartChar: uni018E
Encoding: 398 398 97
Width: 690
GlyphClass: 2
Flags: W
AnchorPoint: "Anchor-3" 327 700 basechar 0
AnchorPoint: "Anchor-0" 327 0 basechar 0
LayerCount: 2
Fore
SplineSet
575 0 m 1,0,-1
 66 0 l 1,1,-1
 66 87 l 1,2,-1
 475 87 l 1,3,-1
 475 613 l 1,4,-1
 80 613 l 1,5,-1
 80 700 l 1,6,-1
 575 700 l 1,7,-1
 575 0 l 1,0,-1
484 312 m 1,8,-1
 124 312 l 1,9,-1
 124 397 l 1,10,-1
 484 397 l 1,11,-1
 484 312 l 1,8,-1
EndSplineSet
Substitution2: "'ss01' Style Set 1 lookup 50 subtable" uni018E.ss01
Substitution2: "'c2sc' Capitals to Small Capitals lookup 45 subtable" uni0258.sc
AlternateSubs2: "'aalt' Access All Alternates lookup 1 subtable" uni0258.sc uni018E.ss01
EndChar

StartChar: uniA7AB
Encoding: 42923 42923 98
Width: 653
GlyphClass: 2
Flags: W
AnchorPoint: "Anchor-3" 304 700 basechar 0
AnchorPoint: "Anchor-2" 217 0 basechar 0
AnchorPoint: "Anchor-0" 304 0 basechar 0
LayerCount: 2
Fore
SplineSet
286 -8 m 0,0,1
 200 -8 200 -8 128.5 13.5 c 128,-1,2
 57 35 57 35 11 73 c 1,3,-1
 45 151 l 1,4,5
 87 116 87 116 149.5 97 c 128,-1,6
 212 78 212 78 287 78 c 0,7,8
 388 78 388 78 437 111.5 c 128,-1,9
 486 145 486 145 486 203 c 0,10,11
 486 243 486 243 465 269.5 c 128,-1,12
 444 296 444 296 406.5 308.5 c 128,-1,13
 369 321 369 321 318 321 c 2,14,-1
 153 321 l 1,15,-1
 153 402 l 1,16,-1
 313 402 l 2,17,18
 381 402 381 402 418.5 427.5 c 128,-1,19
 456 453 456 453 456 504 c 0,20,21
 456 546 456 546 433 571.5 c 128,-1,22
 410 597 410 597 372.5 609 c 128,-1,23
 335 621 335 621 290 621 c 0,24,25
 254 621 254 621 215.5 614 c 128,-1,26
 177 607 177 607 141 594.5 c 128,-1,27
 105 582 105 582 74 566 c 1,28,-1
 45 646 l 1,29,30
 99 676 99 676 162.5 691.5 c 128,-1,31
 226 707 226 707 289 707 c 0,32,33
 342 707 342 707 390 695.5 c 128,-1,34
 438 684 438 684 475.5 661 c 128,-1,35
 513 638 513 638 534.5 602 c 128,-1,36
 556 566 556 566 556 518 c 256,37,38
 556 470 556 470 534.5 431 c 128,-1,39
 513 392 513 392 473 369 c 128,-1,40
 433 346 433 346 380 346 c 1,41,-1
 385 375 l 1,42,43
 439 375 439 375 485 354 c 128,-1,44
 531 333 531 333 558.5 293.5 c 128,-1,45
 586 254 586 254 586 197 c 0,46,47
 586 138 586 138 551.5 91.5 c 128,-1,48
 517 45 517 45 450.5 18.5 c 128,-1,49
 384 -8 384 -8 286 -8 c 0,0,1
EndSplineSet
Substitution2: "'c2sc' Capitals to Small Capitals lookup 45 subtable" uni025C.sc
Substitution2: "'aalt' Access All Alternates lookup 0 subtable" uni025C.sc
EndChar

StartChar: uni01A9
Encoding: 425 425 99
Width: 501
GlyphClass: 1
Flags: W
LayerCount: 2
Fore
SplineSet
118 -8 m 0,0,1
 80 -8 80 -8 43 4.5 c 128,-1,2
 6 17 6 17 -21 43 c 1,3,-1
 10 115 l 1,4,5
 32 97 32 97 56 87.5 c 128,-1,6
 80 78 80 78 104 78 c 0,7,8
 144 78 144 78 173 101 c 128,-1,9
 202 124 202 124 201 176 c 2,10,-1
 196 520 l 2,11,12
 195 585 195 585 218.5 626.5 c 128,-1,13
 242 668 242 668 283.5 688 c 128,-1,14
 325 708 325 708 379 708 c 0,15,16
 419 708 419 708 455 695.5 c 128,-1,17
 491 683 491 683 518 657 c 1,18,-1
 488 584 l 1,19,20
 465 603 465 603 441 612 c 128,-1,21
 417 621 417 621 394 621 c 256,22,23
 371 621 371 621 348.5 613 c 128,-1,24
 326 605 326 605 311.5 584 c 128,-1,25
 297 563 297 563 297 524 c 2,26,-1
 301 180 l 2,27,28
 302 122 302 122 284.5 85 c 128,-1,29
 267 48 267 48 239 27.5 c 128,-1,30
 211 7 211 7 179 -0.5 c 128,-1,31
 147 -8 147 -8 118 -8 c 0,0,1
EndSplineSet
Substitution2: "'c2sc' Capitals to Small Capitals lookup 45 subtable" uni0283.sc
Substitution2: "'aalt' Access All Alternates lookup 0 subtable" uni0283.sc
EndChar

StartChar: uni0246
Encoding: 582 582 100
Width: 690
GlyphClass: 2
Flags: W
AnchorPoint: "Anchor-3" 362 700 basechar 0
AnchorPoint: "Anchor-2" 623 0 basechar 0
AnchorPoint: "Anchor-0" 362 0 basechar 0
LayerCount: 2
Fore
SplineSet
150 -70 m 1,0,-1
 529 770 l 1,1,-1
 608 770 l 1,2,-1
 230 -70 l 1,3,-1
 150 -70 l 1,0,-1
115 0 m 1,4,-1
 115 700 l 1,5,-1
 609 700 l 1,6,-1
 609 613 l 1,7,-1
 215 613 l 1,8,-1
 215 87 l 1,9,-1
 624 87 l 1,10,-1
 624 0 l 1,11,-1
 115 0 l 1,4,-1
206 313 m 1,12,-1
 206 398 l 1,13,-1
 566 398 l 1,14,-1
 566 313 l 1,15,-1
 206 313 l 1,12,-1
EndSplineSet
Substitution2: "'ss01' Style Set 1 lookup 50 subtable" uni0246.ss01
Substitution2: "'c2sc' Capitals to Small Capitals lookup 45 subtable" uni0247.sc
AlternateSubs2: "'aalt' Access All Alternates lookup 1 subtable" uni0247.sc uni0246.ss01
EndChar

StartChar: uni018F
Encoding: 399 399 103
Width: 837
GlyphClass: 2
Flags: W
AnchorPoint: "Anchor-3" 419 700 basechar 0
AnchorPoint: "Anchor-2" 468 0 basechar 0
AnchorPoint: "Anchor-0" 419 0 basechar 0
LayerCount: 2
Fore
SplineSet
419 -8 m 0,0,1
 341 -8 341 -8 275 19 c 128,-1,2
 209 46 209 46 160.5 94.5 c 128,-1,3
 112 143 112 143 85 209.5 c 128,-1,4
 58 276 58 276 58 354 c 2,5,-1
 58 382 l 1,6,-1
 690 382 l 1,7,-1
 690 297 l 1,8,-1
 125 297 l 1,9,-1
 157 350 l 1,10,11
 157 289 157 289 176 239 c 128,-1,12
 195 189 195 189 230 153.5 c 128,-1,13
 265 118 265 118 313 98 c 128,-1,14
 361 78 361 78 419 78 c 256,15,16
 477 78 477 78 524.5 97.5 c 128,-1,17
 572 117 572 117 606.5 152.5 c 128,-1,18
 641 188 641 188 660 237 c 128,-1,19
 679 286 679 286 679 345 c 2,20,-1
 679 354 l 2,21,22
 679 411 679 411 658.5 459.5 c 128,-1,23
 638 508 638 508 601.5 543.5 c 128,-1,24
 565 579 565 579 516.5 599 c 128,-1,25
 468 619 468 619 412 619 c 0,26,27
 371 619 371 619 331.5 610 c 128,-1,28
 292 601 292 601 256.5 583 c 128,-1,29
 221 565 221 565 192 537 c 1,30,-1
 132 606 l 1,31,32
 165 639 165 639 208.5 661.5 c 128,-1,33
 252 684 252 684 304 696 c 128,-1,34
 356 708 356 708 413 708 c 0,35,36
 493 708 493 708 559.5 681.5 c 128,-1,37
 626 655 626 655 675.5 606.5 c 128,-1,38
 725 558 725 558 752 493 c 128,-1,39
 779 428 779 428 779 351 c 256,40,41
 779 274 779 274 752 208.5 c 128,-1,42
 725 143 725 143 676 94.5 c 128,-1,43
 627 46 627 46 561.5 19 c 128,-1,44
 496 -8 496 -8 419 -8 c 0,0,1
EndSplineSet
Substitution2: "'ss01' Style Set 1 lookup 50 subtable" uni018F.ss01
Substitution2: "'c2sc' Capitals to Small Capitals lookup 45 subtable" uni0259.sc
AlternateSubs2: "'aalt' Access All Alternates lookup 1 subtable" uni0259.sc uni018F.ss01
EndChar

StartChar: uni01B8
Encoding: 440 440 106
Width: 648
GlyphClass: 2
Flags: W
AnchorPoint: "Anchor-3" 327 700 basechar 0
AnchorPoint: "Anchor-0" 327 0 basechar 0
LayerCount: 2
Fore
SplineSet
341 -8 m 0,0,1
 248 -8 248 -8 186.5 20.5 c 128,-1,2
 125 49 125 49 95 98 c 128,-1,3
 65 147 65 147 65 206 c 256,4,5
 65 265 65 265 94.5 310.5 c 128,-1,6
 124 356 124 356 183.5 381 c 128,-1,7
 243 406 243 406 332 406 c 2,8,-1
 365 406 l 1,9,-1
 327 377 l 1,10,-1
 97 632 l 1,11,-1
 97 700 l 1,12,-1
 580 700 l 1,13,-1
 580 615 l 1,14,-1
 174 615 l 1,15,-1
 182 660 l 1,16,-1
 413 405 l 1,17,-1
 413 328 l 1,18,-1
 350 328 l 2,19,20
 254 328 254 328 208 295 c 128,-1,21
 162 262 162 262 162 206 c 0,22,23
 162 147 162 147 209.5 113 c 128,-1,24
 257 79 257 79 343 79 c 0,25,26
 414 79 414 79 473.5 100.5 c 128,-1,27
 533 122 533 122 570 155 c 1,28,-1
 607 76 l 1,29,30
 565 38 565 38 493.5 15 c 128,-1,31
 422 -8 422 -8 341 -8 c 0,0,1
EndSplineSet
Substitution2: "'c2sc' Capitals to Small Capitals lookup 45 subtable" uni01B9.sc
Substitution2: "'aalt' Access All Alternates lookup 0 subtable" uni01B9.sc
EndChar

StartChar: F
Encoding: 70 70 107
Width: 655
GlyphClass: 2
Flags: W
AnchorPoint: "Anchor-3" 360 700 basechar 0
AnchorPoint: "Anchor-0" 360 0 basechar 0
LayerCount: 2
Fore
SplineSet
115 0 m 1,0,-1
 115 700 l 1,1,-1
 609 700 l 1,2,-1
 609 613 l 1,3,-1
 215 613 l 1,4,-1
 215 0 l 1,5,-1
 115 0 l 1,0,-1
205 283 m 1,6,-1
 205 369 l 1,7,-1
 566 369 l 1,8,-1
 566 283 l 1,9,-1
 205 283 l 1,6,-1
EndSplineSet
Substitution2: "'ss01' Style Set 1 lookup 50 subtable" F.ss01
Substitution2: "'c2sc' Capitals to Small Capitals lookup 45 subtable" f.sc
AlternateSubs2: "'aalt' Access All Alternates lookup 1 subtable" f.sc F.ss01
EndChar

StartChar: uni0191
Encoding: 401 401 109
Width: 672
GlyphClass: 1
Flags: W
LayerCount: 2
Fore
SplineSet
-15 -185 m 1,0,-1
 13 -107 l 1,1,2
 41 -117 41 -117 67.5 -113 c 128,-1,3
 94 -109 94 -109 112 -89 c 128,-1,4
 130 -69 130 -69 130 -33 c 2,5,-1
 130 700 l 1,6,-1
 624 700 l 1,7,-1
 624 613 l 1,8,-1
 229 613 l 1,9,-1
 229 -33 l 2,10,11
 229 -87 229 -87 206.5 -124.5 c 128,-1,12
 184 -162 184 -162 148.5 -181 c 128,-1,13
 113 -200 113 -200 70 -201 c 128,-1,14
 27 -202 27 -202 -15 -185 c 1,0,-1
220 283 m 1,15,-1
 220 369 l 1,16,-1
 581 369 l 1,17,-1
 581 283 l 1,18,-1
 220 283 l 1,15,-1
EndSplineSet
Substitution2: "'ss01' Style Set 1 lookup 50 subtable" uni0191.ss01
Substitution2: "'c2sc' Capitals to Small Capitals lookup 45 subtable" florin.sc
AlternateSubs2: "'aalt' Access All Alternates lookup 1 subtable" florin.sc uni0191.ss01
EndChar

StartChar: G
Encoding: 71 71 110
Width: 792
GlyphClass: 2
Flags: W
AnchorPoint: "Anchor-3" 420 700 basechar 0
AnchorPoint: "Anchor-0" 415 0 basechar 0
LayerCount: 2
Fore
SplineSet
431 -8 m 0,0,1
 350 -8 350 -8 282 18.5 c 128,-1,2
 214 45 214 45 164 93.5 c 128,-1,3
 114 142 114 142 86 207 c 128,-1,4
 58 272 58 272 58 350 c 256,5,6
 58 428 58 428 86 493 c 128,-1,7
 114 558 114 558 164.5 606.5 c 128,-1,8
 215 655 215 655 283 681.5 c 128,-1,9
 351 708 351 708 433 708 c 0,10,11
 516 708 516 708 585 681 c 128,-1,12
 654 654 654 654 702 600 c 1,13,-1
 640 538 l 1,14,15
 597 580 597 580 546.5 599.5 c 128,-1,16
 496 619 496 619 437 619 c 0,17,18
 377 619 377 619 325.5 599 c 128,-1,19
 274 579 274 579 236.5 543 c 128,-1,20
 199 507 199 507 178.5 457.5 c 128,-1,21
 158 408 158 408 158 350 c 0,22,23
 158 293 158 293 178.5 243.5 c 128,-1,24
 199 194 199 194 236.5 157.5 c 128,-1,25
 274 121 274 121 325 101 c 128,-1,26
 376 81 376 81 436 81 c 0,27,28
 492 81 492 81 543.5 98.5 c 128,-1,29
 595 116 595 116 639 157 c 1,30,-1
 696 81 l 1,31,32
 644 37 644 37 574.5 14.5 c 128,-1,33
 505 -8 505 -8 431 -8 c 0,0,1
696 81 m 1,34,-1
 600 94 l 1,35,-1
 600 354 l 1,36,-1
 696 354 l 1,37,-1
 696 81 l 1,34,-1
EndSplineSet
Substitution2: "'ss01' Style Set 1 lookup 50 subtable" G.ss01
Substitution2: "'c2sc' Capitals to Small Capitals lookup 45 subtable" g.sc
AlternateSubs2: "'aalt' Access All Alternates lookup 1 subtable" g.sc G.ss01
EndChar

StartChar: uni0193
Encoding: 403 403 117
Width: 801
GlyphClass: 2
Flags: W
AnchorPoint: "Anchor-3" 418 700 basechar 0
AnchorPoint: "Anchor-0" 418 0 basechar 0
LayerCount: 2
Fore
SplineSet
431 -8 m 0,0,1
 350 -8 350 -8 282 18.5 c 128,-1,2
 214 45 214 45 164 93.5 c 128,-1,3
 114 142 114 142 86 207 c 128,-1,4
 58 272 58 272 58 350 c 256,5,6
 58 428 58 428 86 493 c 128,-1,7
 114 558 114 558 164.5 606.5 c 128,-1,8
 215 655 215 655 283 681.5 c 128,-1,9
 351 708 351 708 433 708 c 0,10,11
 516 708 516 708 585 681 c 128,-1,12
 654 654 654 654 702 600 c 1,13,-1
 640 538 l 1,14,15
 597 580 597 580 546.5 599.5 c 128,-1,16
 496 619 496 619 437 619 c 0,17,18
 377 619 377 619 325.5 599 c 128,-1,19
 274 579 274 579 236.5 543 c 128,-1,20
 199 507 199 507 178.5 457.5 c 128,-1,21
 158 408 158 408 158 350 c 0,22,23
 158 293 158 293 178.5 243.5 c 128,-1,24
 199 194 199 194 236.5 157.5 c 128,-1,25
 274 121 274 121 325 101 c 128,-1,26
 376 81 376 81 436 81 c 0,27,28
 492 81 492 81 543.5 98.5 c 128,-1,29
 595 116 595 116 639 157 c 1,30,-1
 696 81 l 1,31,32
 644 37 644 37 574.5 14.5 c 128,-1,33
 505 -8 505 -8 431 -8 c 0,0,1
696 81 m 1,34,-1
 600 94 l 1,35,-1
 600 354 l 1,36,-1
 696 354 l 1,37,-1
 696 81 l 1,34,-1
611 600 m 1,38,-1
 611 674 l 2,39,40
 611 727 611 727 631.5 763 c 128,-1,41
 652 799 652 799 685.5 818.5 c 128,-1,42
 719 838 719 838 760.5 839.5 c 128,-1,43
 802 841 802 841 842 824 c 1,44,-1
 815 746 l 1,45,46
 788 757 788 757 762 752 c 128,-1,47
 736 747 736 747 719 727 c 128,-1,48
 702 707 702 707 702 674 c 2,49,-1
 702 600 l 1,50,-1
 611 600 l 1,38,-1
EndSplineSet
Substitution2: "'ss01' Style Set 1 lookup 50 subtable" uni0193.ss01
Substitution2: "'c2sc' Capitals to Small Capitals lookup 45 subtable" uni0260.sc
AlternateSubs2: "'aalt' Access All Alternates lookup 1 subtable" uni0260.sc uni0193.ss01
EndChar

StartChar: uni0241
Encoding: 577 577 118
Width: 591
GlyphClass: 2
Flags: W
AnchorPoint: "Anchor-3" 262 700 basechar 0
AnchorPoint: "Anchor-0" 262 0 basechar 0
LayerCount: 2
Fore
SplineSet
212 0 m 1,0,-1
 212 157 l 2,1,2
 212 209 212 209 230.5 243.5 c 128,-1,3
 249 278 249 278 277 301.5 c 128,-1,4
 305 325 305 325 337.5 344 c 128,-1,5
 370 363 370 363 398.5 382 c 128,-1,6
 427 401 427 401 445.5 426.5 c 128,-1,7
 464 452 464 452 464 490 c 0,8,9
 464 536 464 536 437 564.5 c 128,-1,10
 410 593 410 593 367.5 607.5 c 128,-1,11
 325 622 325 622 278 622 c 0,12,13
 236 622 236 622 195 610.5 c 128,-1,14
 154 599 154 599 119.5 575.5 c 128,-1,15
 85 552 85 552 61 516 c 1,16,-1
 -18 573 l 1,17,18
 15 618 15 618 61.5 648 c 128,-1,19
 108 678 108 678 163.5 693 c 128,-1,20
 219 708 219 708 277 708 c 0,21,22
 333 708 333 708 384 694.5 c 128,-1,23
 435 681 435 681 475.5 654.5 c 128,-1,24
 516 628 516 628 540 587 c 128,-1,25
 564 546 564 546 564 491 c 0,26,27
 564 442 564 442 545.5 407.5 c 128,-1,28
 527 373 527 373 498.5 348.5 c 128,-1,29
 470 324 470 324 438 304.5 c 128,-1,30
 406 285 406 285 377 264.5 c 128,-1,31
 348 244 348 244 329.5 217 c 128,-1,32
 311 190 311 190 311 152 c 2,33,-1
 311 0 l 1,34,-1
 212 0 l 1,0,-1
EndSplineSet
Substitution2: "'c2sc' Capitals to Small Capitals lookup 45 subtable" uni0294.sc
Substitution2: "'aalt' Access All Alternates lookup 0 subtable" uni0294.sc
EndChar

StartChar: uni01E4
Encoding: 484 484 120
Width: 822
GlyphClass: 2
Flags: W
AnchorPoint: "Anchor-3" 420 700 basechar 0
AnchorPoint: "Anchor-0" 415 0 basechar 0
LayerCount: 2
Fore
SplineSet
431 -8 m 0,0,1
 350 -8 350 -8 282 18.5 c 128,-1,2
 214 45 214 45 164 93.5 c 128,-1,3
 114 142 114 142 86 207 c 128,-1,4
 58 272 58 272 58 350 c 256,5,6
 58 428 58 428 86 493 c 128,-1,7
 114 558 114 558 164.5 606.5 c 128,-1,8
 215 655 215 655 283 681.5 c 128,-1,9
 351 708 351 708 433 708 c 0,10,11
 516 708 516 708 585 681 c 128,-1,12
 654 654 654 654 702 600 c 1,13,-1
 640 538 l 1,14,15
 597 580 597 580 546.5 599.5 c 128,-1,16
 496 619 496 619 437 619 c 0,17,18
 377 619 377 619 325.5 599 c 128,-1,19
 274 579 274 579 236.5 543 c 128,-1,20
 199 507 199 507 178.5 457.5 c 128,-1,21
 158 408 158 408 158 350 c 0,22,23
 158 293 158 293 178.5 243.5 c 128,-1,24
 199 194 199 194 236.5 157.5 c 128,-1,25
 274 121 274 121 325 101 c 128,-1,26
 376 81 376 81 436 81 c 0,27,28
 492 81 492 81 543.5 98.5 c 128,-1,29
 595 116 595 116 639 157 c 1,30,-1
 696 81 l 1,31,32
 644 37 644 37 574.5 14.5 c 128,-1,33
 505 -8 505 -8 431 -8 c 0,0,1
447 209 m 1,34,-1
 447 288 l 1,35,-1
 799 288 l 1,36,-1
 799 209 l 1,37,-1
 447 209 l 1,34,-1
696 81 m 1,38,-1
 600 94 l 1,39,-1
 600 354 l 1,40,-1
 696 354 l 1,41,-1
 696 81 l 1,38,-1
EndSplineSet
Substitution2: "'ss01' Style Set 1 lookup 50 subtable" uni01E4.ss01
Substitution2: "'c2sc' Capitals to Small Capitals lookup 45 subtable" uni01E5.sc
AlternateSubs2: "'aalt' Access All Alternates lookup 1 subtable" uni01E5.sc uni01E4.ss01
EndChar

StartChar: uni021C
Encoding: 540 540 121
Width: 629
GlyphClass: 1
Flags: W
LayerCount: 2
Fore
SplineSet
-2 -103 m 1,0,-1
 -7 -20 l 1,1,2
 102 -6 102 -6 189 14 c 128,-1,3
 276 34 276 34 337 61.5 c 128,-1,4
 398 89 398 89 430.5 125 c 128,-1,5
 463 161 463 161 463 208 c 0,6,7
 463 249 463 249 439 272.5 c 128,-1,8
 415 296 415 296 374 302 c 128,-1,9
 333 308 333 308 280 298 c 2,10,-1
 146 269 l 1,11,-1
 140 352 l 1,12,-1
 251 376 l 2,13,14
 301 388 301 388 343 406 c 128,-1,15
 385 424 385 424 409.5 451 c 128,-1,16
 434 478 434 478 434 516 c 0,17,18
 434 544 434 544 420 567.5 c 128,-1,19
 406 591 406 591 377.5 606.5 c 128,-1,20
 349 622 349 622 303 623 c 0,21,22
 269 624 269 624 225.5 615.5 c 128,-1,23
 182 607 182 607 133 589 c 128,-1,24
 84 571 84 571 33 544 c 1,25,-1
 0 618 l 1,26,27
 49 648 49 648 102.5 668 c 128,-1,28
 156 688 156 688 209.5 698 c 128,-1,29
 263 708 263 708 312 708 c 0,30,31
 391 707 391 707 440 682 c 128,-1,32
 489 657 489 657 512 618 c 128,-1,33
 535 579 535 579 535 535 c 0,34,35
 535 481 535 481 504 441 c 128,-1,36
 473 401 473 401 420 375 c 128,-1,37
 367 349 367 349 301 334 c 1,38,-1
 297 356 l 1,39,40
 374 374 374 374 435 359.5 c 128,-1,41
 496 345 496 345 531 305 c 128,-1,42
 566 265 566 265 566 204 c 0,43,44
 566 140 566 140 524.5 88 c 128,-1,45
 483 36 483 36 407.5 -3 c 128,-1,46
 332 -42 332 -42 228 -67 c 128,-1,47
 124 -92 124 -92 -2 -103 c 1,0,-1
EndSplineSet
Substitution2: "'c2sc' Capitals to Small Capitals lookup 45 subtable" uni021D.sc
Substitution2: "'aalt' Access All Alternates lookup 0 subtable" uni021D.sc
EndChar

StartChar: H
Encoding: 72 72 122
Width: 832
GlyphClass: 2
Flags: W
AnchorPoint: "Anchor-3" 415 700 basechar 0
AnchorPoint: "Anchor-1" 416 545 basechar 0
AnchorPoint: "Anchor-0" 415 0 basechar 0
LayerCount: 2
Fore
SplineSet
617 0 m 1,0,-1
 617 700 l 1,1,-1
 717 700 l 1,2,-1
 717 0 l 1,3,-1
 617 0 l 1,0,-1
115 0 m 1,4,-1
 115 700 l 1,5,-1
 215 700 l 1,6,-1
 215 0 l 1,7,-1
 115 0 l 1,4,-1
205 312 m 1,8,-1
 205 399 l 1,9,-1
 626 399 l 1,10,-1
 626 312 l 1,11,-1
 205 312 l 1,8,-1
EndSplineSet
Substitution2: "'c2sc' Capitals to Small Capitals lookup 45 subtable" h.sc
Substitution2: "'aalt' Access All Alternates lookup 0 subtable" h.sc
EndChar

StartChar: Hbar
Encoding: 294 294 123
Width: 847
GlyphClass: 2
Flags: W
AnchorPoint: "Anchor-3" 423 700 basechar 0
AnchorPoint: "Anchor-1" 424 545 basechar 0
AnchorPoint: "Anchor-0" 423 0 basechar 0
LayerCount: 2
Fore
SplineSet
625 0 m 1,0,-1
 625 700 l 1,1,-1
 724 700 l 1,2,-1
 724 0 l 1,3,-1
 625 0 l 1,0,-1
123 0 m 1,4,-1
 123 700 l 1,5,-1
 222 700 l 1,6,-1
 222 0 l 1,7,-1
 123 0 l 1,4,-1
213 312 m 1,8,-1
 213 399 l 1,9,-1
 633 399 l 1,10,-1
 633 312 l 1,11,-1
 213 312 l 1,8,-1
20 505 m 1,12,-1
 20 584 l 1,13,-1
 827 584 l 1,14,-1
 827 505 l 1,15,-1
 20 505 l 1,12,-1
EndSplineSet
Substitution2: "'c2sc' Capitals to Small Capitals lookup 45 subtable" hbar.sc
Substitution2: "'aalt' Access All Alternates lookup 0 subtable" hbar.sc
EndChar

StartChar: uni1E28
Encoding: 7720 7720 126
Width: 832
GlyphClass: 2
Flags: W
AnchorPoint: "Anchor-3" 415 700 basechar 0
AnchorPoint: "Anchor-1" 415 553 basechar 0
AnchorPoint: "Anchor-0" 415 0 basechar 0
LayerCount: 2
Fore
SplineSet
617 0 m 1,0,-1
 617 700 l 1,1,-1
 717 700 l 1,2,-1
 717 0 l 1,3,-1
 617 0 l 1,0,-1
160 -224 m 0,4,5
 134 -224 134 -224 112 -218.5 c 128,-1,6
 90 -213 90 -213 72 -202 c 1,7,-1
 92 -153 l 1,8,9
 108 -162 108 -162 124.5 -166 c 128,-1,10
 141 -170 141 -170 160 -170 c 0,11,12
 189 -170 189 -170 203 -159.5 c 128,-1,13
 217 -149 217 -149 217 -130 c 0,14,15
 217 -112 217 -112 203 -101.5 c 128,-1,16
 189 -91 189 -91 159 -91 c 2,17,-1
 120 -91 l 1,18,-1
 145 6 l 1,19,-1
 199 6 l 1,20,-1
 186 -50 l 1,21,22
 238 -54 238 -54 261.5 -77 c 128,-1,23
 285 -100 285 -100 285 -133 c 0,24,25
 285 -175 285 -175 250.5 -199.5 c 128,-1,26
 216 -224 216 -224 160 -224 c 0,4,5
115 0 m 1,27,-1
 115 700 l 1,28,-1
 215 700 l 1,29,-1
 215 0 l 1,30,-1
 115 0 l 1,27,-1
205 312 m 1,31,-1
 205 399 l 1,32,-1
 626 399 l 1,33,-1
 626 312 l 1,34,-1
 205 312 l 1,31,-1
EndSplineSet
Substitution2: "'c2sc' Capitals to Small Capitals lookup 45 subtable" uni1E29.sc
Substitution2: "'aalt' Access All Alternates lookup 0 subtable" uni1E29.sc
EndChar

StartChar: uniA7AA
Encoding: 42922 42922 132
Width: 998
GlyphClass: 2
Flags: W
AnchorPoint: "Anchor-3" 581 700 basechar 0
AnchorPoint: "Anchor-1" 582 545 basechar 0
AnchorPoint: "Anchor-0" 581 0 basechar 0
LayerCount: 2
Fore
SplineSet
112 383 m 1,0,1
 77 416 77 416 59 458 c 128,-1,2
 41 500 41 500 41.5 542 c 128,-1,3
 42 584 42 584 61.5 620 c 128,-1,4
 81 656 81 656 121 678 c 128,-1,5
 161 700 161 700 223 700 c 2,6,-1
 289 700 l 1,7,-1
 289 613 l 1,8,-1
 224 613 l 2,9,10
 188 613 188 613 167.5 596.5 c 128,-1,11
 147 580 147 580 141.5 553.5 c 128,-1,12
 136 527 136 527 145.5 496.5 c 128,-1,13
 155 466 155 466 180 438 c 1,14,-1
 112 383 l 1,0,1
783 0 m 1,15,-1
 783 700 l 1,16,-1
 883 700 l 1,17,-1
 883 0 l 1,18,-1
 783 0 l 1,15,-1
281 0 m 1,19,-1
 281 700 l 1,20,-1
 380 700 l 1,21,-1
 380 0 l 1,22,-1
 281 0 l 1,19,-1
371 312 m 1,23,-1
 371 399 l 1,24,-1
 792 399 l 1,25,-1
 792 312 l 1,26,-1
 371 312 l 1,23,-1
EndSplineSet
Substitution2: "'c2sc' Capitals to Small Capitals lookup 45 subtable" uni0266.sc
Substitution2: "'aalt' Access All Alternates lookup 0 subtable" uni0266.sc
EndChar

StartChar: uniA78D
Encoding: 42893 42893 133
Width: 773
GlyphClass: 2
Flags: W
AnchorPoint: "Anchor-3" 362 700 basechar 0
AnchorPoint: "Anchor-0" 361 0 basechar 0
LayerCount: 2
Fore
SplineSet
658 700 m 1,0,-1
 658 0 l 1,1,-1
 562 0 l 1,2,-1
 562 398 l 1,3,-1
 590 382 l 1,4,5
 557 297 557 297 490.5 258 c 128,-1,6
 424 219 424 219 332 219 c 0,7,8
 208 219 208 219 136 294.5 c 128,-1,9
 64 370 64 370 64 512 c 2,10,-1
 64 700 l 1,11,-1
 163 700 l 1,12,-1
 163 515 l 2,13,14
 163 411 163 411 214 359.5 c 128,-1,15
 265 308 265 308 352 308 c 0,16,17
 445 308 445 308 501.5 362.5 c 128,-1,18
 558 417 558 417 558 530 c 2,19,-1
 558 700 l 1,20,-1
 658 700 l 1,0,-1
EndSplineSet
Substitution2: "'c2sc' Capitals to Small Capitals lookup 45 subtable" uni0265.sc
Substitution2: "'aalt' Access All Alternates lookup 0 subtable" uni0265.sc
EndChar

StartChar: I
Encoding: 73 73 134
Width: 330
GlyphClass: 2
Flags: W
AnchorPoint: "Anchor-3" 165 700 basechar 0
AnchorPoint: "Anchor-2" 215 0 basechar 0
AnchorPoint: "Anchor-1" 165 350 basechar 0
AnchorPoint: "Anchor-0" 165 0 basechar 0
LayerCount: 2
Fore
SplineSet
29 87 m 1,0,-1
 301 87 l 1,1,-1
 301 0 l 1,2,-1
 29 0 l 1,3,-1
 29 87 l 1,0,-1
29 700 m 1,4,-1
 301 700 l 1,5,-1
 301 613 l 1,6,-1
 29 613 l 1,7,-1
 29 700 l 1,4,-1
115 10 m 1,8,-1
 115 690 l 1,9,-1
 215 690 l 1,10,-1
 215 10 l 1,11,-1
 115 10 l 1,8,-1
EndSplineSet
Substitution2: "'ss01' Style Set 1 lookup 50 subtable" I.ss01
Substitution2: "'c2sc' Capitals to Small Capitals lookup 45 subtable" i.sc
AlternateSubs2: "'aalt' Access All Alternates lookup 1 subtable" i.sc I.ss01
EndChar

StartChar: IJ
Encoding: 306 306 135
Width: 740
GlyphClass: 2
Flags: W
AnchorPoint: "Anchor-3" 163 700 basechar 0
LayerCount: 2
Fore
SplineSet
337 -8 m 0,0,1
 266 -8 266 -8 204.5 11.5 c 128,-1,2
 143 31 143 31 97 63 c 1,3,-1
 136 143 l 1,4,5
 179 113 179 113 231.5 97 c 128,-1,6
 284 81 284 81 339 81 c 0,7,8
 431 81 431 81 481 135 c 128,-1,9
 531 189 531 189 531 302 c 2,10,-1
 531 700 l 1,11,-1
 631 700 l 1,12,-1
 631 307 l 2,13,14
 631 203 631 203 594 133 c 128,-1,15
 557 63 557 63 491.5 27.5 c 128,-1,16
 426 -8 426 -8 337 -8 c 0,0,1
109 309 m 1,17,-1
 109 700 l 1,18,-1
 209 700 l 1,19,-1
 209 309 l 1,20,-1
 109 309 l 1,17,-1
EndSplineSet
Substitution2: "'ss01' Style Set 1 lookup 50 subtable" IJ.ss01
Substitution2: "'c2sc' Capitals to Small Capitals lookup 45 subtable" ij.sc
AlternateSubs2: "'aalt' Access All Alternates lookup 1 subtable" ij.sc IJ.ss01
EndChar

StartChar: Iacute_J.loclNLD
Encoding: 65537 -1 136
Width: 740
GlyphClass: 1
Flags: W
LayerCount: 2
Fore
SplineSet
337 -6 m 0,0,1
 266 -6 266 -6 204.5 14.5 c 128,-1,2
 143 35 143 35 97 67 c 1,3,-1
 136 146 l 1,4,5
 179 115 179 115 230.5 99 c 128,-1,6
 282 83 282 83 334 83 c 0,7,8
 429 83 429 83 480 137 c 128,-1,9
 531 191 531 191 531 304 c 2,10,-1
 531 700 l 1,11,-1
 631 700 l 1,12,-1
 631 308 l 2,13,14
 631 205 631 205 594 135.5 c 128,-1,15
 557 66 557 66 491.5 30 c 128,-1,16
 426 -6 426 -6 337 -6 c 0,0,1
109 309 m 1,17,-1
 109 700 l 1,18,-1
 209 700 l 1,19,-1
 209 309 l 1,20,-1
 109 309 l 1,17,-1
111 757 m 1,21,-1
 248 887 l 1,22,-1
 353 887 l 1,23,-1
 185 757 l 1,24,-1
 111 757 l 1,21,-1
533 757 m 1,25,-1
 670 887 l 1,26,-1
 775 887 l 1,27,-1
 607 757 l 1,28,-1
 533 757 l 1,25,-1
EndSplineSet
Substitution2: "'ss01' Style Set 1 lookup 50 subtable" Iacute_J.loclNLD.ss01
Substitution2: "'c2sc' Capitals to Small Capitals lookup 45 subtable" iacute_j.loclNLD.sc
Ligature2: "'locl' Localized Forms in Latin lookup 16 subtable" Iacute J
AlternateSubs2: "'aalt' Access All Alternates lookup 1 subtable" iacute_j.loclNLD.sc Iacute_J.loclNLD.ss01
EndChar

StartChar: uni0196
Encoding: 406 406 151
Width: 402
GlyphClass: 2
Flags: W
AnchorPoint: "Anchor-3" 159 700 basechar 0
AnchorPoint: "Anchor-2" 327 0 basechar 0
AnchorPoint: "Anchor-0" 245 0 basechar 0
LayerCount: 2
Fore
SplineSet
277 -8 m 1,0,-1
 277 -8 l 1,1,2
 234 -8 234 -8 195.5 10 c 128,-1,3
 157 28 157 28 133 66.5 c 128,-1,4
 109 105 109 105 109 163 c 2,5,-1
 109 700 l 1,6,-1
 208 700 l 1,7,-1
 208 163 l 2,8,9
 208 121 208 121 232.5 99.5 c 128,-1,10
 257 78 257 78 290 78 c 0,11,12
 309 78 309 78 328.5 84 c 128,-1,13
 348 90 348 90 367 102 c 1,14,-1
 398 28 l 1,15,16
 371 11 371 11 339.5 1.5 c 128,-1,17
 308 -8 308 -8 277 -8 c 1,0,-1
EndSplineSet
Substitution2: "'c2sc' Capitals to Small Capitals lookup 45 subtable" uni0269.sc
Substitution2: "'aalt' Access All Alternates lookup 0 subtable" uni0269.sc
EndChar

StartChar: uni0197
Encoding: 407 407 152
Width: 358
GlyphClass: 2
Flags: W
AnchorPoint: "Anchor-3" 179 700 basechar 0
AnchorPoint: "Anchor-2" 229 0 basechar 0
AnchorPoint: "Anchor-0" 179 0 basechar 0
LayerCount: 2
Fore
SplineSet
129 0 m 1,0,-1
 129 700 l 1,1,-1
 229 700 l 1,2,-1
 229 0 l 1,3,-1
 129 0 l 1,0,-1
26 319 m 1,4,-1
 26 398 l 1,5,-1
 332 398 l 1,6,-1
 332 319 l 1,7,-1
 26 319 l 1,4,-1
EndSplineSet
Substitution2: "'ss01' Style Set 1 lookup 50 subtable" uni0197.ss01
Substitution2: "'c2sc' Capitals to Small Capitals lookup 45 subtable" uni0268.sc
AlternateSubs2: "'aalt' Access All Alternates lookup 1 subtable" uni0268.sc uni0197.ss01
EndChar

StartChar: J
Encoding: 74 74 155
Width: 533
GlyphClass: 2
Flags: W
AnchorPoint: "Anchor-3" 249 700 basechar 0
LayerCount: 2
Fore
SplineSet
205 -8 m 0,0,1
 143 -8 143 -8 89 18 c 128,-1,2
 35 44 35 44 1 93 c 1,3,-1
 59 161 l 1,4,5
 88 121 88 121 124.5 99.5 c 128,-1,6
 161 78 161 78 205 78 c 0,7,8
 325 78 325 78 325 220 c 2,9,-1
 325 613 l 1,10,-1
 72 613 l 1,11,-1
 72 700 l 1,12,-1
 424 700 l 1,13,-1
 424 225 l 2,14,15
 424 108 424 108 368.5 50 c 128,-1,16
 313 -8 313 -8 205 -8 c 0,0,1
EndSplineSet
Substitution2: "'ss01' Style Set 1 lookup 50 subtable" J.ss01
Substitution2: "'c2sc' Capitals to Small Capitals lookup 45 subtable" j.sc
AlternateSubs2: "'aalt' Access All Alternates lookup 1 subtable" j.sc J.ss01
EndChar

StartChar: uniA7B2
Encoding: 42930 42930 157
Width: 531
GlyphClass: 2
Flags: W
AnchorPoint: "Anchor-3" 246 700 basechar 0
LayerCount: 2
Fore
SplineSet
206 -8 m 0,0,1
 156 -8 156 -8 115.5 9 c 128,-1,2
 75 26 75 26 51 59.5 c 128,-1,3
 27 93 27 93 27 138 c 0,4,5
 27 175 27 175 45.5 208.5 c 128,-1,6
 64 242 64 242 109 263.5 c 128,-1,7
 154 285 154 285 231 285 c 2,8,-1
 500 285 l 1,9,-1
 500 205 l 1,10,-1
 231 205 l 2,11,12
 185 205 185 205 160.5 194 c 128,-1,13
 136 183 136 183 128 167 c 128,-1,14
 120 151 120 151 120 137 c 0,15,16
 120 118 120 118 130.5 103.5 c 128,-1,17
 141 89 141 89 160 80.5 c 128,-1,18
 179 72 179 72 205 72 c 0,19,20
 232 72 232 72 258.5 84 c 128,-1,21
 285 96 285 96 302.5 124 c 128,-1,22
 320 152 320 152 320 201 c 2,23,-1
 322 613 l 1,24,-1
 70 613 l 1,25,-1
 70 700 l 1,26,-1
 422 700 l 1,27,-1
 419 201 l 2,28,29
 419 126 419 126 387.5 80 c 128,-1,30
 356 34 356 34 307.5 13 c 128,-1,31
 259 -8 259 -8 206 -8 c 0,0,1
EndSplineSet
Substitution2: "'ss01' Style Set 1 lookup 50 subtable" uniA7B2.ss01
Substitution2: "'c2sc' Capitals to Small Capitals lookup 45 subtable" uni029D.sc
AlternateSubs2: "'aalt' Access All Alternates lookup 1 subtable" uni029D.sc uniA7B2.ss01
EndChar

StartChar: uni0248
Encoding: 584 584 158
Width: 538
GlyphClass: 2
Flags: W
AnchorPoint: "Anchor-3" 249 700 basechar 0
LayerCount: 2
Fore
SplineSet
205 -8 m 0,0,1
 143 -8 143 -8 89 18 c 128,-1,2
 35 44 35 44 1 93 c 1,3,-1
 59 161 l 1,4,5
 88 121 88 121 124.5 99.5 c 128,-1,6
 161 78 161 78 205 78 c 0,7,8
 325 78 325 78 325 220 c 2,9,-1
 325 613 l 1,10,-1
 72 613 l 1,11,-1
 72 700 l 1,12,-1
 424 700 l 1,13,-1
 424 225 l 2,14,15
 424 108 424 108 368.5 50 c 128,-1,16
 313 -8 313 -8 205 -8 c 0,0,1
172 319 m 1,17,-1
 172 398 l 1,18,-1
 527 398 l 1,19,-1
 527 319 l 1,20,-1
 172 319 l 1,17,-1
EndSplineSet
Substitution2: "'ss01' Style Set 1 lookup 50 subtable" uni0248.ss01
Substitution2: "'c2sc' Capitals to Small Capitals lookup 45 subtable" uni0249.sc
AlternateSubs2: "'aalt' Access All Alternates lookup 1 subtable" uni0249.sc uni0248.ss01
EndChar

StartChar: K
Encoding: 75 75 159
Width: 739
GlyphClass: 2
Flags: W
AnchorPoint: "Anchor-3" 385 700 basechar 0
AnchorPoint: "Anchor-0" 385 0 basechar 0
LayerCount: 2
Fore
SplineSet
203 169 m 1,0,-1
 198 291 l 1,1,-1
 595 700 l 1,2,-1
 709 700 l 1,3,-1
 402 376 l 1,4,-1
 346 314 l 1,5,-1
 203 169 l 1,0,-1
115 0 m 1,6,-1
 115 700 l 1,7,-1
 215 700 l 1,8,-1
 215 0 l 1,9,-1
 115 0 l 1,6,-1
611 0 m 1,10,-1
 324 334 l 1,11,-1
 391 408 l 1,12,-1
 728 0 l 1,13,-1
 611 0 l 1,10,-1
EndSplineSet
Substitution2: "'c2sc' Capitals to Small Capitals lookup 45 subtable" k.sc
Substitution2: "'aalt' Access All Alternates lookup 0 subtable" k.sc
EndChar

StartChar: uni0198
Encoding: 408 408 164
Width: 722
GlyphClass: 2
Flags: W
AnchorPoint: "Anchor-3" 385 700 basechar 0
AnchorPoint: "Anchor-0" 385 0 basechar 0
LayerCount: 2
Fore
SplineSet
203 174 m 1,0,-1
 198 297 l 1,1,-1
 510 681 l 2,2,3
 544 724 544 724 584 739 c 128,-1,4
 624 754 624 754 662.5 746.5 c 128,-1,5
 701 739 701 739 733 713 c 1,6,-1
 686 646 l 1,7,8
 662 667 662 667 630 664.5 c 128,-1,9
 598 662 598 662 570 627 c 2,10,-1
 203 174 l 1,0,-1
115 0 m 1,11,-1
 115 700 l 1,12,-1
 215 700 l 1,13,-1
 215 0 l 1,14,-1
 115 0 l 1,11,-1
611 0 m 1,15,-1
 322 337 l 1,16,-1
 388 411 l 1,17,-1
 728 0 l 1,18,-1
 611 0 l 1,15,-1
EndSplineSet
Substitution2: "'c2sc' Capitals to Small Capitals lookup 45 subtable" uni0199.sc
Substitution2: "'aalt' Access All Alternates lookup 0 subtable" uni0199.sc
EndChar

StartChar: uniA740
Encoding: 42816 42816 166
Width: 739
GlyphClass: 2
Flags: W
AnchorPoint: "Anchor-3" 381 700 basechar 0
AnchorPoint: "Anchor-0" 381 0 basechar 0
LayerCount: 2
Fore
SplineSet
203 169 m 1,0,-1
 198 291 l 1,1,-1
 595 700 l 1,2,-1
 709 700 l 1,3,-1
 203 169 l 1,0,-1
115 0 m 1,4,-1
 115 700 l 1,5,-1
 215 700 l 1,6,-1
 215 0 l 1,7,-1
 115 0 l 1,4,-1
611 0 m 1,8,-1
 324 334 l 1,9,-1
 391 408 l 1,10,-1
 728 0 l 1,11,-1
 611 0 l 1,8,-1
12 528 m 1,12,-1
 12 605 l 1,13,-1
 368 605 l 1,14,-1
 368 528 l 1,15,-1
 12 528 l 1,12,-1
EndSplineSet
Substitution2: "'c2sc' Capitals to Small Capitals lookup 45 subtable" uniA741.sc
Substitution2: "'aalt' Access All Alternates lookup 0 subtable" uniA741.sc
EndChar

StartChar: L
Encoding: 76 76 167
Width: 614
GlyphClass: 2
Flags: W
AnchorPoint: "Anchor-4" 448 700 basechar 0
AnchorPoint: "Anchor-3" 165 700 basechar 0
AnchorPoint: "Anchor-1" 165 358 basechar 0
AnchorPoint: "Anchor-0" 355 0 basechar 0
LayerCount: 2
Fore
SplineSet
115 0 m 1,0,-1
 115 700 l 1,1,-1
 215 700 l 1,2,-1
 215 87 l 1,3,-1
 594 87 l 1,4,-1
 594 0 l 1,5,-1
 115 0 l 1,0,-1
EndSplineSet
Substitution2: "'c2sc' Capitals to Small Capitals lookup 45 subtable" l.sc
Substitution2: "'aalt' Access All Alternates lookup 0 subtable" l.sc
EndChar

StartChar: uni023D
Encoding: 573 573 170
Width: 623
GlyphClass: 2
Flags: W
AnchorPoint: "Anchor-4" 457 700 basechar 0
AnchorPoint: "Anchor-3" 174 700 basechar 0
AnchorPoint: "Anchor-1" 174 358 basechar 0
AnchorPoint: "Anchor-0" 365 0 basechar 0
LayerCount: 2
Fore
SplineSet
125 0 m 1,0,-1
 125 700 l 1,1,-1
 224 700 l 1,2,-1
 224 87 l 1,3,-1
 604 87 l 1,4,-1
 604 0 l 1,5,-1
 125 0 l 1,0,-1
22 319 m 1,6,-1
 22 398 l 1,7,-1
 377 398 l 1,8,-1
 377 319 l 1,9,-1
 22 319 l 1,6,-1
EndSplineSet
Substitution2: "'c2sc' Capitals to Small Capitals lookup 45 subtable" uni019A.sc
Substitution2: "'aalt' Access All Alternates lookup 0 subtable" uni019A.sc
EndChar

StartChar: uniA7AD
Encoding: 42925 42925 171
Width: 672
GlyphClass: 2
Flags: W
AnchorPoint: "Anchor-4" 506 700 basechar 0
AnchorPoint: "Anchor-3" 224 700 basechar 0
AnchorPoint: "Anchor-1" 224 376 basechar 0
AnchorPoint: "Anchor-0" 425 0 basechar 0
LayerCount: 2
Fore
SplineSet
174 0 m 1,0,-1
 174 700 l 1,1,-1
 273 700 l 1,2,-1
 273 87 l 1,3,-1
 653 87 l 1,4,-1
 653 0 l 1,5,-1
 174 0 l 1,0,-1
149 319 m 2,6,7
 93 319 93 319 58 337.5 c 128,-1,8
 23 356 23 356 7 384.5 c 128,-1,9
 -9 413 -9 413 -9 445 c 0,10,11
 -9 480 -9 480 7.5 505 c 128,-1,12
 24 530 24 530 50 543.5 c 128,-1,13
 76 557 76 557 105 557 c 0,14,15
 135 557 135 557 162.5 541 c 128,-1,16
 190 525 190 525 207.5 490 c 128,-1,17
 225 455 225 455 225 398 c 1,18,-1
 174 398 l 1,19,20
 174 445 174 445 153 466 c 128,-1,21
 132 487 132 487 110 487 c 0,22,23
 93 487 93 487 82.5 476 c 128,-1,24
 72 465 72 465 72 450 c 0,25,26
 72 431 72 431 89.5 414.5 c 128,-1,27
 107 398 107 398 152 398 c 2,28,-1
 490 398 l 1,29,-1
 491 319 l 1,30,-1
 149 319 l 2,6,7
EndSplineSet
Substitution2: "'c2sc' Capitals to Small Capitals lookup 45 subtable" uni026C.sc
Substitution2: "'aalt' Access All Alternates lookup 0 subtable" uni026C.sc
EndChar

StartChar: uni2C60
Encoding: 11360 11360 178
Width: 654
GlyphClass: 1
Flags: W
LayerCount: 2
Fore
SplineSet
156 0 m 1,0,-1
 156 700 l 1,1,-1
 255 700 l 1,2,-1
 255 87 l 1,3,-1
 635 87 l 1,4,-1
 635 0 l 1,5,-1
 156 0 l 1,0,-1
53 273 m 1,6,-1
 53 351 l 1,7,-1
 408 351 l 1,8,-1
 408 273 l 1,9,-1
 53 273 l 1,6,-1
53 433 m 1,10,-1
 53 510 l 1,11,-1
 408 510 l 1,12,-1
 408 433 l 1,13,-1
 53 433 l 1,10,-1
EndSplineSet
Substitution2: "'c2sc' Capitals to Small Capitals lookup 45 subtable" uni2C61.sc
Substitution2: "'aalt' Access All Alternates lookup 0 subtable" uni2C61.sc
EndChar

StartChar: uni2C62
Encoding: 11362 11362 181
Width: 624
GlyphClass: 2
Flags: W
AnchorPoint: "Anchor-4" 458 700 basechar 0
AnchorPoint: "Anchor-3" 175 700 basechar 0
AnchorPoint: "Anchor-0" 365 0 basechar 0
LayerCount: 2
Fore
SplineSet
125 0 m 1,0,-1
 125 700 l 1,1,-1
 225 700 l 1,2,-1
 225 87 l 1,3,-1
 604 87 l 1,4,-1
 604 0 l 1,5,-1
 125 0 l 1,0,-1
276 327 m 0,6,7
 252 327 252 327 226 337 c 128,-1,8
 200 347 200 347 176.5 360.5 c 128,-1,9
 153 374 153 374 132 384 c 128,-1,10
 111 394 111 394 95 394 c 0,11,12
 74 394 74 394 61 376.5 c 128,-1,13
 48 359 48 359 47 332 c 1,14,-1
 -8 332 l 1,15,16
 -6 388 -6 388 20.5 421 c 128,-1,17
 47 454 47 454 90 454 c 0,18,19
 115 454 115 454 140.5 443.5 c 128,-1,20
 166 433 166 433 190 419.5 c 128,-1,21
 214 406 214 406 234.5 396 c 128,-1,22
 255 386 255 386 271 386 c 0,23,24
 292 386 292 386 305 403.5 c 128,-1,25
 318 421 318 421 319 446 c 1,26,-1
 374 446 l 1,27,28
 373 393 373 393 346 360 c 128,-1,29
 319 327 319 327 276 327 c 0,6,7
EndSplineSet
Substitution2: "'c2sc' Capitals to Small Capitals lookup 45 subtable" uni026B.sc
Substitution2: "'aalt' Access All Alternates lookup 0 subtable" uni026B.sc
EndChar

StartChar: M
Encoding: 77 77 183
Width: 975
GlyphClass: 2
Flags: W
AnchorPoint: "Anchor-3" 487 700 basechar 0
AnchorPoint: "Anchor-0" 487 0 basechar 0
LayerCount: 2
Fore
SplineSet
115 0 m 1,0,-1
 115 700 l 1,1,-1
 197 700 l 1,2,-1
 511 171 l 1,3,-1
 467 171 l 1,4,-1
 777 700 l 1,5,-1
 859 700 l 1,6,-1
 860 0 l 1,7,-1
 764 0 l 1,8,-1
 763 549 l 1,9,-1
 786 549 l 1,10,-1
 510 85 l 1,11,-1
 464 85 l 1,12,-1
 186 549 l 1,13,-1
 211 549 l 1,14,-1
 211 0 l 1,15,-1
 115 0 l 1,0,-1
EndSplineSet
Substitution2: "'ss01' Style Set 1 lookup 50 subtable" M.ss01
Substitution2: "'c2sc' Capitals to Small Capitals lookup 45 subtable" m.sc
AlternateSubs2: "'aalt' Access All Alternates lookup 1 subtable" m.sc M.ss01
EndChar

StartChar: uni2C6E
Encoding: 11374 11374 187
Width: 987
GlyphClass: 2
Flags: W
AnchorPoint: "Anchor-3" 499 700 basechar 0
AnchorPoint: "Anchor-0" 499 0 basechar 0
LayerCount: 2
Fore
SplineSet
593 -167 m 1,0,-1
 627 -92 l 1,1,2
 651 -109 651 -109 677.5 -114 c 128,-1,3
 704 -119 704 -119 726 -111.5 c 128,-1,4
 748 -104 748 -104 761.5 -84.5 c 128,-1,5
 775 -65 775 -65 775 -32 c 2,6,-1
 775 549 l 1,7,-1
 797 549 l 1,8,-1
 522 85 l 1,9,-1
 476 85 l 1,10,-1
 198 549 l 1,11,-1
 223 549 l 1,12,-1
 223 0 l 1,13,-1
 127 0 l 1,14,-1
 127 700 l 1,15,-1
 209 700 l 1,16,-1
 522 171 l 1,17,-1
 479 171 l 1,18,-1
 789 700 l 1,19,-1
 871 700 l 1,20,-1
 871 -35 l 2,21,22
 871 -85 871 -85 853 -120 c 128,-1,23
 835 -155 835 -155 805.5 -175 c 128,-1,24
 776 -195 776 -195 739.5 -200 c 128,-1,25
 703 -205 703 -205 665 -196.5 c 128,-1,26
 627 -188 627 -188 593 -167 c 1,0,-1
EndSplineSet
Substitution2: "'c2sc' Capitals to Small Capitals lookup 45 subtable" uni0271.sc
Substitution2: "'aalt' Access All Alternates lookup 0 subtable" uni0271.sc
EndChar

StartChar: uni019C
Encoding: 412 412 188
Width: 1247
GlyphClass: 2
Flags: W
AnchorPoint: "Anchor-3" 620 700 basechar 0
AnchorPoint: "Anchor-0" 620 0 basechar 0
LayerCount: 2
Fore
SplineSet
1131 700 m 1,0,-1
 1131 0 l 1,1,-1
 1035 0 l 1,2,-1
 1035 140 l 1,3,-1
 1048 126 l 1,4,5
 1021 63 1021 63 960.5 27.5 c 128,-1,6
 900 -8 900 -8 817 -8 c 0,7,8
 727 -8 727 -8 666.5 32 c 128,-1,9
 606 72 606 72 586 140 c 1,10,-1
 613 139 l 1,11,12
 585 68 585 68 519.5 30 c 128,-1,13
 454 -8 454 -8 367 -8 c 0,14,15
 247 -8 247 -8 178 61 c 128,-1,16
 109 130 109 130 109 265 c 2,17,-1
 109 700 l 1,18,-1
 209 700 l 1,19,-1
 209 268 l 2,20,21
 209 172 209 172 258 126.5 c 128,-1,22
 307 81 307 81 383 81 c 0,23,24
 467 81 467 81 519 128.5 c 128,-1,25
 571 176 571 176 571 282 c 2,26,-1
 571 700 l 1,27,-1
 671 700 l 1,28,-1
 671 268 l 2,29,30
 671 172 671 172 718 126.5 c 128,-1,31
 765 81 765 81 841 81 c 0,32,33
 897 81 897 81 939.5 102 c 128,-1,34
 982 123 982 123 1007 167.5 c 128,-1,35
 1032 212 1032 212 1032 282 c 2,36,-1
 1032 700 l 1,37,-1
 1131 700 l 1,0,-1
EndSplineSet
Substitution2: "'c2sc' Capitals to Small Capitals lookup 45 subtable" uni026F.sc
Substitution2: "'aalt' Access All Alternates lookup 0 subtable" uni026F.sc
EndChar

StartChar: N
Encoding: 78 78 189
Width: 832
GlyphClass: 2
Flags: W
AnchorPoint: "Anchor-3" 415 700 basechar 0
AnchorPoint: "Anchor-0" 415 0 basechar 0
LayerCount: 2
Fore
SplineSet
115 0 m 1,0,-1
 115 700 l 1,1,-1
 197 700 l 1,2,-1
 660 125 l 1,3,-1
 617 125 l 1,4,-1
 617 700 l 1,5,-1
 717 700 l 1,6,-1
 717 0 l 1,7,-1
 635 0 l 1,8,-1
 172 575 l 1,9,-1
 215 575 l 1,10,-1
 215 0 l 1,11,-1
 115 0 l 1,0,-1
EndSplineSet
Substitution2: "'ss01' Style Set 1 lookup 50 subtable" N.ss01
Substitution2: "'c2sc' Capitals to Small Capitals lookup 45 subtable" n.sc
AlternateSubs2: "'aalt' Access All Alternates lookup 1 subtable" n.sc N.ss01
EndChar

StartChar: uni019D
Encoding: 413 413 198
Width: 833
GlyphClass: 2
Flags: W
AnchorPoint: "Anchor-3" 427 700 basechar 0
AnchorPoint: "Anchor-0" 426 0 basechar 0
LayerCount: 2
Fore
SplineSet
-15 -185 m 1,0,-1
 13 -107 l 1,1,2
 41 -117 41 -117 67.5 -113 c 128,-1,3
 94 -109 94 -109 112 -89 c 128,-1,4
 130 -69 130 -69 130 -33 c 2,5,-1
 130 700 l 1,6,-1
 226 700 l 1,7,-1
 226 529 l 1,8,-1
 198 545 l 1,9,10
 230 630 230 630 296.5 669 c 128,-1,11
 363 708 363 708 456 708 c 0,12,13
 581 708 581 708 652.5 632.5 c 128,-1,14
 724 557 724 557 724 415 c 2,15,-1
 724 0 l 1,16,-1
 624 0 l 1,17,-1
 624 412 l 2,18,19
 624 516 624 516 573 567.5 c 128,-1,20
 522 619 522 619 435 619 c 0,21,22
 342 619 342 619 285.5 564.5 c 128,-1,23
 229 510 229 510 229 397 c 2,24,-1
 229 -33 l 2,25,26
 229 -87 229 -87 206.5 -124.5 c 128,-1,27
 184 -162 184 -162 148.5 -181 c 128,-1,28
 113 -200 113 -200 70 -201 c 128,-1,29
 27 -202 27 -202 -15 -185 c 1,0,-1
EndSplineSet
Substitution2: "'c2sc' Capitals to Small Capitals lookup 45 subtable" uni0272.sc
Substitution2: "'aalt' Access All Alternates lookup 0 subtable" uni0272.sc
EndChar

StartChar: uni0220
Encoding: 544 544 201
Width: 830
GlyphClass: 2
Flags: W
AnchorPoint: "Anchor-3" 424 700 basechar 0
AnchorPoint: "Anchor-0" 422 0 basechar 0
LayerCount: 2
Fore
SplineSet
621 -194 m 1,0,-1
 621 412 l 2,1,2
 621 516 621 516 570 567.5 c 128,-1,3
 519 619 519 619 432 619 c 0,4,5
 339 619 339 619 282.5 564.5 c 128,-1,6
 226 510 226 510 226 397 c 2,7,-1
 226 0 l 1,8,-1
 127 0 l 1,9,-1
 127 700 l 1,10,-1
 223 700 l 1,11,-1
 223 529 l 1,12,-1
 194 545 l 1,13,14
 227 630 227 630 293.5 669 c 128,-1,15
 360 708 360 708 452 708 c 0,16,17
 577 708 577 708 649 632.5 c 128,-1,18
 721 557 721 557 721 415 c 2,19,-1
 721 -194 l 1,20,-1
 621 -194 l 1,0,-1
EndSplineSet
EndChar

StartChar: Eng
Encoding: 330 330 203
Width: 832
GlyphClass: 2
Flags: W
AnchorPoint: "Anchor-3" 416 700 basechar 0
AnchorPoint: "Anchor-0" 416 -195 basechar 0
LayerCount: 2
Fore
SplineSet
115 0 m 1,0,-1
 115 700 l 1,1,-1
 197 700 l 1,2,-1
 660 125 l 1,3,-1
 635 0 l 1,4,-1
 172 575 l 1,5,-1
 215 575 l 1,6,-1
 215 0 l 1,7,-1
 115 0 l 1,0,-1
500 -200 m 0,8,9
 447 -200 447 -200 400 -179.5 c 128,-1,10
 353 -159 353 -159 320 -121 c 1,11,-1
 369 -49 l 1,12,13
 393 -79 393 -79 426 -96.5 c 128,-1,14
 459 -114 459 -114 500 -114 c 0,15,16
 559 -114 559 -114 588 -78.5 c 128,-1,17
 617 -43 617 -43 617 29 c 2,18,-1
 617 700 l 1,19,-1
 717 700 l 1,20,-1
 717 42 l 2,21,22
 717 -19 717 -19 703 -64.5 c 128,-1,23
 689 -110 689 -110 662 -140 c 128,-1,24
 635 -170 635 -170 594.5 -185 c 128,-1,25
 554 -200 554 -200 500 -200 c 0,8,9
EndSplineSet
Substitution2: "'ss01' Style Set 1 lookup 50 subtable" Eng.ss01
Substitution2: "'c2sc' Capitals to Small Capitals lookup 45 subtable" eng.sc
Substitution2: "'locl' Localized Forms in Latin lookup 17 subtable" Eng.loclNSM
AlternateSubs2: "'aalt' Access All Alternates lookup 1 subtable" Eng.loclNSM eng.sc Eng.ss01
EndChar

StartChar: O
Encoding: 79 79 204
Width: 860
GlyphClass: 2
Flags: W
AnchorPoint: "Anchor-4" 648 700 basechar 0
AnchorPoint: "Anchor-3" 431 700 basechar 0
AnchorPoint: "Anchor-2" 508 0 basechar 0
AnchorPoint: "Anchor-1" 431 350 basechar 0
AnchorPoint: "Anchor-0" 431 0 basechar 0
LayerCount: 2
Fore
SplineSet
431 -8 m 256,0,1
 351 -8 351 -8 282.5 19 c 128,-1,2
 214 46 214 46 164 94.5 c 128,-1,3
 114 143 114 143 86 208 c 128,-1,4
 58 273 58 273 58 350 c 256,5,6
 58 427 58 427 86 492 c 128,-1,7
 114 557 114 557 164 605.5 c 128,-1,8
 214 654 214 654 282 681 c 128,-1,9
 350 708 350 708 431 708 c 0,10,11
 511 708 511 708 578.5 681.5 c 128,-1,12
 646 655 646 655 696.5 606.5 c 128,-1,13
 747 558 747 558 774.5 493 c 128,-1,14
 802 428 802 428 802 350 c 256,15,16
 802 272 802 272 774.5 207 c 128,-1,17
 747 142 747 142 696.5 93.5 c 128,-1,18
 646 45 646 45 578.5 18.5 c 128,-1,19
 511 -8 511 -8 431 -8 c 256,0,1
431 81 m 0,20,21
 489 81 489 81 538.5 101 c 128,-1,22
 588 121 588 121 624.5 157.5 c 128,-1,23
 661 194 661 194 681.5 243 c 128,-1,24
 702 292 702 292 702 350 c 256,25,26
 702 408 702 408 681.5 457 c 128,-1,27
 661 506 661 506 624.5 542.5 c 128,-1,28
 588 579 588 579 538.5 599 c 128,-1,29
 489 619 489 619 431 619 c 0,30,31
 372 619 372 619 322.5 599 c 128,-1,32
 273 579 273 579 236 542.5 c 128,-1,33
 199 506 199 506 178.5 457 c 128,-1,34
 158 408 158 408 158 350 c 256,35,36
 158 292 158 292 178.5 243 c 128,-1,37
 199 194 199 194 236 157.5 c 128,-1,38
 273 121 273 121 322.5 101 c 128,-1,39
 372 81 372 81 431 81 c 0,20,21
EndSplineSet
Substitution2: "'c2sc' Capitals to Small Capitals lookup 45 subtable" o.sc
Substitution2: "Single Substitution lookup 39 subtable" ordmasculine
AlternateSubs2: "'aalt' Access All Alternates lookup 1 subtable" ordmasculine o.sc
EndChar

StartChar: uni0222
Encoding: 546 546 205
Width: 757
GlyphClass: 1
Flags: W
LayerCount: 2
Fore
SplineSet
377 -8 m 0,0,1
 281 -8 281 -8 210.5 20.5 c 128,-1,2
 140 49 140 49 101 102 c 128,-1,3
 62 155 62 155 62 227 c 0,4,5
 62 296 62 296 101 345.5 c 128,-1,6
 140 395 140 395 210.5 422.5 c 128,-1,7
 281 450 281 450 377 450 c 0,8,9
 475 450 475 450 546 422.5 c 128,-1,10
 617 395 617 395 655.5 345.5 c 128,-1,11
 694 296 694 296 694 227 c 0,12,13
 694 155 694 155 655.5 102 c 128,-1,14
 617 49 617 49 546 20.5 c 128,-1,15
 475 -8 475 -8 377 -8 c 0,0,1
377 78 m 0,16,17
 478 78 478 78 536 119 c 128,-1,18
 594 160 594 160 594 229 c 0,19,20
 594 299 594 299 536 340 c 128,-1,21
 478 381 478 381 377 381 c 0,22,23
 312 381 312 381 263.5 362.5 c 128,-1,24
 215 344 215 344 189 310 c 128,-1,25
 163 276 163 276 163 230 c 0,26,27
 163 183 163 183 189 149 c 128,-1,28
 215 115 215 115 263.5 96.5 c 128,-1,29
 312 78 312 78 377 78 c 0,16,17
377 392 m 0,30,31
 287 392 287 392 223 417.5 c 128,-1,32
 159 443 159 443 125 490 c 128,-1,33
 91 537 91 537 91 602 c 2,34,-1
 91 700 l 1,35,-1
 191 700 l 1,36,-1
 191 602 l 2,37,38
 191 536 191 536 240 498 c 128,-1,39
 289 460 289 460 377 460 c 0,40,41
 466 460 466 460 516 498 c 128,-1,42
 566 536 566 536 566 602 c 2,43,-1
 566 700 l 1,44,-1
 665 700 l 1,45,-1
 665 602 l 2,46,47
 665 537 665 537 631 490 c 128,-1,48
 597 443 597 443 532.5 417.5 c 128,-1,49
 468 392 468 392 377 392 c 0,30,31
EndSplineSet
Substitution2: "'c2sc' Capitals to Small Capitals lookup 45 subtable" uni0223.sc
Substitution2: "'aalt' Access All Alternates lookup 0 subtable" uni0223.sc
EndChar

StartChar: Ohorn
Encoding: 416 416 224
Width: 860
GlyphClass: 2
Flags: W
AnchorPoint: "Anchor-3" 431 700 basechar 0
AnchorPoint: "Anchor-0" 431 0 basechar 0
LayerCount: 2
Fore
SplineSet
431 -8 m 0,0,1
 350 -8 350 -8 282 19 c 128,-1,2
 214 46 214 46 164 94.5 c 128,-1,3
 114 143 114 143 86 208 c 128,-1,4
 58 273 58 273 58 350 c 0,5,6
 58 428 58 428 86 493 c 128,-1,7
 114 558 114 558 164.5 606.5 c 128,-1,8
 215 655 215 655 284 681.5 c 128,-1,9
 353 708 353 708 434 708 c 0,10,11
 494 708 494 708 539 701 c 128,-1,12
 584 694 584 694 626 694 c 0,13,14
 672 694 672 694 696.5 712.5 c 128,-1,15
 721 731 721 731 721 767 c 0,16,17
 721 785 721 785 715 800.5 c 128,-1,18
 709 816 709 816 701 829 c 1,19,-1
 761 853 l 1,20,21
 774 834 774 834 781.5 811 c 128,-1,22
 789 788 789 788 789 763 c 0,23,24
 789 701 789 701 745.5 666 c 128,-1,25
 702 631 702 631 622 631 c 0,26,27
 593 631 593 631 560.5 634.5 c 128,-1,28
 528 638 528 638 499 642 c 1,29,-1
 624 657 l 1,30,31
 677 630 677 630 717 584 c 128,-1,32
 757 538 757 538 779.5 478 c 128,-1,33
 802 418 802 418 802 350 c 0,34,35
 802 272 802 272 774.5 207 c 128,-1,36
 747 142 747 142 696.5 93.5 c 128,-1,37
 646 45 646 45 578.5 18.5 c 128,-1,38
 511 -8 511 -8 431 -8 c 0,0,1
431 81 m 0,39,40
 489 81 489 81 538.5 101.5 c 128,-1,41
 588 122 588 122 624.5 158 c 128,-1,42
 661 194 661 194 681.5 243.5 c 128,-1,43
 702 293 702 293 702 350 c 256,44,45
 702 407 702 407 681.5 456.5 c 128,-1,46
 661 506 661 506 624.5 542 c 128,-1,47
 588 578 588 578 538.5 598.5 c 128,-1,48
 489 619 489 619 431 619 c 0,49,50
 372 619 372 619 322.5 599 c 128,-1,51
 273 579 273 579 236 542.5 c 128,-1,52
 199 506 199 506 178.5 457 c 128,-1,53
 158 408 158 408 158 350 c 0,54,55
 158 293 158 293 178.5 243.5 c 128,-1,56
 199 194 199 194 236 157.5 c 128,-1,57
 273 121 273 121 322.5 101 c 128,-1,58
 372 81 372 81 431 81 c 0,39,40
EndSplineSet
Substitution2: "'c2sc' Capitals to Small Capitals lookup 45 subtable" ohorn.sc
Substitution2: "'aalt' Access All Alternates lookup 0 subtable" ohorn.sc
EndChar

StartChar: uniA7B6
Encoding: 42934 42934 235
Width: 1071
GlyphClass: 2
Flags: W
AnchorPoint: "Anchor-3" 535 700 basechar 0
AnchorPoint: "Anchor-0" 535 0 basechar 0
LayerCount: 2
Fore
SplineSet
335 -6 m 0,0,1
 266 -6 266 -6 217 23.5 c 128,-1,2
 168 53 168 53 137 102.5 c 128,-1,3
 106 152 106 152 91 215 c 128,-1,4
 76 278 76 278 76 347 c 0,5,6
 76 444 76 444 104.5 538.5 c 128,-1,7
 133 633 133 633 187 700 c 1,8,-1
 299 700 l 1,9,10
 258 651 258 651 230.5 592 c 128,-1,11
 203 533 203 533 189 470 c 128,-1,12
 175 407 175 407 175 346 c 0,13,14
 175 275 175 275 194 215.5 c 128,-1,15
 213 156 213 156 251 120 c 128,-1,16
 289 84 289 84 346 84 c 0,17,18
 386 84 386 84 417 104.5 c 128,-1,19
 448 125 448 125 465.5 167 c 128,-1,20
 483 209 483 209 483 273 c 2,21,-1
 483 432 l 1,22,-1
 587 432 l 1,23,-1
 587 273 l 2,24,25
 587 208 587 208 605 166.5 c 128,-1,26
 623 125 623 125 654 104.5 c 128,-1,27
 685 84 685 84 726 84 c 0,28,29
 784 84 784 84 821.5 120.5 c 128,-1,30
 859 157 859 157 877 217 c 128,-1,31
 895 277 895 277 895 347 c 0,32,33
 895 407 895 407 882 469 c 128,-1,34
 869 531 869 531 842.5 590.5 c 128,-1,35
 816 650 816 650 774 700 c 1,36,-1
 886 700 l 1,37,38
 923 654 923 654 947 596 c 128,-1,39
 971 538 971 538 983.5 474.5 c 128,-1,40
 996 411 996 411 996 346 c 0,41,42
 996 277 996 277 980.5 214.5 c 128,-1,43
 965 152 965 152 934 102 c 128,-1,44
 903 52 903 52 853.5 23 c 128,-1,45
 804 -6 804 -6 736 -6 c 0,46,47
 669 -6 669 -6 617.5 24 c 128,-1,48
 566 54 566 54 537 110.5 c 128,-1,49
 508 167 508 167 508 246 c 1,50,-1
 563 246 l 1,51,52
 563 167 563 167 534 110.5 c 128,-1,53
 505 54 505 54 453.5 24 c 128,-1,54
 402 -6 402 -6 335 -6 c 0,0,1
EndSplineSet
Substitution2: "'c2sc' Capitals to Small Capitals lookup 45 subtable" uniA7B7.sc
Substitution2: "'aalt' Access All Alternates lookup 0 subtable" uniA7B7.sc
EndChar

StartChar: uni01EA
Encoding: 490 490 236
Width: 860
GlyphClass: 2
Flags: W
AnchorPoint: "Anchor-3" 431 700 basechar 0
LayerCount: 2
Fore
SplineSet
439 -224 m 0,0,1
 383 -224 383 -224 351 -196 c 128,-1,2
 319 -168 319 -168 319 -123 c 0,3,4
 319 -96 319 -96 332.5 -68.5 c 128,-1,5
 346 -41 346 -41 377.5 -15 c 128,-1,6
 409 11 409 11 462 32 c 1,7,-1
 465 -6 l 1,8,9
 455 -7 455 -7 446.5 -7.5 c 128,-1,10
 438 -8 438 -8 431 -8 c 0,11,12
 350 -8 350 -8 282.5 18.5 c 128,-1,13
 215 45 215 45 164.5 93.5 c 128,-1,14
 114 142 114 142 86 207 c 128,-1,15
 58 272 58 272 58 350 c 256,16,17
 58 428 58 428 86 493 c 128,-1,18
 114 558 114 558 164.5 606.5 c 128,-1,19
 215 655 215 655 282.5 681.5 c 128,-1,20
 350 708 350 708 431 708 c 0,21,22
 511 708 511 708 578.5 681.5 c 128,-1,23
 646 655 646 655 696.5 606.5 c 128,-1,24
 747 558 747 558 774.5 493 c 128,-1,25
 802 428 802 428 802 350 c 0,26,27
 802 261 802 261 766 190 c 128,-1,28
 730 119 730 119 669.5 72 c 128,-1,29
 609 25 609 25 534 6 c 0,30,31
 489 -5 489 -5 456 -24 c 128,-1,32
 423 -43 423 -43 405 -66 c 128,-1,33
 387 -89 387 -89 387 -116 c 0,34,35
 387 -141 387 -141 405 -154.5 c 128,-1,36
 423 -168 423 -168 449 -168 c 0,37,38
 465 -168 465 -168 481.5 -163 c 128,-1,39
 498 -158 498 -158 510 -151 c 1,40,-1
 529 -200 l 1,41,42
 511 -211 511 -211 487.5 -217.5 c 128,-1,43
 464 -224 464 -224 439 -224 c 0,0,1
431 81 m 0,44,45
 489 81 489 81 538.5 101 c 128,-1,46
 588 121 588 121 624.5 157.5 c 128,-1,47
 661 194 661 194 681.5 243 c 128,-1,48
 702 292 702 292 702 350 c 256,49,50
 702 408 702 408 681.5 457 c 128,-1,51
 661 506 661 506 624.5 542.5 c 128,-1,52
 588 579 588 579 538.5 599 c 128,-1,53
 489 619 489 619 431 619 c 0,54,55
 372 619 372 619 322.5 599 c 128,-1,56
 273 579 273 579 236 542.5 c 128,-1,57
 199 506 199 506 178.5 457 c 128,-1,58
 158 408 158 408 158 350 c 256,59,60
 158 292 158 292 178.5 243 c 128,-1,61
 199 194 199 194 236 157.5 c 128,-1,62
 273 121 273 121 322.5 101 c 128,-1,63
 372 81 372 81 431 81 c 0,44,45
EndSplineSet
Substitution2: "'c2sc' Capitals to Small Capitals lookup 45 subtable" uni01EB.sc
Substitution2: "'locl' Localized Forms in Latin lookup 15 subtable" uni01EA.loclNAV
AlternateSubs2: "'aalt' Access All Alternates lookup 1 subtable" uni01EA.loclNAV uni01EB.sc
EndChar

StartChar: uni0186
Encoding: 390 390 238
Width: 733
GlyphClass: 2
Flags: W
AnchorPoint: "Anchor-3" 311 700 basechar 0
AnchorPoint: "Anchor-2" 364 0 basechar 0
AnchorPoint: "Anchor-1" 574 344 basechar 0
AnchorPoint: "Anchor-0" 311 0 basechar 0
LayerCount: 2
Fore
SplineSet
305 708 m 0,0,1
 384 708 384 708 452 681.5 c 128,-1,2
 520 655 520 655 569.5 606.5 c 128,-1,3
 619 558 619 558 647 493 c 128,-1,4
 675 428 675 428 675 350 c 256,5,6
 675 272 675 272 647 207 c 128,-1,7
 619 142 619 142 569 93.5 c 128,-1,8
 519 45 519 45 451.5 18.5 c 128,-1,9
 384 -8 384 -8 304 -8 c 0,10,11
 223 -8 223 -8 154.5 20 c 128,-1,12
 86 48 86 48 38 101 c 1,13,-1
 102 164 l 1,14,15
 143 122 143 122 193 101.5 c 128,-1,16
 243 81 243 81 300 81 c 0,17,18
 359 81 359 81 409 101 c 128,-1,19
 459 121 459 121 496.5 157 c 128,-1,20
 534 193 534 193 554.5 242.5 c 128,-1,21
 575 292 575 292 575 350 c 256,22,23
 575 408 575 408 554.5 457.5 c 128,-1,24
 534 507 534 507 496.5 543 c 128,-1,25
 459 579 459 579 409 599 c 128,-1,26
 359 619 359 619 300 619 c 0,27,28
 243 619 243 619 193 598.5 c 128,-1,29
 143 578 143 578 102 535 c 1,30,-1
 38 598 l 1,31,32
 86 652 86 652 154.5 680 c 128,-1,33
 223 708 223 708 305 708 c 0,0,1
EndSplineSet
Substitution2: "'c2sc' Capitals to Small Capitals lookup 45 subtable" uni0254.sc
Substitution2: "'aalt' Access All Alternates lookup 0 subtable" uni0254.sc
EndChar

StartChar: OE
Encoding: 338 338 245
Width: 1146
GlyphClass: 2
Flags: W
AnchorPoint: "Anchor-3" 620 700 basechar 0
AnchorPoint: "Anchor-0" 620 0 basechar 0
LayerCount: 2
Fore
SplineSet
436 0 m 2,0,1
 324 0 324 0 239 44 c 128,-1,2
 154 88 154 88 106 166.5 c 128,-1,3
 58 245 58 245 58 349 c 256,4,5
 58 453 58 453 106 532.5 c 128,-1,6
 154 612 154 612 239 656 c 128,-1,7
 324 700 324 700 436 700 c 2,8,-1
 596 700 l 1,9,-1
 596 613 l 1,10,-1
 441 613 l 2,11,12
 356 613 356 613 292 580 c 128,-1,13
 228 547 228 547 193 487.5 c 128,-1,14
 158 428 158 428 158 349 c 0,15,16
 158 271 158 271 193 212 c 128,-1,17
 228 153 228 153 292 120 c 128,-1,18
 356 87 356 87 441 87 c 2,19,-1
 596 87 l 1,20,-1
 596 0 l 1,21,-1
 436 0 l 2,0,1
571 0 m 1,22,-1
 571 700 l 1,23,-1
 1065 700 l 1,24,-1
 1065 613 l 1,25,-1
 670 613 l 1,26,-1
 670 87 l 1,27,-1
 1079 87 l 1,28,-1
 1079 0 l 1,29,-1
 571 0 l 1,22,-1
662 313 m 1,30,-1
 662 398 l 1,31,-1
 1022 398 l 1,32,-1
 1022 313 l 1,33,-1
 662 313 l 1,30,-1
EndSplineSet
Substitution2: "'c2sc' Capitals to Small Capitals lookup 45 subtable" oe.sc
Substitution2: "'aalt' Access All Alternates lookup 0 subtable" oe.sc
EndChar

StartChar: P
Encoding: 80 80 246
Width: 742
GlyphClass: 2
Flags: W
AnchorPoint: "Anchor-3" 371 700 basechar 0
AnchorPoint: "Anchor-0" 371 0 basechar 0
LayerCount: 2
Fore
SplineSet
115 0 m 1,0,-1
 115 700 l 1,1,-1
 388 700 l 2,2,3
 480 700 480 700 545 671 c 128,-1,4
 610 642 610 642 645 587 c 128,-1,5
 680 532 680 532 680 456 c 256,6,7
 680 380 680 380 645 325.5 c 128,-1,8
 610 271 610 271 545 241.5 c 128,-1,9
 480 212 480 212 388 212 c 2,10,-1
 170 212 l 1,11,-1
 215 259 l 1,12,-1
 215 0 l 1,13,-1
 115 0 l 1,0,-1
215 249 m 1,14,-1
 170 299 l 1,15,-1
 385 299 l 2,16,17
 481 299 481 299 530.5 340 c 128,-1,18
 580 381 580 381 580 456 c 256,19,20
 580 531 580 531 530.5 572 c 128,-1,21
 481 613 481 613 385 613 c 2,22,-1
 170 613 l 1,23,-1
 215 663 l 1,24,-1
 215 249 l 1,14,-1
EndSplineSet
Substitution2: "'c2sc' Capitals to Small Capitals lookup 45 subtable" p.sc
Substitution2: "'aalt' Access All Alternates lookup 0 subtable" p.sc
EndChar

StartChar: uni01A4
Encoding: 420 420 249
Width: 908
GlyphClass: 2
Flags: W
AnchorPoint: "Anchor-3" 537 700 basechar 0
AnchorPoint: "Anchor-0" 537 0 basechar 0
LayerCount: 2
Fore
SplineSet
112 383 m 1,0,1
 77 416 77 416 59 458 c 128,-1,2
 41 500 41 500 41.5 542 c 128,-1,3
 42 584 42 584 61.5 620 c 128,-1,4
 81 656 81 656 121 678 c 128,-1,5
 161 700 161 700 223 700 c 2,6,-1
 289 700 l 1,7,-1
 289 613 l 1,8,-1
 224 613 l 2,9,10
 188 613 188 613 167.5 596.5 c 128,-1,11
 147 580 147 580 141.5 553.5 c 128,-1,12
 136 527 136 527 145.5 496.5 c 128,-1,13
 155 466 155 466 180 438 c 1,14,-1
 112 383 l 1,0,1
281 0 m 1,15,-1
 281 700 l 1,16,-1
 554 700 l 2,17,18
 645 700 645 700 710.5 671 c 128,-1,19
 776 642 776 642 811 587 c 128,-1,20
 846 532 846 532 846 456 c 256,21,22
 846 380 846 380 811 325.5 c 128,-1,23
 776 271 776 271 710.5 241.5 c 128,-1,24
 645 212 645 212 554 212 c 2,25,-1
 336 212 l 1,26,-1
 380 259 l 1,27,-1
 380 0 l 1,28,-1
 281 0 l 1,15,-1
380 249 m 1,29,-1
 336 299 l 1,30,-1
 551 299 l 2,31,32
 647 299 647 299 696.5 340 c 128,-1,33
 746 381 746 381 746 456 c 256,34,35
 746 531 746 531 696.5 572 c 128,-1,36
 647 613 647 613 551 613 c 2,37,-1
 336 613 l 1,38,-1
 380 663 l 1,39,-1
 380 249 l 1,29,-1
EndSplineSet
Substitution2: "'c2sc' Capitals to Small Capitals lookup 45 subtable" uni01A5.sc
Substitution2: "'aalt' Access All Alternates lookup 0 subtable" uni01A5.sc
EndChar

StartChar: Thorn
Encoding: 222 222 250
Width: 742
GlyphClass: 1
Flags: W
LayerCount: 2
Fore
SplineSet
191 125 m 1,0,-1
 191 211 l 1,1,-1
 385 211 l 2,2,3
 481 211 481 211 530.5 252.5 c 128,-1,4
 580 294 580 294 580 369 c 0,5,6
 580 445 580 445 530.5 486 c 128,-1,7
 481 527 481 527 385 527 c 2,8,-1
 191 527 l 1,9,-1
 191 614 l 1,10,-1
 388 614 l 2,11,12
 480 614 480 614 545 584.5 c 128,-1,13
 610 555 610 555 645 500.5 c 128,-1,14
 680 446 680 446 680 370 c 256,15,16
 680 294 680 294 645 238.5 c 128,-1,17
 610 183 610 183 545 154 c 128,-1,18
 480 125 480 125 388 125 c 2,19,-1
 191 125 l 1,0,-1
115 0 m 1,20,-1
 115 700 l 1,21,-1
 215 700 l 1,22,-1
 215 0 l 1,23,-1
 115 0 l 1,20,-1
EndSplineSet
Substitution2: "'c2sc' Capitals to Small Capitals lookup 45 subtable" thorn.sc
Substitution2: "'aalt' Access All Alternates lookup 0 subtable" thorn.sc
EndChar

StartChar: uni2C63
Encoding: 11363 11363 251
Width: 750
GlyphClass: 2
Flags: W
LayerCount: 2
Fore
SplineSet
123 0 m 1,0,-1
 123 700 l 1,1,-1
 396 700 l 2,2,3
 487 700 487 700 552.5 671 c 128,-1,4
 618 642 618 642 653 587 c 128,-1,5
 688 532 688 532 688 456 c 256,6,7
 688 380 688 380 653 325.5 c 128,-1,8
 618 271 618 271 552.5 241.5 c 128,-1,9
 487 212 487 212 396 212 c 2,10,-1
 178 212 l 1,11,-1
 222 259 l 1,12,-1
 222 0 l 1,13,-1
 123 0 l 1,0,-1
20 419 m 1,14,-1
 20 496 l 1,15,-1
 375 496 l 1,16,-1
 375 419 l 1,17,-1
 20 419 l 1,14,-1
222 249 m 1,18,-1
 178 299 l 1,19,-1
 393 299 l 2,20,21
 489 299 489 299 538.5 340 c 128,-1,22
 588 381 588 381 588 456 c 256,23,24
 588 531 588 531 538.5 572 c 128,-1,25
 489 613 489 613 393 613 c 2,26,-1
 178 613 l 1,27,-1
 222 663 l 1,28,-1
 222 249 l 1,18,-1
EndSplineSet
Substitution2: "'c2sc' Capitals to Small Capitals lookup 45 subtable" uni1D7D.sc
Substitution2: "'aalt' Access All Alternates lookup 0 subtable" uni1D7D.sc
EndChar

StartChar: Q
Encoding: 81 81 252
Width: 860
GlyphClass: 2
Flags: W
AnchorPoint: "Anchor-3" 431 700 basechar 0
LayerCount: 2
Fore
SplineSet
431 -8 m 256,0,1
 351 -8 351 -8 282.5 19 c 128,-1,2
 214 46 214 46 164 94.5 c 128,-1,3
 114 143 114 143 86 208 c 128,-1,4
 58 273 58 273 58 350 c 256,5,6
 58 427 58 427 86 492 c 128,-1,7
 114 557 114 557 164 605.5 c 128,-1,8
 214 654 214 654 282 681 c 128,-1,9
 350 708 350 708 431 708 c 0,10,11
 511 708 511 708 578.5 681.5 c 128,-1,12
 646 655 646 655 696.5 606.5 c 128,-1,13
 747 558 747 558 774.5 493 c 128,-1,14
 802 428 802 428 802 350 c 256,15,16
 802 272 802 272 774.5 207 c 128,-1,17
 747 142 747 142 696.5 93.5 c 128,-1,18
 646 45 646 45 578.5 18.5 c 128,-1,19
 511 -8 511 -8 431 -8 c 256,0,1
660 -146 m 0,20,21
 625 -146 625 -146 593 -137.5 c 128,-1,22
 561 -129 561 -129 529 -110.5 c 128,-1,23
 497 -92 497 -92 463 -62.5 c 128,-1,24
 429 -33 429 -33 389 10 c 1,25,-1
 496 38 l 1,26,27
 526 1 526 1 553.5 -22.5 c 128,-1,28
 581 -46 581 -46 608 -56.5 c 128,-1,29
 635 -67 635 -67 661 -67 c 0,30,31
 736 -67 736 -67 789 -7 c 1,32,-1
 836 -64 l 1,33,34
 768 -146 768 -146 660 -146 c 0,20,21
431 81 m 0,35,36
 489 81 489 81 538.5 101 c 128,-1,37
 588 121 588 121 624.5 158 c 128,-1,38
 661 195 661 195 681.5 244 c 128,-1,39
 702 293 702 293 702 350 c 0,40,41
 702 408 702 408 681.5 457 c 128,-1,42
 661 506 661 506 624.5 542.5 c 128,-1,43
 588 579 588 579 538.5 599 c 128,-1,44
 489 619 489 619 431 619 c 0,45,46
 372 619 372 619 322.5 599 c 128,-1,47
 273 579 273 579 236 542.5 c 128,-1,48
 199 506 199 506 178.5 457 c 128,-1,49
 158 408 158 408 158 350 c 0,50,51
 158 293 158 293 178.5 244 c 128,-1,52
 199 195 199 195 236 158 c 128,-1,53
 273 121 273 121 322.5 101 c 128,-1,54
 372 81 372 81 431 81 c 0,35,36
EndSplineSet
Substitution2: "'ss01' Style Set 1 lookup 50 subtable" Q.ss01
Substitution2: "'c2sc' Capitals to Small Capitals lookup 45 subtable" q.sc
AlternateSubs2: "'aalt' Access All Alternates lookup 1 subtable" q.sc Q.ss01
EndChar

StartChar: uni024A
Encoding: 586 586 253
Width: 908
GlyphClass: 2
Flags: W
AnchorPoint: "Anchor-4" 645 700 basechar 0
AnchorPoint: "Anchor-3" 427 700 basechar 0
AnchorPoint: "Anchor-2" 504 0 basechar 0
AnchorPoint: "Anchor-1" 427 350 basechar 0
AnchorPoint: "Anchor-0" 427 0 basechar 0
LayerCount: 2
Fore
SplineSet
423 -8 m 0,0,1
 345 -8 345 -8 278.5 19 c 128,-1,2
 212 46 212 46 162.5 94.5 c 128,-1,3
 113 143 113 143 85.5 208 c 128,-1,4
 58 273 58 273 58 350 c 256,5,6
 58 427 58 427 85.5 492 c 128,-1,7
 113 557 113 557 162.5 605.5 c 128,-1,8
 212 654 212 654 278.5 681 c 128,-1,9
 345 708 345 708 423 708 c 0,10,11
 500 708 500 708 564.5 681.5 c 128,-1,12
 629 655 629 655 677 606.5 c 128,-1,13
 725 558 725 558 751 493 c 128,-1,14
 777 428 777 428 777 350 c 256,15,16
 777 272 777 272 751 207 c 128,-1,17
 725 142 725 142 677 93.5 c 128,-1,18
 629 45 629 45 564.5 18.5 c 128,-1,19
 500 -8 500 -8 423 -8 c 0,0,1
431 81 m 0,20,21
 489 81 489 81 538.5 101 c 128,-1,22
 588 121 588 121 624.5 157.5 c 128,-1,23
 661 194 661 194 681.5 243 c 128,-1,24
 702 292 702 292 702 350 c 256,25,26
 702 408 702 408 681.5 457 c 128,-1,27
 661 506 661 506 624.5 542.5 c 128,-1,28
 588 579 588 579 538.5 599 c 128,-1,29
 489 619 489 619 431 619 c 0,30,31
 372 619 372 619 322.5 599 c 128,-1,32
 273 579 273 579 236 542.5 c 128,-1,33
 199 506 199 506 178.5 457 c 128,-1,34
 158 408 158 408 158 350 c 256,35,36
 158 292 158 292 178.5 243 c 128,-1,37
 199 194 199 194 236 157.5 c 128,-1,38
 273 121 273 121 322.5 101 c 128,-1,39
 372 81 372 81 431 81 c 0,20,21
942 -185 m 1,40,41
 901 -202 901 -202 857.5 -201 c 128,-1,42
 814 -200 814 -200 778 -181 c 128,-1,43
 742 -162 742 -162 720 -125.5 c 128,-1,44
 698 -89 698 -89 698 -36 c 2,45,-1
 698 164 l 1,46,-1
 711 351 l 1,47,-1
 698 529 l 1,48,-1
 698 698 l 1,49,-1
 797 698 l 1,50,-1
 797 -33 l 2,51,52
 797 -69 797 -69 815 -89 c 128,-1,53
 833 -109 833 -109 860 -113.5 c 128,-1,54
 887 -118 887 -118 914 -107 c 1,55,-1
 942 -185 l 1,40,41
EndSplineSet
Substitution2: "'c2sc' Capitals to Small Capitals lookup 45 subtable" uni024B.sc
Substitution2: "'aalt' Access All Alternates lookup 0 subtable" uni024B.sc
EndChar

StartChar: R
Encoding: 82 82 254
Width: 747
GlyphClass: 2
Flags: W
AnchorPoint: "Anchor-3" 377 700 basechar 0
AnchorPoint: "Anchor-0" 377 0 basechar 0
LayerCount: 2
Fore
SplineSet
115 0 m 1,0,-1
 115 700 l 1,1,-1
 388 700 l 2,2,3
 524 700 524 700 602 635.5 c 128,-1,4
 680 571 680 571 680 456 c 0,5,6
 680 380 680 380 645 325.5 c 128,-1,7
 610 271 610 271 545 242 c 128,-1,8
 480 213 480 213 388 213 c 2,9,-1
 170 213 l 1,10,-1
 215 259 l 1,11,-1
 215 0 l 1,12,-1
 115 0 l 1,0,-1
583 0 m 1,13,-1
 405 254 l 1,14,-1
 512 254 l 1,15,-1
 692 0 l 1,16,-1
 583 0 l 1,13,-1
215 249 m 1,17,-1
 170 298 l 1,18,-1
 385 298 l 2,19,20
 481 298 481 298 530.5 339.5 c 128,-1,21
 580 381 580 381 580 456 c 256,22,23
 580 531 580 531 530.5 572 c 128,-1,24
 481 613 481 613 385 613 c 2,25,-1
 170 613 l 1,26,-1
 215 663 l 1,27,-1
 215 249 l 1,17,-1
EndSplineSet
Substitution2: "'c2sc' Capitals to Small Capitals lookup 45 subtable" r.sc
Substitution2: "'aalt' Access All Alternates lookup 0 subtable" r.sc
EndChar

StartChar: uni024C
Encoding: 588 588 264
Width: 747
GlyphClass: 2
Flags: W
AnchorPoint: "Anchor-3" 377 700 basechar 0
AnchorPoint: "Anchor-0" 377 0 basechar 0
LayerCount: 2
Fore
SplineSet
115 0 m 1,0,-1
 115 700 l 1,1,-1
 388 700 l 2,2,3
 524 700 524 700 602 635.5 c 128,-1,4
 680 571 680 571 680 456 c 0,5,6
 680 380 680 380 645 325.5 c 128,-1,7
 610 271 610 271 545 242 c 128,-1,8
 480 213 480 213 388 213 c 2,9,-1
 170 213 l 1,10,-1
 215 259 l 1,11,-1
 215 0 l 1,12,-1
 115 0 l 1,0,-1
583 0 m 1,13,-1
 405 254 l 1,14,-1
 512 254 l 1,15,-1
 692 0 l 1,16,-1
 583 0 l 1,13,-1
215 249 m 1,17,-1
 170 298 l 1,18,-1
 385 298 l 2,19,20
 481 298 481 298 530.5 339.5 c 128,-1,21
 580 381 580 381 580 456 c 256,22,23
 580 531 580 531 530.5 572 c 128,-1,24
 481 613 481 613 385 613 c 2,25,-1
 170 613 l 1,26,-1
 215 663 l 1,27,-1
 215 249 l 1,17,-1
12 219 m 1,28,-1
 12 298 l 1,29,-1
 339 298 l 1,30,-1
 339 219 l 1,31,-1
 12 219 l 1,28,-1
EndSplineSet
Substitution2: "'c2sc' Capitals to Small Capitals lookup 45 subtable" uni024D.sc
Substitution2: "'aalt' Access All Alternates lookup 0 subtable" uni024D.sc
EndChar

StartChar: uni2C64
Encoding: 11364 11364 265
Width: 773
GlyphClass: 2
Flags: W
AnchorPoint: "Anchor-3" 393 700 basechar 0
AnchorPoint: "Anchor-0" 393 0 basechar 0
LayerCount: 2
Fore
SplineSet
410 -165 m 1,0,1
 367 -192 367 -192 318.5 -198.5 c 128,-1,2
 270 -205 270 -205 226.5 -189.5 c 128,-1,3
 183 -174 183 -174 155 -136 c 128,-1,4
 127 -98 127 -98 127 -36 c 2,5,-1
 127 700 l 1,6,-1
 401 700 l 2,7,8
 492 700 492 700 557 671 c 128,-1,9
 622 642 622 642 657.5 587 c 128,-1,10
 693 532 693 532 693 456 c 256,11,12
 693 380 693 380 657.5 325.5 c 128,-1,13
 622 271 622 271 557 242 c 128,-1,14
 492 213 492 213 401 213 c 2,15,-1
 182 213 l 1,16,-1
 227 259 l 1,17,-1
 227 -33 l 2,18,19
 227 -65 227 -65 241 -84 c 128,-1,20
 255 -103 255 -103 277 -110 c 128,-1,21
 299 -117 299 -117 325 -112 c 128,-1,22
 351 -107 351 -107 376 -91 c 1,23,-1
 410 -165 l 1,0,1
596 0 m 1,24,-1
 417 254 l 1,25,-1
 525 254 l 1,26,-1
 704 0 l 1,27,-1
 596 0 l 1,24,-1
227 249 m 1,28,-1
 182 298 l 1,29,-1
 398 298 l 2,30,31
 494 298 494 298 543 339.5 c 128,-1,32
 592 381 592 381 592 456 c 256,33,34
 592 531 592 531 543 572 c 128,-1,35
 494 613 494 613 398 613 c 2,36,-1
 182 613 l 1,37,-1
 227 663 l 1,38,-1
 227 249 l 1,28,-1
EndSplineSet
Substitution2: "'c2sc' Capitals to Small Capitals lookup 45 subtable" uni027D.sc
Substitution2: "'aalt' Access All Alternates lookup 0 subtable" uni027D.sc
EndChar

StartChar: S
Encoding: 83 83 266
Width: 641
GlyphClass: 2
Flags: W
AnchorPoint: "Anchor-3" 332 700 basechar 0
AnchorPoint: "Anchor-1" 332 350 basechar 0
AnchorPoint: "Anchor-0" 332 0 basechar 0
LayerCount: 2
Fore
SplineSet
319 -8 m 0,0,1
 239 -8 239 -8 166 16.5 c 128,-1,2
 93 41 93 41 51 80 c 1,3,-1
 88 158 l 1,4,5
 128 123 128 123 190 100 c 128,-1,6
 252 77 252 77 319 77 c 0,7,8
 380 77 380 77 418 91 c 128,-1,9
 456 105 456 105 474 129.5 c 128,-1,10
 492 154 492 154 492 185 c 0,11,12
 492 221 492 221 468.5 243 c 128,-1,13
 445 265 445 265 407.5 278.5 c 128,-1,14
 370 292 370 292 325 302 c 128,-1,15
 280 312 280 312 234.5 325.5 c 128,-1,16
 189 339 189 339 151.5 360 c 128,-1,17
 114 381 114 381 91 416.5 c 128,-1,18
 68 452 68 452 68 508 c 0,19,20
 68 562 68 562 96.5 607.5 c 128,-1,21
 125 653 125 653 184.5 680.5 c 128,-1,22
 244 708 244 708 336 708 c 0,23,24
 397 708 397 708 457 692 c 128,-1,25
 517 676 517 676 561 646 c 1,26,-1
 528 566 l 1,27,28
 483 596 483 596 433 609.5 c 128,-1,29
 383 623 383 623 336 623 c 0,30,31
 277 623 277 623 239 608 c 128,-1,32
 201 593 201 593 183.5 568 c 128,-1,33
 166 543 166 543 166 512 c 0,34,35
 166 475 166 475 189.5 453 c 128,-1,36
 213 431 213 431 250.5 418 c 128,-1,37
 288 405 288 405 333 394.5 c 128,-1,38
 378 384 378 384 423.5 371 c 128,-1,39
 469 358 469 358 506.5 337 c 128,-1,40
 544 316 544 316 567 281 c 128,-1,41
 590 246 590 246 590 191 c 0,42,43
 590 138 590 138 561 92.5 c 128,-1,44
 532 47 532 47 471.5 19.5 c 128,-1,45
 411 -8 411 -8 319 -8 c 0,0,1
EndSplineSet
Substitution2: "'c2sc' Capitals to Small Capitals lookup 45 subtable" s.sc
Substitution2: "'aalt' Access All Alternates lookup 0 subtable" s.sc
EndChar

StartChar: uni1E9E
Encoding: 7838 7838 277
Width: 783
GlyphClass: 1
Flags: W
LayerCount: 2
Fore
SplineSet
474 -8 m 0,0,1
 437 -8 437 -8 402 -2 c 128,-1,2
 367 4 367 4 336 17 c 1,3,-1
 352 101 l 1,4,5
 377 89 377 89 406.5 83 c 128,-1,6
 436 77 436 77 469 77 c 0,7,8
 539 77 539 77 580 109 c 128,-1,9
 621 141 621 141 621 205 c 0,10,11
 621 268 621 268 579.5 300.5 c 128,-1,12
 538 333 538 333 467 333 c 0,13,14
 446 333 446 333 424 330 c 128,-1,15
 402 327 402 327 385 322 c 1,16,-1
 366 370 l 1,17,-1
 601 633 l 1,18,-1
 613 565 l 1,19,20
 574 595 574 595 526.5 609 c 128,-1,21
 479 623 479 623 427 623 c 0,22,23
 319 623 319 623 264 565.5 c 128,-1,24
 209 508 209 508 209 402 c 2,25,-1
 209 0 l 1,26,-1
 109 0 l 1,27,-1
 109 405 l 2,28,29
 109 498 109 498 146 566 c 128,-1,30
 183 634 183 634 252.5 671 c 128,-1,31
 322 708 322 708 420 708 c 0,32,33
 464 708 464 708 506.5 700.5 c 128,-1,34
 549 693 549 693 588 678 c 128,-1,35
 627 663 627 663 656 639 c 1,36,-1
 656 574 l 1,37,-1
 447 343 l 1,38,-1
 406 401 l 1,39,40
 423 407 423 407 442.5 409 c 128,-1,41
 462 411 462 411 483 411 c 0,42,43
 551 411 551 411 605.5 387 c 128,-1,44
 660 363 660 363 691 316 c 128,-1,45
 722 269 722 269 722 201 c 256,46,47
 722 133 722 133 691 86.5 c 128,-1,48
 660 40 660 40 604 16 c 128,-1,49
 548 -8 548 -8 474 -8 c 0,0,1
EndSplineSet
Substitution2: "'c2sc' Capitals to Small Capitals lookup 45 subtable" germandbls.sc
Substitution2: "'aalt' Access All Alternates lookup 0 subtable" germandbls.sc
EndChar

StartChar: uniA7A8
Encoding: 42920 42920 278
Width: 641
GlyphClass: 2
Flags: W
AnchorPoint: "Anchor-3" 331 700 basechar 0
AnchorPoint: "Anchor-0" 331 0 basechar 0
LayerCount: 2
Fore
SplineSet
319 -8 m 0,0,1
 266 -8 266 -8 215 3 c 128,-1,2
 164 14 164 14 121.5 34 c 128,-1,3
 79 54 79 54 51 80 c 1,4,-1
 88 158 l 1,5,6
 128 123 128 123 190 100 c 128,-1,7
 252 77 252 77 319 77 c 0,8,9
 380 77 380 77 418 91 c 128,-1,10
 456 105 456 105 474 129.5 c 128,-1,11
 492 154 492 154 492 185 c 0,12,13
 492 221 492 221 468.5 243 c 128,-1,14
 445 265 445 265 407.5 278.5 c 128,-1,15
 370 292 370 292 325 302 c 128,-1,16
 280 312 280 312 234.5 325.5 c 128,-1,17
 189 339 189 339 151.5 360 c 128,-1,18
 114 381 114 381 91 416.5 c 128,-1,19
 68 452 68 452 68 508 c 0,20,21
 68 562 68 562 96.5 607.5 c 128,-1,22
 125 653 125 653 184.5 680.5 c 128,-1,23
 244 708 244 708 336 708 c 0,24,25
 397 708 397 708 457 692 c 128,-1,26
 517 676 517 676 561 646 c 1,27,-1
 528 566 l 1,28,29
 483 596 483 596 433 609.5 c 128,-1,30
 383 623 383 623 336 623 c 0,31,32
 277 623 277 623 239 608 c 128,-1,33
 201 593 201 593 183.5 568 c 128,-1,34
 166 543 166 543 166 512 c 0,35,36
 166 475 166 475 189.5 453 c 128,-1,37
 213 431 213 431 250.5 418 c 128,-1,38
 288 405 288 405 333 394.5 c 128,-1,39
 378 384 378 384 423.5 371 c 128,-1,40
 469 358 469 358 506.5 337 c 128,-1,41
 544 316 544 316 567 281 c 128,-1,42
 590 246 590 246 590 191 c 0,43,44
 590 138 590 138 561 92.5 c 128,-1,45
 532 47 532 47 471.5 19.5 c 128,-1,46
 411 -8 411 -8 319 -8 c 0,0,1
259 174 m 1,47,-1
 196 206 l 1,48,-1
 356 522 l 1,49,-1
 420 492 l 1,50,-1
 259 174 l 1,47,-1
EndSplineSet
Substitution2: "'c2sc' Capitals to Small Capitals lookup 45 subtable" uniA7A9.sc
Substitution2: "'aalt' Access All Alternates lookup 0 subtable" uniA7A9.sc
EndChar

StartChar: T
Encoding: 84 84 279
Width: 607
GlyphClass: 2
Flags: W
AnchorPoint: "Anchor-3" 303 700 basechar 0
AnchorPoint: "Anchor-1" 303 358 basechar 0
AnchorPoint: "Anchor-0" 303 0 basechar 0
LayerCount: 2
Fore
SplineSet
254 0 m 1,0,-1
 254 613 l 1,1,-1
 14 613 l 1,2,-1
 14 700 l 1,3,-1
 593 700 l 1,4,-1
 593 613 l 1,5,-1
 353 613 l 1,6,-1
 353 0 l 1,7,-1
 254 0 l 1,0,-1
EndSplineSet
Substitution2: "'ss01' Style Set 1 lookup 50 subtable" T.ss01
Substitution2: "'c2sc' Capitals to Small Capitals lookup 45 subtable" t.sc
AlternateSubs2: "'aalt' Access All Alternates lookup 1 subtable" t.sc T.ss01
EndChar

StartChar: Tbar
Encoding: 358 358 280
Width: 607
GlyphClass: 2
Flags: W
AnchorPoint: "Anchor-3" 303 700 basechar 0
AnchorPoint: "Anchor-1" 303 358 basechar 0
AnchorPoint: "Anchor-0" 303 0 basechar 0
LayerCount: 2
Fore
SplineSet
254 0 m 1,0,-1
 254 613 l 1,1,-1
 14 613 l 1,2,-1
 14 700 l 1,3,-1
 593 700 l 1,4,-1
 593 613 l 1,5,-1
 353 613 l 1,6,-1
 353 0 l 1,7,-1
 254 0 l 1,0,-1
101 319 m 1,8,-1
 101 398 l 1,9,-1
 506 398 l 1,10,-1
 506 319 l 1,11,-1
 101 319 l 1,8,-1
EndSplineSet
Substitution2: "'ss01' Style Set 1 lookup 50 subtable" Tbar.ss01
Substitution2: "'c2sc' Capitals to Small Capitals lookup 45 subtable" tbar.sc
AlternateSubs2: "'aalt' Access All Alternates lookup 1 subtable" tbar.sc Tbar.ss01
EndChar

StartChar: uni023E
Encoding: 574 574 285
Width: 603
GlyphClass: 2
Flags: W
AnchorPoint: "Anchor-3" 303 700 basechar 0
AnchorPoint: "Anchor-1" 303 341 basechar 0
AnchorPoint: "Anchor-0" 303 0 basechar 0
LayerCount: 2
Fore
SplineSet
254 0 m 1,0,-1
 254 613 l 1,1,-1
 14 613 l 1,2,-1
 14 700 l 1,3,-1
 589 700 l 1,4,-1
 589 613 l 1,5,-1
 350 613 l 1,6,-1
 350 0 l 1,7,-1
 254 0 l 1,0,-1
106 -70 m 1,8,-1
 486 770 l 1,9,-1
 565 770 l 1,10,-1
 186 -70 l 1,11,-1
 106 -70 l 1,8,-1
EndSplineSet
Substitution2: "'ss01' Style Set 1 lookup 50 subtable" uni023E.ss01
Substitution2: "'c2sc' Capitals to Small Capitals lookup 45 subtable" uni2C66.sc
AlternateSubs2: "'aalt' Access All Alternates lookup 1 subtable" uni2C66.sc uni023E.ss01
EndChar

StartChar: uni01AC
Encoding: 428 428 288
Width: 680
GlyphClass: 1
Flags: W
LayerCount: 2
Fore
SplineSet
327 0 m 1,0,-1
 327 632 l 1,1,-1
 347 613 l 1,2,-1
 216 613 l 2,3,4
 177 613 177 613 156 595.5 c 128,-1,5
 135 578 135 578 130.5 549.5 c 128,-1,6
 126 521 126 521 137 489.5 c 128,-1,7
 148 458 148 458 175 431 c 1,8,-1
 111 384 l 1,9,10
 77 418 77 418 59.5 459.5 c 128,-1,11
 42 501 42 501 42 543.5 c 128,-1,12
 42 586 42 586 61 621.5 c 128,-1,13
 80 657 80 657 118.5 678.5 c 128,-1,14
 157 700 157 700 216 700 c 2,15,-1
 666 700 l 1,16,-1
 666 613 l 1,17,-1
 407 613 l 1,18,-1
 426 632 l 1,19,-1
 426 0 l 1,20,-1
 327 0 l 1,0,-1
EndSplineSet
Substitution2: "'ss01' Style Set 1 lookup 50 subtable" uni01AC.ss01
Substitution2: "'c2sc' Capitals to Small Capitals lookup 45 subtable" uni01AD.sc
AlternateSubs2: "'aalt' Access All Alternates lookup 1 subtable" uni01AD.sc uni01AC.ss01
EndChar

StartChar: uni01AE
Encoding: 430 430 290
Width: 607
GlyphClass: 2
Flags: W
AnchorPoint: "Anchor-3" 303 700 basechar 0
AnchorPoint: "Anchor-1" 303 339 basechar 0
AnchorPoint: "Anchor-0" 303 0 basechar 0
LayerCount: 2
Fore
SplineSet
536 -165 m 1,0,1
 493 -192 493 -192 444.5 -198.5 c 128,-1,2
 396 -205 396 -205 352.5 -189.5 c 128,-1,3
 309 -174 309 -174 281.5 -135.5 c 128,-1,4
 254 -97 254 -97 254 -35 c 2,5,-1
 254 628 l 1,6,-1
 353 628 l 1,7,-1
 353 -32 l 2,8,9
 353 -64 353 -64 367 -83.5 c 128,-1,10
 381 -103 381 -103 403 -110 c 128,-1,11
 425 -117 425 -117 451.5 -112 c 128,-1,12
 478 -107 478 -107 502 -91 c 1,13,-1
 536 -165 l 1,0,1
14 613 m 1,14,-1
 14 700 l 1,15,-1
 593 700 l 1,16,-1
 593 613 l 1,17,-1
 14 613 l 1,14,-1
EndSplineSet
Substitution2: "'ss01' Style Set 1 lookup 50 subtable" uni01AE.ss01
Substitution2: "'c2sc' Capitals to Small Capitals lookup 45 subtable" uni0288.sc
AlternateSubs2: "'aalt' Access All Alternates lookup 1 subtable" uni0288.sc uni01AE.ss01
EndChar

StartChar: uniA7B1
Encoding: 42929 42929 291
Width: 607
GlyphClass: 1
Flags: W
LayerCount: 2
Fore
SplineSet
353 700 m 1,0,-1
 353 87 l 1,1,-1
 593 87 l 1,2,-1
 593 0 l 1,3,-1
 14 0 l 1,4,-1
 14 87 l 1,5,-1
 254 87 l 1,6,-1
 254 700 l 1,7,-1
 353 700 l 1,0,-1
EndSplineSet
Substitution2: "'ss01' Style Set 1 lookup 50 subtable" uniA7B1.ss01
Substitution2: "'c2sc' Capitals to Small Capitals lookup 45 subtable" uni0287.sc
AlternateSubs2: "'aalt' Access All Alternates lookup 1 subtable" uni0287.sc uniA7B1.ss01
EndChar

StartChar: U
Encoding: 85 85 292
Width: 811
GlyphClass: 2
Flags: W
AnchorPoint: "Anchor-4" 670 700 basechar 0
AnchorPoint: "Anchor-3" 406 700 basechar 0
AnchorPoint: "Anchor-2" 607 0 basechar 0
AnchorPoint: "Anchor-1" 406 358 basechar 0
AnchorPoint: "Anchor-0" 406 0 basechar 0
LayerCount: 2
Fore
SplineSet
405 -8 m 0,0,1
 267 -8 267 -8 188 71 c 128,-1,2
 109 150 109 150 109 302 c 2,3,-1
 109 700 l 1,4,-1
 209 700 l 1,5,-1
 209 306 l 2,6,7
 209 189 209 189 260.5 135 c 128,-1,8
 312 81 312 81 406 81 c 0,9,10
 501 81 501 81 552.5 135 c 128,-1,11
 604 189 604 189 604 306 c 2,12,-1
 604 700 l 1,13,-1
 701 700 l 1,14,-1
 701 302 l 2,15,16
 701 150 701 150 622.5 71 c 128,-1,17
 544 -8 544 -8 405 -8 c 0,0,1
EndSplineSet
Substitution2: "'ss01' Style Set 1 lookup 50 subtable" U.ss01
Substitution2: "'c2sc' Capitals to Small Capitals lookup 45 subtable" u.sc
AlternateSubs2: "'aalt' Access All Alternates lookup 1 subtable" u.sc U.ss01
EndChar

StartChar: uni0244
Encoding: 580 580 294
Width: 810
GlyphClass: 2
Flags: W
AnchorPoint: "Anchor-4" 669 700 basechar 0
AnchorPoint: "Anchor-3" 405 700 basechar 0
AnchorPoint: "Anchor-2" 606 0 basechar 0
AnchorPoint: "Anchor-1" 405 358 basechar 0
AnchorPoint: "Anchor-0" 405 0 basechar 0
LayerCount: 2
Fore
SplineSet
404 -8 m 0,0,1
 266 -8 266 -8 187 71 c 128,-1,2
 108 150 108 150 108 302 c 2,3,-1
 108 700 l 1,4,-1
 208 700 l 1,5,-1
 208 306 l 2,6,7
 208 189 208 189 259.5 135 c 128,-1,8
 311 81 311 81 405 81 c 0,9,10
 500 81 500 81 551.5 135 c 128,-1,11
 603 189 603 189 603 306 c 2,12,-1
 603 700 l 1,13,-1
 701 700 l 1,14,-1
 701 302 l 2,15,16
 701 150 701 150 622 71 c 128,-1,17
 543 -8 543 -8 404 -8 c 0,0,1
5 319 m 1,18,-1
 5 398 l 1,19,-1
 804 398 l 1,20,-1
 804 319 l 1,21,-1
 5 319 l 1,18,-1
EndSplineSet
Substitution2: "'ss01' Style Set 1 lookup 50 subtable" uni0244.ss01
Substitution2: "'c2sc' Capitals to Small Capitals lookup 45 subtable" uni0289.sc
AlternateSubs2: "'aalt' Access All Alternates lookup 1 subtable" uni0289.sc uni0244.ss01
EndChar

StartChar: Uogonek
Encoding: 370 370 319
Width: 811
GlyphClass: 2
Flags: W
AnchorPoint: "Anchor-4" 670 700 basechar 0
AnchorPoint: "Anchor-3" 406 700 basechar 0
AnchorPoint: "Anchor-1" 406 358 basechar 0
AnchorPoint: "Anchor-0" 406 -223 basechar 0
LayerCount: 2
Fore
SplineSet
428 -224 m 0,0,1
 372 -224 372 -224 340 -196 c 128,-1,2
 308 -168 308 -168 308 -123 c 0,3,4
 308 -96 308 -96 321.5 -68.5 c 128,-1,5
 335 -41 335 -41 366 -15 c 128,-1,6
 397 11 397 11 451 32 c 1,7,-1
 448 -6 l 1,8,9
 438 -7 438 -7 427 -7.5 c 128,-1,10
 416 -8 416 -8 405 -8 c 0,11,12
 267 -8 267 -8 188 71 c 128,-1,13
 109 150 109 150 109 302 c 2,14,-1
 109 700 l 1,15,-1
 209 700 l 1,16,-1
 209 306 l 2,17,18
 209 189 209 189 260.5 135 c 128,-1,19
 312 81 312 81 406 81 c 0,20,21
 501 81 501 81 552.5 135 c 128,-1,22
 604 189 604 189 604 306 c 2,23,-1
 604 700 l 1,24,-1
 701 700 l 1,25,-1
 701 302 l 2,26,27
 701 180 701 180 652 109 c 128,-1,28
 603 38 603 38 520 8 c 0,29,30
 461 -13 461 -13 430 -34.5 c 128,-1,31
 399 -56 399 -56 387.5 -76.5 c 128,-1,32
 376 -97 376 -97 376 -116 c 0,33,34
 376 -141 376 -141 393.5 -154.5 c 128,-1,35
 411 -168 411 -168 438 -168 c 0,36,37
 454 -168 454 -168 470.5 -163 c 128,-1,38
 487 -158 487 -158 499 -151 c 1,39,-1
 518 -200 l 1,40,41
 499 -211 499 -211 476 -217.5 c 128,-1,42
 453 -224 453 -224 428 -224 c 0,0,1
EndSplineSet
Substitution2: "'ss01' Style Set 1 lookup 50 subtable" Uogonek.ss01
Substitution2: "'c2sc' Capitals to Small Capitals lookup 45 subtable" uogonek.sc
Substitution2: "'locl' Localized Forms in Latin lookup 15 subtable" Uogonek.loclNAV
AlternateSubs2: "'aalt' Access All Alternates lookup 1 subtable" Uogonek.loclNAV uogonek.sc Uogonek.ss01
EndChar

StartChar: uni01B1
Encoding: 433 433 320
Width: 875
GlyphClass: 2
Flags: W
AnchorPoint: "Anchor-3" 438 700 basechar 0
AnchorPoint: "Anchor-0" 438 0 basechar 0
LayerCount: 2
Fore
SplineSet
847 700 m 1,0,-1
 847 613 l 1,1,-1
 681 613 l 1,2,3
 742 565 742 565 775 495 c 128,-1,4
 808 425 808 425 808 341 c 0,5,6
 808 264 808 264 780.5 200 c 128,-1,7
 753 136 753 136 702 89 c 128,-1,8
 651 42 651 42 584 17 c 128,-1,9
 517 -8 517 -8 438 -8 c 256,10,11
 359 -8 359 -8 291.5 17 c 128,-1,12
 224 42 224 42 173 89 c 128,-1,13
 122 136 122 136 94.5 200 c 128,-1,14
 67 264 67 264 67 341 c 0,15,16
 67 425 67 425 100 495 c 128,-1,17
 133 565 133 565 194 613 c 1,18,-1
 28 613 l 1,19,-1
 28 700 l 1,20,-1
 344 700 l 1,21,-1
 344 619 l 1,22,23
 257 575 257 575 212 503 c 128,-1,24
 167 431 167 431 167 346 c 0,25,26
 167 287 167 287 187 238.5 c 128,-1,27
 207 190 207 190 243 154.5 c 128,-1,28
 279 119 279 119 328.5 100 c 128,-1,29
 378 81 378 81 438 81 c 0,30,31
 497 81 497 81 546.5 100 c 128,-1,32
 596 119 596 119 632 154.5 c 128,-1,33
 668 190 668 190 688 238.5 c 128,-1,34
 708 287 708 287 708 346 c 0,35,36
 708 432 708 432 663 504 c 128,-1,37
 618 576 618 576 531 619 c 1,38,-1
 531 700 l 1,39,-1
 847 700 l 1,0,-1
EndSplineSet
Substitution2: "'c2sc' Capitals to Small Capitals lookup 45 subtable" uni028A.sc
Substitution2: "'aalt' Access All Alternates lookup 0 subtable" uni028A.sc
EndChar

StartChar: V
Encoding: 86 86 325
Width: 732
GlyphClass: 2
Flags: W
AnchorPoint: "Anchor-3" 366 700 basechar 0
AnchorPoint: "Anchor-2" 416 0 basechar 0
AnchorPoint: "Anchor-0" 366 0 basechar 0
LayerCount: 2
Fore
SplineSet
317 0 m 1,0,-1
 9 700 l 1,1,-1
 117 700 l 1,2,-1
 400 54 l 1,3,-1
 338 54 l 1,4,-1
 623 700 l 1,5,-1
 723 700 l 1,6,-1
 416 0 l 1,7,-1
 317 0 l 1,0,-1
EndSplineSet
Substitution2: "'c2sc' Capitals to Small Capitals lookup 45 subtable" v.sc
Substitution2: "'aalt' Access All Alternates lookup 0 subtable" v.sc
EndChar

StartChar: uni0194
Encoding: 404 404 326
Width: 667
GlyphClass: 2
Flags: W
AnchorPoint: "Anchor-3" 334 700 basechar 0
AnchorPoint: "Anchor-1" 331 249 basechar 0
AnchorPoint: "Anchor-0" 334 0 basechar 0
LayerCount: 2
Fore
SplineSet
332 -203 m 0,0,1
 295 -203 295 -203 265 -186.5 c 128,-1,2
 235 -170 235 -170 217.5 -141.5 c 128,-1,3
 200 -113 200 -113 200 -77 c 0,4,5
 200 -46 200 -46 214 -10.5 c 128,-1,6
 228 25 228 25 248 60 c 128,-1,7
 268 95 268 95 287 126 c 128,-1,8
 306 157 306 157 317 179 c 2,9,-1
 572 700 l 1,10,-1
 672 700 l 1,11,-1
 390 124 l 2,12,13
 380 102 380 102 361.5 76 c 128,-1,14
 343 50 343 50 324.5 22 c 128,-1,15
 306 -6 306 -6 292.5 -31.5 c 128,-1,16
 279 -57 279 -57 279 -78 c 0,17,18
 279 -100 279 -100 294.5 -114 c 128,-1,19
 310 -128 310 -128 333 -128 c 0,20,21
 355 -128 355 -128 370.5 -114 c 128,-1,22
 386 -100 386 -100 386 -78 c 0,23,24
 386 -60 386 -60 375 -35 c 128,-1,25
 364 -10 364 -10 347.5 18 c 128,-1,26
 331 46 331 46 314 74 c 128,-1,27
 297 102 297 102 286 126 c 2,28,-1
 1 700 l 1,29,-1
 109 700 l 1,30,-1
 362 179 l 2,31,32
 373 158 373 158 390 127 c 128,-1,33
 407 96 407 96 424.5 61 c 128,-1,34
 442 26 442 26 453.5 -9.5 c 128,-1,35
 465 -45 465 -45 465 -76 c 0,36,37
 465 -112 465 -112 447.5 -140.5 c 128,-1,38
 430 -169 430 -169 400 -186 c 128,-1,39
 370 -203 370 -203 332 -203 c 0,0,1
EndSplineSet
Substitution2: "'c2sc' Capitals to Small Capitals lookup 45 subtable" uni0263.sc
Substitution2: "'aalt' Access All Alternates lookup 0 subtable" uni0263.sc
EndChar

StartChar: uni01B2
Encoding: 434 434 328
Width: 802
GlyphClass: 2
Flags: W
AnchorPoint: "Anchor-4" 668 700 basechar 0
AnchorPoint: "Anchor-3" 404 700 basechar 0
AnchorPoint: "Anchor-2" 605 0 basechar 0
AnchorPoint: "Anchor-0" 404 0 basechar 0
LayerCount: 2
Fore
SplineSet
403 -8 m 0,0,1
 265 -8 265 -8 186 71 c 128,-1,2
 107 150 107 150 107 302 c 2,3,-1
 107 700 l 1,4,-1
 207 700 l 1,5,-1
 207 306 l 2,6,7
 207 189 207 189 258.5 135 c 128,-1,8
 310 81 310 81 404 81 c 0,9,10
 499 81 499 81 550.5 135 c 128,-1,11
 602 189 602 189 602 306 c 2,12,-1
 602 545 l 2,13,14
 602 580 602 580 587 600.5 c 128,-1,15
 572 621 572 621 548.5 627.5 c 128,-1,16
 525 634 525 634 497.5 627.5 c 128,-1,17
 470 621 470 621 444 602 c 1,18,-1
 410 676 l 1,19,20
 451 705 451 705 501 713.5 c 128,-1,21
 551 722 551 722 596.5 708 c 128,-1,22
 642 694 642 694 671.5 654.5 c 128,-1,23
 701 615 701 615 701 548 c 2,24,-1
 701 302 l 2,25,26
 701 150 701 150 622 71 c 128,-1,27
 543 -8 543 -8 403 -8 c 0,0,1
EndSplineSet
Substitution2: "'c2sc' Capitals to Small Capitals lookup 45 subtable" uni028B.sc
Substitution2: "'locl' Localized Forms in Latin lookup 18 subtable" uni01B2.loclTOD0
AlternateSubs2: "'aalt' Access All Alternates lookup 1 subtable" uni01B2.loclTOD0 uni028B.sc
EndChar

StartChar: uni0245
Encoding: 581 581 330
Width: 732
GlyphClass: 2
Flags: W
AnchorPoint: "Anchor-3" 366 700 basechar 0
AnchorPoint: "Anchor-2" 723 0 basechar 0
AnchorPoint: "Anchor-0" 366 0 basechar 0
LayerCount: 2
Fore
SplineSet
415 700 m 1,0,-1
 723 0 l 1,1,-1
 615 0 l 1,2,-1
 332 646 l 1,3,-1
 394 646 l 1,4,-1
 109 0 l 1,5,-1
 9 0 l 1,6,-1
 316 700 l 1,7,-1
 415 700 l 1,0,-1
EndSplineSet
Substitution2: "'c2sc' Capitals to Small Capitals lookup 45 subtable" uni028C.sc
Substitution2: "'aalt' Access All Alternates lookup 0 subtable" uni028C.sc
EndChar

StartChar: W
Encoding: 87 87 331
Width: 1146
GlyphClass: 2
Flags: W
AnchorPoint: "Anchor-3" 574 700 basechar 0
AnchorPoint: "Anchor-0" 574 0 basechar 0
LayerCount: 2
Fore
SplineSet
276 0 m 1,0,-1
 42 700 l 1,1,-1
 145 700 l 1,2,-1
 360 54 l 1,3,-1
 308 54 l 1,4,-1
 531 700 l 1,5,-1
 623 700 l 1,6,-1
 841 54 l 1,7,-1
 791 54 l 1,8,-1
 1009 700 l 1,9,-1
 1104 700 l 1,10,-1
 870 0 l 1,11,-1
 765 0 l 1,12,-1
 561 599 l 1,13,-1
 588 599 l 1,14,-1
 383 0 l 1,15,-1
 276 0 l 1,0,-1
EndSplineSet
Substitution2: "'ss01' Style Set 1 lookup 50 subtable" W.ss01
Substitution2: "'c2sc' Capitals to Small Capitals lookup 45 subtable" w.sc
AlternateSubs2: "'aalt' Access All Alternates lookup 1 subtable" w.sc W.ss01
EndChar

StartChar: uni2C72
Encoding: 11378 11378 338
Width: 1176
GlyphClass: 2
Flags: W
AnchorPoint: "Anchor-3" 574 700 basechar 0
AnchorPoint: "Anchor-0" 574 0 basechar 0
LayerCount: 2
Fore
SplineSet
276 0 m 1,0,-1
 42 700 l 1,1,-1
 145 700 l 1,2,-1
 360 54 l 1,3,-1
 308 54 l 1,4,-1
 531 700 l 1,5,-1
 623 700 l 1,6,-1
 825 54 l 1,7,-1
 777 54 l 1,8,-1
 974 632 l 2,9,10
 990 678 990 678 1016.5 705 c 128,-1,11
 1043 732 1043 732 1076 742.5 c 128,-1,12
 1109 753 1109 753 1144.5 748 c 128,-1,13
 1180 743 1180 743 1212 723 c 1,14,-1
 1172 650 l 1,15,16
 1142 668 1142 668 1109 658.5 c 128,-1,17
 1076 649 1076 649 1061 604 c 2,18,-1
 856 0 l 1,19,-1
 749 0 l 1,20,-1
 561 599 l 1,21,-1
 588 599 l 1,22,-1
 383 0 l 1,23,-1
 276 0 l 1,0,-1
EndSplineSet
Substitution2: "'ss01' Style Set 1 lookup 50 subtable" uni2C72.ss01
Substitution2: "'c2sc' Capitals to Small Capitals lookup 45 subtable" uni2C73.sc
AlternateSubs2: "'aalt' Access All Alternates lookup 1 subtable" uni2C73.sc uni2C72.ss01
EndChar

StartChar: X
Encoding: 88 88 339
Width: 693
GlyphClass: 2
Flags: W
AnchorPoint: "Anchor-3" 347 700 basechar 0
AnchorPoint: "Anchor-0" 347 0 basechar 0
LayerCount: 2
Fore
SplineSet
23 0 m 1,0,-1
 314 397 l 1,1,-1
 314 320 l 1,2,-1
 39 700 l 1,3,-1
 153 700 l 1,4,-1
 371 401 l 1,5,-1
 326 400 l 1,6,-1
 543 700 l 1,7,-1
 652 700 l 1,8,-1
 379 326 l 1,9,-1
 379 398 l 1,10,-1
 670 0 l 1,11,-1
 555 0 l 1,12,-1
 323 319 l 1,13,-1
 367 319 l 1,14,-1
 138 0 l 1,15,-1
 23 0 l 1,0,-1
EndSplineSet
Substitution2: "'c2sc' Capitals to Small Capitals lookup 45 subtable" x.sc
Substitution2: "'aalt' Access All Alternates lookup 0 subtable" x.sc
EndChar

StartChar: Y
Encoding: 89 89 342
Width: 667
GlyphClass: 2
Flags: W
AnchorPoint: "Anchor-3" 334 700 basechar 0
AnchorPoint: "Anchor-2" 383 0 basechar 0
AnchorPoint: "Anchor-1" 331 249 basechar 0
AnchorPoint: "Anchor-0" 334 0 basechar 0
LayerCount: 2
Fore
SplineSet
284 0 m 1,0,-1
 284 268 l 1,1,-1
 307 206 l 1,2,-1
 6 700 l 1,3,-1
 113 700 l 1,4,-1
 366 283 l 1,5,-1
 308 283 l 1,6,-1
 562 700 l 1,7,-1
 661 700 l 1,8,-1
 361 206 l 1,9,-1
 383 268 l 1,10,-1
 383 0 l 1,11,-1
 284 0 l 1,0,-1
EndSplineSet
Substitution2: "'ss01' Style Set 1 lookup 50 subtable" Y.ss01
Substitution2: "'c2sc' Capitals to Small Capitals lookup 45 subtable" y.sc
AlternateSubs2: "'aalt' Access All Alternates lookup 1 subtable" y.sc Y.ss01
EndChar

StartChar: uni01B3
Encoding: 435 435 349
Width: 710
GlyphClass: 2
Flags: W
AnchorPoint: "Anchor-3" 334 700 basechar 0
AnchorPoint: "Anchor-1" 331 249 basechar 0
AnchorPoint: "Anchor-0" 334 0 basechar 0
LayerCount: 2
Fore
SplineSet
769 715 m 1,0,-1
 721 647 l 1,1,2
 697 667 697 667 664.5 663 c 128,-1,3
 632 659 632 659 607 618 c 2,4,-1
 361 206 l 1,5,-1
 383 268 l 1,6,-1
 383 0 l 1,7,-1
 284 0 l 1,8,-1
 284 268 l 1,9,-1
 307 206 l 1,10,-1
 6 700 l 1,11,-1
 113 700 l 1,12,-1
 366 283 l 1,13,-1
 308 283 l 1,14,-1
 536 662 l 2,15,16
 568 714 568 714 608.5 734 c 128,-1,17
 649 754 649 754 691.5 748 c 128,-1,18
 734 742 734 742 769 715 c 1,0,-1
EndSplineSet
Substitution2: "'ss01' Style Set 1 lookup 50 subtable" uni01B3.ss01
Substitution2: "'c2sc' Capitals to Small Capitals lookup 45 subtable" uni01B4.sc
AlternateSubs2: "'aalt' Access All Alternates lookup 1 subtable" uni01B4.sc uni01B3.ss01
EndChar

StartChar: uni01A6
Encoding: 422 422 352
Width: 747
GlyphClass: 2
Flags: W
AnchorPoint: "Anchor-3" 377 700 basechar 0
AnchorPoint: "Anchor-0" 377 0 basechar 0
LayerCount: 2
Fore
SplineSet
170 141 m 1,0,-1
 170 226 l 1,1,-1
 385 226 l 2,2,3
 481 226 481 226 530.5 267.5 c 128,-1,4
 580 309 580 309 580 384 c 0,5,6
 580 460 580 460 530.5 501 c 128,-1,7
 481 542 481 542 385 542 c 2,8,-1
 170 542 l 1,9,-1
 170 628 l 1,10,-1
 388 628 l 2,11,12
 524 628 524 628 602 563.5 c 128,-1,13
 680 499 680 499 680 384 c 0,14,15
 680 309 680 309 645 254.5 c 128,-1,16
 610 200 610 200 545 170.5 c 128,-1,17
 480 141 480 141 388 141 c 2,18,-1
 170 141 l 1,0,-1
115 0 m 1,19,-1
 115 700 l 1,20,-1
 215 700 l 1,21,-1
 215 0 l 1,22,-1
 115 0 l 1,19,-1
583 -100 m 1,23,-1
 399 166 l 1,24,-1
 507 166 l 1,25,-1
 692 -100 l 1,26,-1
 583 -100 l 1,23,-1
EndSplineSet
Substitution2: "'c2sc' Capitals to Small Capitals lookup 45 subtable" uni0280.sc
Substitution2: "'aalt' Access All Alternates lookup 0 subtable" uni0280.sc
EndChar

StartChar: uni024E
Encoding: 590 590 353
Width: 669
GlyphClass: 2
Flags: W
AnchorPoint: "Anchor-3" 335 700 basechar 0
AnchorPoint: "Anchor-1" 332 249 basechar 0
AnchorPoint: "Anchor-0" 335 0 basechar 0
LayerCount: 2
Fore
SplineSet
285 0 m 1,0,-1
 285 249 l 1,1,-1
 308 188 l 1,2,-1
 7 700 l 1,3,-1
 114 700 l 1,4,-1
 367 265 l 1,5,-1
 309 265 l 1,6,-1
 563 700 l 1,7,-1
 662 700 l 1,8,-1
 361 188 l 1,9,-1
 384 249 l 1,10,-1
 384 0 l 1,11,-1
 285 0 l 1,0,-1
4 505 m 1,12,-1
 4 584 l 1,13,-1
 665 584 l 1,14,-1
 665 505 l 1,15,-1
 4 505 l 1,12,-1
EndSplineSet
Substitution2: "'ss01' Style Set 1 lookup 50 subtable" uni024E.ss01
Substitution2: "'c2sc' Capitals to Small Capitals lookup 45 subtable" uni024F.sc
AlternateSubs2: "'aalt' Access All Alternates lookup 1 subtable" uni024F.sc uni024E.ss01
EndChar

StartChar: Z
Encoding: 90 90 355
Width: 677
GlyphClass: 2
Flags: W
AnchorPoint: "Anchor-3" 346 700 basechar 0
AnchorPoint: "Anchor-2" 638 0 basechar 0
AnchorPoint: "Anchor-0" 352 0 basechar 0
LayerCount: 2
Fore
SplineSet
53 0 m 1,0,-1
 53 68 l 1,1,-1
 524 652 l 1,2,-1
 535 613 l 1,3,-1
 60 613 l 1,4,-1
 60 700 l 1,5,-1
 625 700 l 1,6,-1
 625 632 l 1,7,-1
 156 48 l 1,8,-1
 144 87 l 1,9,-1
 638 87 l 1,10,-1
 638 0 l 1,11,-1
 53 0 l 1,0,-1
EndSplineSet
Substitution2: "'ss01' Style Set 1 lookup 50 subtable" Z.ss01
Substitution2: "'c2sc' Capitals to Small Capitals lookup 45 subtable" z.sc
AlternateSubs2: "'aalt' Access All Alternates lookup 1 subtable" z.sc Z.ss01
EndChar

StartChar: uni01B5
Encoding: 437 437 362
Width: 677
GlyphClass: 2
Flags: W
AnchorPoint: "Anchor-3" 346 700 basechar 0
AnchorPoint: "Anchor-0" 352 0 basechar 0
LayerCount: 2
Fore
SplineSet
53 0 m 1,0,-1
 53 68 l 1,1,-1
 524 652 l 1,2,-1
 535 613 l 1,3,-1
 60 613 l 1,4,-1
 60 700 l 1,5,-1
 625 700 l 1,6,-1
 625 632 l 1,7,-1
 156 48 l 1,8,-1
 144 87 l 1,9,-1
 638 87 l 1,10,-1
 638 0 l 1,11,-1
 53 0 l 1,0,-1
134 319 m 1,12,-1
 134 398 l 1,13,-1
 558 398 l 1,14,-1
 558 319 l 1,15,-1
 134 319 l 1,12,-1
EndSplineSet
Substitution2: "'c2sc' Capitals to Small Capitals lookup 45 subtable" uni01B6.sc
Substitution2: "'aalt' Access All Alternates lookup 0 subtable" uni01B6.sc
EndChar

StartChar: uniA78B
Encoding: 42891 42891 363
Width: 278
GlyphClass: 1
Flags: W
LayerCount: 2
Fore
SplineSet
90 297 m 1,0,-1
 90 700 l 1,1,-1
 188 700 l 1,2,-1
 176 297 l 1,3,-1
 90 297 l 1,0,-1
EndSplineSet
Substitution2: "'c2sc' Capitals to Small Capitals lookup 45 subtable" uniA78C.sc
Substitution2: "'aalt' Access All Alternates lookup 0 subtable" uniA78C.sc
EndChar

StartChar: uni0295.case
Encoding: 65538 -1 364
Width: 591
GlyphClass: 2
Flags: W
AnchorPoint: "Anchor-3" 329 700 basechar 0
AnchorPoint: "Anchor-0" 329 0 basechar 0
LayerCount: 2
Fore
SplineSet
379 0 m 1,0,-1
 280 0 l 1,1,-1
 280 152 l 2,2,3
 280 190 280 190 261.5 217 c 128,-1,4
 243 244 243 244 214 264.5 c 128,-1,5
 185 285 185 285 153 304.5 c 128,-1,6
 121 324 121 324 92.5 348.5 c 128,-1,7
 64 373 64 373 45.5 407.5 c 128,-1,8
 27 442 27 442 27 491 c 0,9,10
 27 546 27 546 51 587 c 128,-1,11
 75 628 75 628 115.5 654.5 c 128,-1,12
 156 681 156 681 207 694.5 c 128,-1,13
 258 708 258 708 314 708 c 0,14,15
 373 708 373 708 428 693 c 128,-1,16
 483 678 483 678 529.5 648 c 128,-1,17
 576 618 576 618 609 573 c 1,18,-1
 530 516 l 1,19,20
 507 552 507 552 472 575.5 c 128,-1,21
 437 599 437 599 396 610.5 c 128,-1,22
 355 622 355 622 313 622 c 0,23,24
 267 622 267 622 224 607.5 c 128,-1,25
 181 593 181 593 154 564.5 c 128,-1,26
 127 536 127 536 127 490 c 0,27,28
 127 452 127 452 145.5 426.5 c 128,-1,29
 164 401 164 401 192.5 382 c 128,-1,30
 221 363 221 363 253 344 c 128,-1,31
 285 325 285 325 313.5 301.5 c 128,-1,32
 342 278 342 278 360.5 243.5 c 128,-1,33
 379 209 379 209 379 157 c 2,34,-1
 379 0 l 1,0,-1
EndSplineSet
EndChar

StartChar: uni01B2.loclTOD0
Encoding: 65548 -1 374
Width: 790
GlyphClass: 2
Flags: W
AnchorPoint: "Anchor-3" 366 700 basechar 0
AnchorPoint: "Anchor-0" 366 0 basechar 0
LayerCount: 2
Fore
SplineSet
318 0 m 1,0,-1
 9 700 l 1,1,-1
 117 700 l 1,2,-1
 388 77 l 1,3,-1
 349 77 l 1,4,-1
 591 632 l 2,5,6
 610 676 610 676 637 703 c 128,-1,7
 664 730 664 730 695.5 741 c 128,-1,8
 727 752 727 752 761.5 747.5 c 128,-1,9
 796 743 796 743 828 723 c 1,10,-1
 788 650 l 1,11,12
 758 668 758 668 727 658 c 128,-1,13
 696 648 696 648 676 604 c 2,14,-1
 416 0 l 1,15,-1
 318 0 l 1,0,-1
EndSplineSet
Substitution2: "'ss01' Style Set 1 lookup 50 subtable" uni01B2.loclTOD0.ss01
Substitution2: "'c2sc' Capitals to Small Capitals lookup 45 subtable" uni01B2.loclTOD0.sc
AlternateSubs2: "'aalt' Access All Alternates lookup 1 subtable" uni01B2.loclTOD0.sc uni01B2.loclTOD0.ss01
EndChar

StartChar: uni0181.loclXPE
Encoding: 65549 -1 375
Width: 759
GlyphClass: 1
Flags: W
LayerCount: 2
Fore
SplineSet
124 52 m 1,0,-1
 124 700 l 1,1,-1
 632 700 l 1,2,-1
 632 615 l 1,3,-1
 223 615 l 1,4,-1
 223 97 l 1,5,-1
 124 52 l 1,0,-1
414 -9 m 0,6,7
 341 -9 341 -9 264.5 7.5 c 128,-1,8
 188 24 188 24 124 52 c 1,9,-1
 209 113 l 1,10,11
 227 104 227 104 259.5 95.5 c 128,-1,12
 292 87 292 87 332 81 c 128,-1,13
 372 75 372 75 412 75 c 0,14,15
 447 75 447 75 480.5 81.5 c 128,-1,16
 514 88 514 88 540 102 c 128,-1,17
 566 116 566 116 581.5 140.5 c 128,-1,18
 597 165 597 165 597 201 c 0,19,20
 597 250 597 250 571.5 277.5 c 128,-1,21
 546 305 546 305 505.5 316.5 c 128,-1,22
 465 328 465 328 416 328 c 0,23,24
 363 328 363 328 307 317 c 128,-1,25
 251 306 251 306 209 291 c 1,26,-1
 207 369 l 1,27,28
 254 388 254 388 311.5 399 c 128,-1,29
 369 410 369 410 426 410 c 0,30,31
 478 410 478 410 527 399 c 128,-1,32
 576 388 576 388 614 363.5 c 128,-1,33
 652 339 652 339 674.5 299.5 c 128,-1,34
 697 260 697 260 697 201 c 0,35,36
 697 144 697 144 674.5 103.5 c 128,-1,37
 652 63 652 63 612.5 38.5 c 128,-1,38
 573 14 573 14 522 2.5 c 128,-1,39
 471 -9 471 -9 414 -9 c 0,6,7
EndSplineSet
EndChar

StartChar: A.ss01
Encoding: 65550 -1 376
Width: 820
GlyphClass: 2
Flags: W
AnchorPoint: "Anchor-3" 409 700 basechar 0
AnchorPoint: "Anchor-2" 711 0 basechar 0
AnchorPoint: "Anchor-0" 409 0 basechar 0
LayerCount: 2
Fore
SplineSet
109 0 m 1,0,-1
 109 393 l 2,1,2
 109 497 109 497 146.5 567 c 128,-1,3
 184 637 184 637 252 672.5 c 128,-1,4
 320 708 320 708 409 708 c 0,5,6
 500 708 500 708 568 672.5 c 128,-1,7
 636 637 636 637 673.5 567 c 128,-1,8
 711 497 711 497 711 393 c 2,9,-1
 711 0 l 1,10,-1
 611 0 l 1,11,-1
 611 402 l 2,12,13
 611 512 611 512 556.5 565.5 c 128,-1,14
 502 619 502 619 409 619 c 0,15,16
 317 619 317 619 262 565.5 c 128,-1,17
 207 512 207 512 207 402 c 2,18,-1
 207 0 l 1,19,-1
 109 0 l 1,0,-1
172 193 m 1,20,-1
 172 280 l 1,21,-1
 647 280 l 1,22,-1
 647 193 l 1,23,-1
 172 193 l 1,20,-1
EndSplineSet
EndChar

StartChar: uni023A.ss01
Encoding: 65579 -1 405
Width: 820
GlyphClass: 2
Flags: W
AnchorPoint: "Anchor-3" 409 700 basechar 0
AnchorPoint: "Anchor-2" 711 0 basechar 0
AnchorPoint: "Anchor-0" 409 0 basechar 0
LayerCount: 2
Fore
SplineSet
109 0 m 1,0,-1
 109 393 l 2,1,2
 109 497 109 497 146.5 567 c 128,-1,3
 184 637 184 637 252 672.5 c 128,-1,4
 320 708 320 708 409 708 c 0,5,6
 500 708 500 708 568 672.5 c 128,-1,7
 636 637 636 637 673.5 567 c 128,-1,8
 711 497 711 497 711 393 c 2,9,-1
 711 0 l 1,10,-1
 611 0 l 1,11,-1
 611 402 l 2,12,13
 611 512 611 512 556.5 565.5 c 128,-1,14
 502 619 502 619 409 619 c 0,15,16
 317 619 317 619 262 565.5 c 128,-1,17
 207 512 207 512 207 402 c 2,18,-1
 207 0 l 1,19,-1
 109 0 l 1,0,-1
172 193 m 1,20,-1
 172 280 l 1,21,-1
 647 280 l 1,22,-1
 647 193 l 1,23,-1
 172 193 l 1,20,-1
221 -70 m 1,24,-1
 600 770 l 1,25,-1
 679 770 l 1,26,-1
 301 -70 l 1,27,-1
 221 -70 l 1,24,-1
EndSplineSet
EndChar

StartChar: uni2C6F.ss01
Encoding: 65581 -1 407
Width: 820
GlyphClass: 2
Flags: W
AnchorPoint: "Anchor-3" 410 700 basechar 0
AnchorPoint: "Anchor-0" 410 0 basechar 0
LayerCount: 2
Fore
SplineSet
711 700 m 1,0,-1
 711 307 l 2,1,2
 711 204 711 204 673.5 133.5 c 128,-1,3
 636 63 636 63 568.5 27.5 c 128,-1,4
 501 -8 501 -8 410 -8 c 0,5,6
 320 -8 320 -8 252 27.5 c 128,-1,7
 184 63 184 63 146.5 133.5 c 128,-1,8
 109 204 109 204 109 307 c 2,9,-1
 109 700 l 1,10,-1
 209 700 l 1,11,-1
 209 298 l 2,12,13
 209 188 209 188 263 134.5 c 128,-1,14
 317 81 317 81 410 81 c 0,15,16
 504 81 504 81 558.5 134.5 c 128,-1,17
 613 188 613 188 613 298 c 2,18,-1
 613 700 l 1,19,-1
 711 700 l 1,0,-1
648 507 m 1,20,-1
 648 420 l 1,21,-1
 172 420 l 1,22,-1
 172 507 l 1,23,-1
 648 507 l 1,20,-1
EndSplineSet
EndChar

StartChar: AE.ss01
Encoding: 65582 -1 408
Width: 1094
GlyphClass: 2
Flags: W
AnchorPoint: "Anchor-3" 542 700 basechar 0
AnchorPoint: "Anchor-0" 542 0 basechar 0
LayerCount: 2
Fore
SplineSet
536 0 m 1,0,-1
 536 700 l 1,1,-1
 1031 700 l 1,2,-1
 1031 615 l 1,3,-1
 634 615 l 1,4,-1
 634 396 l 1,5,-1
 987 396 l 1,6,-1
 987 315 l 1,7,-1
 634 315 l 1,8,-1
 634 85 l 1,9,-1
 1045 85 l 1,10,-1
 1045 0 l 1,11,-1
 536 0 l 1,0,-1
163 203 m 1,12,-1
 163 287 l 1,13,-1
 585 287 l 1,14,-1
 585 203 l 1,15,-1
 163 203 l 1,12,-1
100 0 m 1,16,-1
 100 393 l 2,17,18
 100 541 100 541 176 620.5 c 128,-1,19
 252 700 252 700 393 700 c 2,20,-1
 585 700 l 1,21,-1
 585 610 l 1,22,-1
 400 610 l 2,23,24
 302 610 302 610 251 554.5 c 128,-1,25
 200 499 200 499 200 391 c 2,26,-1
 200 0 l 1,27,-1
 100 0 l 1,16,-1
EndSplineSet
EndChar

StartChar: E.ss01
Encoding: 65589 -1 415
Width: 664
GlyphClass: 2
Flags: W
AnchorPoint: "Anchor-3" 360 700 basechar 0
AnchorPoint: "Anchor-2" 603 0 basechar 0
AnchorPoint: "Anchor-0" 360 0 basechar 0
LayerCount: 2
Fore
SplineSet
359 -8 m 0,0,1
 261 -8 261 -8 194.5 17.5 c 128,-1,2
 128 43 128 43 94.5 88.5 c 128,-1,3
 61 134 61 134 61 192 c 0,4,5
 61 247 61 247 89 287 c 128,-1,6
 117 327 117 327 163 348.5 c 128,-1,7
 209 370 209 370 262 370 c 1,8,-1
 267 341 l 1,9,10
 215 341 215 341 174.5 363 c 128,-1,11
 134 385 134 385 112.5 424 c 128,-1,12
 91 463 91 463 91 512 c 0,13,14
 91 565 91 565 121.5 609.5 c 128,-1,15
 152 654 152 654 215.5 681 c 128,-1,16
 279 708 279 708 374 708 c 0,17,18
 440 708 440 708 501 694 c 128,-1,19
 562 680 562 680 607 654 c 1,20,-1
 578 574 l 1,21,22
 531 599 531 599 481.5 610.5 c 128,-1,23
 432 622 432 622 378 622 c 0,24,25
 284 622 284 622 237.5 588.5 c 128,-1,26
 191 555 191 555 191 505 c 0,27,28
 191 453 191 453 228 425 c 128,-1,29
 265 397 265 397 334 397 c 2,30,-1
 514 397 l 1,31,-1
 514 311 l 1,32,-1
 330 311 l 2,33,34
 279 311 279 311 241 299 c 128,-1,35
 203 287 203 287 182 262 c 128,-1,36
 161 237 161 237 161 199 c 0,37,38
 161 145 161 145 210.5 111.5 c 128,-1,39
 260 78 260 78 364 78 c 0,40,41
 434 78 434 78 497.5 97 c 128,-1,42
 561 116 561 116 602 151 c 1,43,-1
 636 73 l 1,44,45
 591 35 591 35 518 13.5 c 128,-1,46
 445 -8 445 -8 359 -8 c 0,0,1
EndSplineSet
EndChar

StartChar: Eogonek.ss01
Encoding: 65612 -1 438
Width: 664
GlyphClass: 2
Flags: W
AnchorPoint: "Anchor-3" 360 700 basechar 0
AnchorPoint: "Anchor-0" 360 0 basechar 0
LayerCount: 2
Fore
SplineSet
535 -224 m 0,0,1
 479 -224 479 -224 447 -196 c 128,-1,2
 415 -168 415 -168 415 -123 c 0,3,4
 415 -83 415 -83 435 -43 c 128,-1,5
 455 -3 455 -3 505 35 c 1,6,-1
 521 17 l 1,7,8
 484 5 484 5 444 -1.5 c 128,-1,9
 404 -8 404 -8 359 -8 c 0,10,11
 261 -8 261 -8 194.5 17.5 c 128,-1,12
 128 43 128 43 94.5 88.5 c 128,-1,13
 61 134 61 134 61 192 c 0,14,15
 61 247 61 247 89 287 c 128,-1,16
 117 327 117 327 163 348.5 c 128,-1,17
 209 370 209 370 262 370 c 1,18,-1
 267 341 l 1,19,20
 215 341 215 341 174.5 363 c 128,-1,21
 134 385 134 385 112.5 424 c 128,-1,22
 91 463 91 463 91 512 c 0,23,24
 91 565 91 565 121.5 609.5 c 128,-1,25
 152 654 152 654 215.5 681 c 128,-1,26
 279 708 279 708 374 708 c 0,27,28
 440 708 440 708 501 694 c 128,-1,29
 562 680 562 680 607 654 c 1,30,-1
 578 574 l 1,31,32
 531 599 531 599 481.5 610.5 c 128,-1,33
 432 622 432 622 378 622 c 0,34,35
 284 622 284 622 237.5 588.5 c 128,-1,36
 191 555 191 555 191 505 c 0,37,38
 191 453 191 453 228 425 c 128,-1,39
 265 397 265 397 334 397 c 2,40,-1
 514 397 l 1,41,-1
 514 311 l 1,42,-1
 330 311 l 2,43,44
 279 311 279 311 241 299 c 128,-1,45
 203 287 203 287 182 262 c 128,-1,46
 161 237 161 237 161 199 c 0,47,48
 161 145 161 145 210.5 111.5 c 128,-1,49
 260 78 260 78 364 78 c 0,50,51
 434 78 434 78 497.5 98.5 c 128,-1,52
 561 119 561 119 602 151 c 1,53,-1
 636 72 l 1,54,55
 574 30 574 30 541 -3.5 c 128,-1,56
 508 -37 508 -37 495.5 -64 c 128,-1,57
 483 -91 483 -91 483 -114 c 0,58,59
 483 -140 483 -140 500.5 -154 c 128,-1,60
 518 -168 518 -168 545 -168 c 0,61,62
 561 -168 561 -168 577.5 -163 c 128,-1,63
 594 -158 594 -158 606 -151 c 1,64,-1
 625 -200 l 1,65,66
 606 -211 606 -211 583 -217.5 c 128,-1,67
 560 -224 560 -224 535 -224 c 0,0,1
EndSplineSet
EndChar

StartChar: uni0246.ss01
Encoding: 65613 -1 439
Width: 664
GlyphClass: 2
Flags: W
AnchorPoint: "Anchor-3" 349 700 basechar 0
AnchorPoint: "Anchor-2" 435 0 basechar 0
AnchorPoint: "Anchor-0" 349 0 basechar 0
LayerCount: 2
Fore
SplineSet
359 -8 m 0,0,1
 261 -8 261 -8 194.5 17.5 c 128,-1,2
 128 43 128 43 94.5 88.5 c 128,-1,3
 61 134 61 134 61 192 c 0,4,5
 61 247 61 247 89 287 c 128,-1,6
 117 327 117 327 163 348.5 c 128,-1,7
 209 370 209 370 262 370 c 1,8,-1
 267 341 l 1,9,10
 215 341 215 341 174.5 363 c 128,-1,11
 134 385 134 385 112.5 424 c 128,-1,12
 91 463 91 463 91 512 c 0,13,14
 91 565 91 565 121.5 609.5 c 128,-1,15
 152 654 152 654 215.5 681 c 128,-1,16
 279 708 279 708 374 708 c 0,17,18
 440 708 440 708 501 694 c 128,-1,19
 562 680 562 680 607 654 c 1,20,-1
 578 574 l 1,21,22
 531 599 531 599 481.5 610.5 c 128,-1,23
 432 622 432 622 378 622 c 0,24,25
 284 622 284 622 237.5 588.5 c 128,-1,26
 191 555 191 555 191 505 c 0,27,28
 191 453 191 453 228 425 c 128,-1,29
 265 397 265 397 334 397 c 2,30,-1
 514 397 l 1,31,-1
 514 311 l 1,32,-1
 330 311 l 2,33,34
 279 311 279 311 241 299 c 128,-1,35
 203 287 203 287 182 262 c 128,-1,36
 161 237 161 237 161 199 c 0,37,38
 161 145 161 145 210.5 111.5 c 128,-1,39
 260 78 260 78 364 78 c 0,40,41
 434 78 434 78 497.5 97 c 128,-1,42
 561 116 561 116 602 151 c 1,43,-1
 636 73 l 1,44,45
 591 35 591 35 518 13.5 c 128,-1,46
 445 -8 445 -8 359 -8 c 0,0,1
149 -70 m 1,47,-1
 528 770 l 1,48,-1
 607 770 l 1,49,-1
 229 -70 l 1,50,-1
 149 -70 l 1,47,-1
EndSplineSet
EndChar

StartChar: uni018E.ss01
Encoding: 65616 -1 442
Width: 653
GlyphClass: 2
Flags: W
AnchorPoint: "Anchor-3" 274 700 basechar 0
AnchorPoint: "Anchor-0" 274 0 basechar 0
LayerCount: 2
Fore
SplineSet
286 -8 m 0,0,1
 200 -8 200 -8 128.5 13.5 c 128,-1,2
 57 35 57 35 11 73 c 1,3,-1
 45 151 l 1,4,5
 87 116 87 116 149.5 97 c 128,-1,6
 212 78 212 78 287 78 c 0,7,8
 388 78 388 78 437 111.5 c 128,-1,9
 486 145 486 145 486 203 c 0,10,11
 486 243 486 243 465 269.5 c 128,-1,12
 444 296 444 296 406.5 308.5 c 128,-1,13
 369 321 369 321 318 321 c 2,14,-1
 153 321 l 1,15,-1
 153 402 l 1,16,-1
 313 402 l 2,17,18
 381 402 381 402 418.5 427.5 c 128,-1,19
 456 453 456 453 456 504 c 0,20,21
 456 546 456 546 433 571.5 c 128,-1,22
 410 597 410 597 372.5 609 c 128,-1,23
 335 621 335 621 290 621 c 0,24,25
 254 621 254 621 215.5 614 c 128,-1,26
 177 607 177 607 141 594.5 c 128,-1,27
 105 582 105 582 74 566 c 1,28,-1
 45 646 l 1,29,30
 99 676 99 676 162.5 691.5 c 128,-1,31
 226 707 226 707 289 707 c 0,32,33
 342 707 342 707 390 695.5 c 128,-1,34
 438 684 438 684 475.5 661 c 128,-1,35
 513 638 513 638 534.5 602 c 128,-1,36
 556 566 556 566 556 518 c 256,37,38
 556 470 556 470 534.5 431 c 128,-1,39
 513 392 513 392 473 369 c 128,-1,40
 433 346 433 346 380 346 c 1,41,-1
 385 375 l 1,42,43
 439 375 439 375 485 354 c 128,-1,44
 531 333 531 333 558.5 293.5 c 128,-1,45
 586 254 586 254 586 197 c 0,46,47
 586 138 586 138 551.5 91.5 c 128,-1,48
 517 45 517 45 450.5 18.5 c 128,-1,49
 384 -8 384 -8 286 -8 c 0,0,1
EndSplineSet
EndChar

StartChar: uni018F.ss01
Encoding: 65617 -1 443
Width: 837
GlyphClass: 2
Flags: W
AnchorPoint: "Anchor-3" 418 700 basechar 0
AnchorPoint: "Anchor-2" 468 0 basechar 0
AnchorPoint: "Anchor-0" 418 0 basechar 0
LayerCount: 2
Fore
SplineSet
419 -8 m 0,0,1
 338 -8 338 -8 270.5 21 c 128,-1,2
 203 50 203 50 154 102.5 c 128,-1,3
 105 155 105 155 79 229 c 1,4,-1
 675 471 l 1,5,-1
 697 390 l 1,6,-1
 154 168 l 1,7,-1
 183 241 l 1,8,9
 207 167 207 167 268 122.5 c 128,-1,10
 329 78 329 78 419 78 c 0,11,12
 477 78 477 78 524.5 97.5 c 128,-1,13
 572 117 572 117 606.5 152.5 c 128,-1,14
 641 188 641 188 660 237 c 128,-1,15
 679 286 679 286 679 345 c 2,16,-1
 679 354 l 2,17,18
 679 411 679 411 658.5 459.5 c 128,-1,19
 638 508 638 508 601.5 543.5 c 128,-1,20
 565 579 565 579 516.5 599 c 128,-1,21
 468 619 468 619 412 619 c 0,22,23
 371 619 371 619 331.5 610 c 128,-1,24
 292 601 292 601 256.5 583 c 128,-1,25
 221 565 221 565 192 537 c 1,26,-1
 132 606 l 1,27,28
 165 639 165 639 208.5 661.5 c 128,-1,29
 252 684 252 684 304 696 c 128,-1,30
 356 708 356 708 413 708 c 0,31,32
 493 708 493 708 559.5 681.5 c 128,-1,33
 626 655 626 655 675.5 606.5 c 128,-1,34
 725 558 725 558 752 493 c 128,-1,35
 779 428 779 428 779 351 c 256,36,37
 779 274 779 274 752 208.5 c 128,-1,38
 725 143 725 143 676 94.5 c 128,-1,39
 627 46 627 46 561.5 19 c 128,-1,40
 496 -8 496 -8 419 -8 c 0,0,1
EndSplineSet
EndChar

StartChar: F.ss01
Encoding: 65618 -1 444
Width: 626
GlyphClass: 2
Flags: W
AnchorPoint: "Anchor-3" 370 700 basechar 0
AnchorPoint: "Anchor-0" 370 0 basechar 0
LayerCount: 2
Fore
SplineSet
109 0 m 1,0,-1
 109 450 l 2,1,2
 109 570 109 570 185.5 639 c 128,-1,3
 262 708 262 708 399 708 c 0,4,5
 458 708 458 708 510 695 c 128,-1,6
 562 682 562 682 601 655 c 1,7,-1
 568 572 l 1,8,9
 533 597 533 597 490.5 608 c 128,-1,10
 448 619 448 619 402 619 c 0,11,12
 305 619 305 619 257 575 c 128,-1,13
 209 531 209 531 209 449 c 2,14,-1
 209 0 l 1,15,-1
 109 0 l 1,0,-1
172 283 m 1,16,-1
 172 369 l 1,17,-1
 529 369 l 1,18,-1
 529 283 l 1,19,-1
 172 283 l 1,16,-1
EndSplineSet
EndChar

StartChar: uni0191.ss01
Encoding: 65620 -1 446
Width: 651
GlyphClass: 1
Flags: W
LayerCount: 2
Fore
SplineSet
-15 -182 m 1,0,-1
 13 -104 l 1,1,2
 34 -114 34 -114 55 -114 c 128,-1,3
 76 -114 76 -114 94 -105.5 c 128,-1,4
 112 -97 112 -97 123 -79.5 c 128,-1,5
 134 -62 134 -62 134 -35 c 2,6,-1
 134 450 l 2,7,8
 134 570 134 570 210.5 639 c 128,-1,9
 287 708 287 708 424 708 c 0,10,11
 483 708 483 708 535 695 c 128,-1,12
 587 682 587 682 626 655 c 1,13,-1
 593 572 l 1,14,15
 558 597 558 597 515.5 608 c 128,-1,16
 473 619 473 619 427 619 c 0,17,18
 330 619 330 619 282 575 c 128,-1,19
 234 531 234 531 234 449 c 2,20,-1
 234 -36 l 2,21,22
 234 -79 234 -79 218.5 -111 c 128,-1,23
 203 -143 203 -143 178 -164 c 128,-1,24
 153 -185 153 -185 120 -193.5 c 128,-1,25
 87 -202 87 -202 52.5 -199.5 c 128,-1,26
 18 -197 18 -197 -15 -182 c 1,0,-1
197 283 m 1,27,-1
 197 369 l 1,28,-1
 554 369 l 1,29,-1
 554 283 l 1,30,-1
 197 283 l 1,27,-1
EndSplineSet
EndChar

StartChar: G.ss01
Encoding: 65621 -1 447
Width: 792
GlyphClass: 2
Flags: W
AnchorPoint: "Anchor-3" 420 700 basechar 0
AnchorPoint: "Anchor-0" 415 0 basechar 0
LayerCount: 2
Fore
SplineSet
413 -8 m 0,0,1
 343 -8 343 -8 279 15 c 128,-1,2
 215 38 215 38 165 83.5 c 128,-1,3
 115 129 115 129 86.5 195 c 128,-1,4
 58 261 58 261 58 347 c 0,5,6
 58 426 58 426 86 491.5 c 128,-1,7
 114 557 114 557 164.5 606 c 128,-1,8
 215 655 215 655 283 681.5 c 128,-1,9
 351 708 351 708 433 708 c 0,10,11
 516 708 516 708 585 681 c 128,-1,12
 654 654 654 654 702 600 c 1,13,-1
 640 538 l 1,14,15
 597 580 597 580 546.5 599.5 c 128,-1,16
 496 619 496 619 437 619 c 0,17,18
 377 619 377 619 325.5 599 c 128,-1,19
 274 579 274 579 236.5 543 c 128,-1,20
 199 507 199 507 178.5 457 c 128,-1,21
 158 407 158 407 158 347 c 0,22,23
 158 282 158 282 179.5 232 c 128,-1,24
 201 182 201 182 238.5 148 c 128,-1,25
 276 114 276 114 322.5 96.5 c 128,-1,26
 369 79 369 79 421 79 c 0,27,28
 479 79 479 79 534 102 c 128,-1,29
 589 125 589 125 628 174 c 1,30,-1
 670 112 l 1,31,32
 633 52 633 52 565 22 c 128,-1,33
 497 -8 497 -8 413 -8 c 0,0,1
608 0 m 1,34,-1
 608 93 l 1,35,-1
 600 106 l 1,36,-1
 600 354 l 1,37,-1
 696 354 l 1,38,-1
 696 0 l 1,39,-1
 608 0 l 1,34,-1
EndSplineSet
EndChar

StartChar: uni0193.ss01
Encoding: 65628 -1 454
Width: 800
GlyphClass: 2
Flags: W
AnchorPoint: "Anchor-3" 420 700 basechar 0
AnchorPoint: "Anchor-0" 415 0 basechar 0
LayerCount: 2
Fore
SplineSet
611 600 m 1,0,-1
 611 675 l 2,1,2
 611 728 611 728 631.5 764 c 128,-1,3
 652 800 652 800 685 819 c 128,-1,4
 718 838 718 838 759 839.5 c 128,-1,5
 800 841 800 841 841 824 c 1,6,-1
 814 746 l 1,7,8
 787 757 787 757 761.5 752 c 128,-1,9
 736 747 736 747 719 727.5 c 128,-1,10
 702 708 702 708 702 675 c 2,11,-1
 702 600 l 1,12,-1
 611 600 l 1,0,-1
413 -8 m 0,13,14
 343 -8 343 -8 279 15 c 128,-1,15
 215 38 215 38 165 83.5 c 128,-1,16
 115 129 115 129 86.5 195 c 128,-1,17
 58 261 58 261 58 347 c 0,18,19
 58 426 58 426 86 491.5 c 128,-1,20
 114 557 114 557 164.5 606 c 128,-1,21
 215 655 215 655 283 681.5 c 128,-1,22
 351 708 351 708 433 708 c 0,23,24
 516 708 516 708 585 681 c 128,-1,25
 654 654 654 654 702 600 c 1,26,-1
 640 538 l 1,27,28
 597 580 597 580 546.5 599.5 c 128,-1,29
 496 619 496 619 437 619 c 0,30,31
 377 619 377 619 325.5 599 c 128,-1,32
 274 579 274 579 236.5 543 c 128,-1,33
 199 507 199 507 178.5 457 c 128,-1,34
 158 407 158 407 158 347 c 0,35,36
 158 282 158 282 179.5 232 c 128,-1,37
 201 182 201 182 238.5 148 c 128,-1,38
 276 114 276 114 322.5 96.5 c 128,-1,39
 369 79 369 79 421 79 c 0,40,41
 479 79 479 79 534 102 c 128,-1,42
 589 125 589 125 628 174 c 1,43,-1
 670 112 l 1,44,45
 633 52 633 52 565 22 c 128,-1,46
 497 -8 497 -8 413 -8 c 0,13,14
608 0 m 1,47,-1
 608 93 l 1,48,-1
 600 106 l 1,49,-1
 600 354 l 1,50,-1
 696 354 l 1,51,-1
 696 0 l 1,52,-1
 608 0 l 1,47,-1
EndSplineSet
EndChar

StartChar: uni01E4.ss01
Encoding: 65630 -1 456
Width: 832
GlyphClass: 2
Flags: W
AnchorPoint: "Anchor-3" 420 700 basechar 0
AnchorPoint: "Anchor-0" 415 0 basechar 0
LayerCount: 2
Fore
SplineSet
413 -8 m 0,0,1
 343 -8 343 -8 279 15 c 128,-1,2
 215 38 215 38 165 83.5 c 128,-1,3
 115 129 115 129 86.5 195 c 128,-1,4
 58 261 58 261 58 347 c 0,5,6
 58 426 58 426 86 491.5 c 128,-1,7
 114 557 114 557 164.5 606 c 128,-1,8
 215 655 215 655 283 681.5 c 128,-1,9
 351 708 351 708 433 708 c 0,10,11
 516 708 516 708 585 681 c 128,-1,12
 654 654 654 654 702 600 c 1,13,-1
 640 538 l 1,14,15
 597 580 597 580 546.5 599.5 c 128,-1,16
 496 619 496 619 437 619 c 0,17,18
 377 619 377 619 325.5 599 c 128,-1,19
 274 579 274 579 236.5 543 c 128,-1,20
 199 507 199 507 178.5 457 c 128,-1,21
 158 407 158 407 158 347 c 0,22,23
 158 282 158 282 179.5 232 c 128,-1,24
 201 182 201 182 238.5 148 c 128,-1,25
 276 114 276 114 322.5 96.5 c 128,-1,26
 369 79 369 79 421 79 c 0,27,28
 479 79 479 79 534 102 c 128,-1,29
 589 125 589 125 628 174 c 1,30,-1
 670 112 l 1,31,32
 633 52 633 52 565 22 c 128,-1,33
 497 -8 497 -8 413 -8 c 0,0,1
608 0 m 1,34,-1
 608 93 l 1,35,-1
 600 106 l 1,36,-1
 600 354 l 1,37,-1
 696 354 l 1,38,-1
 696 0 l 1,39,-1
 608 0 l 1,34,-1
447 209 m 1,40,-1
 447 288 l 1,41,-1
 799 288 l 1,42,-1
 799 209 l 1,43,-1
 447 209 l 1,40,-1
EndSplineSet
EndChar

StartChar: I.ss01
Encoding: 65631 -1 457
Width: 476
GlyphClass: 2
Flags: W
AnchorPoint: "Anchor-3" 239 700 basechar 0
AnchorPoint: "Anchor-2" 298 0 basechar 0
AnchorPoint: "Anchor-0" 239 0 basechar 0
LayerCount: 2
Fore
SplineSet
188 14 m 1,0,-1
 188 687 l 1,1,-1
 288 687 l 1,2,-1
 288 14 l 1,3,-1
 188 14 l 1,0,-1
53 0 m 1,4,-1
 53 85 l 1,5,-1
 423 85 l 1,6,-1
 423 0 l 1,7,-1
 53 0 l 1,4,-1
53 615 m 1,8,-1
 53 700 l 1,9,-1
 423 700 l 1,10,-1
 423 615 l 1,11,-1
 53 615 l 1,8,-1
EndSplineSet
EndChar

StartChar: IJ.ss01
Encoding: 65632 -1 458
Width: 740
GlyphClass: 2
Flags: W
AnchorPoint: "Anchor-3" 178 700 basechar 0
LayerCount: 2
Fore
SplineSet
337 -108 m 0,0,1
 266 -108 266 -108 204.5 -88.5 c 128,-1,2
 143 -69 143 -69 97 -37 c 1,3,-1
 136 43 l 1,4,5
 179 13 179 13 231.5 -3 c 128,-1,6
 284 -19 284 -19 339 -19 c 0,7,8
 431 -19 431 -19 481 35 c 128,-1,9
 531 89 531 89 531 202 c 2,10,-1
 531 700 l 1,11,-1
 631 700 l 1,12,-1
 631 207 l 2,13,14
 631 103 631 103 594 33 c 128,-1,15
 557 -37 557 -37 491.5 -72.5 c 128,-1,16
 426 -108 426 -108 337 -108 c 0,0,1
109 209 m 1,17,-1
 109 700 l 1,18,-1
 209 700 l 1,19,-1
 209 209 l 1,20,-1
 109 209 l 1,17,-1
EndSplineSet
EndChar

StartChar: Iogonek.ss01
Encoding: 65645 -1 471
Width: 476
GlyphClass: 2
Flags: W
AnchorPoint: "Anchor-3" 239 700 basechar 0
AnchorPoint: "Anchor-2" 298 0 basechar 0
AnchorPoint: "Anchor-0" 239 0 basechar 0
LayerCount: 2
Fore
SplineSet
188 14 m 1,0,-1
 188 687 l 1,1,-1
 288 687 l 1,2,-1
 288 14 l 1,3,-1
 188 14 l 1,0,-1
246 -225 m 0,4,5
 214 -225 214 -225 187 -213.5 c 128,-1,6
 160 -202 160 -202 142.5 -179 c 128,-1,7
 125 -156 125 -156 125 -122 c 0,8,9
 125 -96 125 -96 137 -68 c 128,-1,10
 149 -40 149 -40 172 -14 c 128,-1,11
 195 12 195 12 229 31 c 1,12,-1
 273 0 l 1,13,14
 232 -27 232 -27 212.5 -58 c 128,-1,15
 193 -89 193 -89 193 -114 c 0,16,17
 193 -143 193 -143 212.5 -155.5 c 128,-1,18
 232 -168 232 -168 257 -168 c 0,19,20
 273 -168 273 -168 289 -163 c 128,-1,21
 305 -158 305 -158 317 -151 c 1,22,-1
 336 -200 l 1,23,24
 316 -213 316 -213 292.5 -219 c 128,-1,25
 269 -225 269 -225 246 -225 c 0,4,5
53 0 m 1,26,-1
 53 87 l 1,27,-1
 423 87 l 1,28,-1
 423 0 l 1,29,-1
 53 0 l 1,26,-1
53 613 m 1,30,-1
 53 700 l 1,31,-1
 423 700 l 1,32,-1
 423 613 l 1,33,-1
 53 613 l 1,30,-1
EndSplineSet
EndChar

StartChar: uni0197.ss01
Encoding: 65646 -1 472
Width: 476
GlyphClass: 2
Flags: W
AnchorPoint: "Anchor-3" 239 700 basechar 0
AnchorPoint: "Anchor-2" 298 0 basechar 0
AnchorPoint: "Anchor-0" 239 0 basechar 0
LayerCount: 2
Fore
SplineSet
188 14 m 1,0,-1
 188 687 l 1,1,-1
 288 687 l 1,2,-1
 288 14 l 1,3,-1
 188 14 l 1,0,-1
53 0 m 1,4,-1
 53 85 l 1,5,-1
 423 85 l 1,6,-1
 423 0 l 1,7,-1
 53 0 l 1,4,-1
53 615 m 1,8,-1
 53 700 l 1,9,-1
 423 700 l 1,10,-1
 423 615 l 1,11,-1
 53 615 l 1,8,-1
85 319 m 1,12,-1
 85 398 l 1,13,-1
 391 398 l 1,14,-1
 391 319 l 1,15,-1
 85 319 l 1,12,-1
EndSplineSet
EndChar

StartChar: J.ss01
Encoding: 65649 -1 475
Width: 531
GlyphClass: 2
Flags: W
AnchorPoint: "Anchor-3" 246 700 basechar 0
LayerCount: 2
Fore
SplineSet
202 -108 m 0,0,1
 140 -108 140 -108 87.5 -82 c 128,-1,2
 35 -56 35 -56 1 -7 c 1,3,-1
 57 61 l 1,4,5
 86 21 86 21 122 -0.5 c 128,-1,6
 158 -22 158 -22 201 -22 c 0,7,8
 322 -22 322 -22 322 120 c 2,9,-1
 322 613 l 1,10,-1
 70 613 l 1,11,-1
 70 700 l 1,12,-1
 422 700 l 1,13,-1
 422 125 l 2,14,15
 422 8 422 8 366 -50 c 128,-1,16
 310 -108 310 -108 202 -108 c 0,0,1
EndSplineSet
EndChar

StartChar: uniA7B2.ss01
Encoding: 65651 -1 477
Width: 531
GlyphClass: 2
Flags: W
AnchorPoint: "Anchor-3" 246 700 basechar 0
LayerCount: 2
Fore
SplineSet
210 -106 m 0,0,1
 160 -106 160 -106 119 -88 c 128,-1,2
 78 -70 78 -70 54 -38 c 128,-1,3
 30 -6 30 -6 30 38 c 0,4,5
 30 76 30 76 51 110 c 128,-1,6
 72 144 72 144 119.5 166 c 128,-1,7
 167 188 167 188 244 188 c 2,8,-1
 502 188 l 1,9,-1
 502 108 l 1,10,-1
 244 108 l 2,11,12
 197 108 197 108 170.5 96.5 c 128,-1,13
 144 85 144 85 133 69 c 128,-1,14
 122 53 122 53 122 37 c 256,15,16
 122 21 122 21 132.5 6 c 128,-1,17
 143 -9 143 -9 162.5 -17.5 c 128,-1,18
 182 -26 182 -26 207 -26 c 0,19,20
 235 -26 235 -26 261 -14 c 128,-1,21
 287 -2 287 -2 304.5 26.5 c 128,-1,22
 322 55 322 55 322 103 c 2,23,-1
 322 613 l 1,24,-1
 70 613 l 1,25,-1
 70 700 l 1,26,-1
 422 700 l 1,27,-1
 422 103 l 2,28,29
 422 29 422 29 390.5 -17 c 128,-1,30
 359 -63 359 -63 310 -84.5 c 128,-1,31
 261 -106 261 -106 210 -106 c 0,0,1
EndSplineSet
EndChar

StartChar: uni0248.ss01
Encoding: 65652 -1 478
Width: 531
GlyphClass: 2
Flags: W
AnchorPoint: "Anchor-3" 246 700 basechar 0
LayerCount: 2
Fore
SplineSet
202 -108 m 0,0,1
 140 -108 140 -108 87.5 -82 c 128,-1,2
 35 -56 35 -56 1 -7 c 1,3,-1
 57 61 l 1,4,5
 86 21 86 21 122 -0.5 c 128,-1,6
 158 -22 158 -22 201 -22 c 0,7,8
 322 -22 322 -22 322 120 c 2,9,-1
 322 613 l 1,10,-1
 70 613 l 1,11,-1
 70 700 l 1,12,-1
 422 700 l 1,13,-1
 422 125 l 2,14,15
 422 8 422 8 366 -50 c 128,-1,16
 310 -108 310 -108 202 -108 c 0,0,1
169 319 m 1,17,-1
 169 398 l 1,18,-1
 525 398 l 1,19,-1
 525 319 l 1,20,-1
 169 319 l 1,17,-1
EndSplineSet
EndChar

StartChar: M.ss01
Encoding: 65654 -1 480
Width: 1247
GlyphClass: 2
Flags: W
AnchorPoint: "Anchor-3" 627 700 basechar 0
AnchorPoint: "Anchor-0" 627 0 basechar 0
LayerCount: 2
Fore
SplineSet
115 0 m 1,0,-1
 115 700 l 1,1,-1
 211 700 l 1,2,-1
 211 560 l 1,3,-1
 199 574 l 1,4,5
 226 637 226 637 286 672.5 c 128,-1,6
 346 708 346 708 430 708 c 0,7,8
 519 708 519 708 579.5 668.5 c 128,-1,9
 640 629 640 629 660 560 c 1,10,-1
 633 561 l 1,11,12
 661 632 661 632 727 670 c 128,-1,13
 793 708 793 708 880 708 c 0,14,15
 999 708 999 708 1068 639 c 128,-1,16
 1137 570 1137 570 1137 435 c 2,17,-1
 1137 0 l 1,18,-1
 1038 0 l 1,19,-1
 1038 432 l 2,20,21
 1038 528 1038 528 988.5 573.5 c 128,-1,22
 939 619 939 619 863 619 c 0,23,24
 780 619 780 619 727.5 571.5 c 128,-1,25
 675 524 675 524 675 418 c 2,26,-1
 675 0 l 1,27,-1
 576 0 l 1,28,-1
 576 432 l 2,29,30
 576 528 576 528 529 573.5 c 128,-1,31
 482 619 482 619 406 619 c 0,32,33
 351 619 351 619 307.5 598 c 128,-1,34
 264 577 264 577 239.5 533 c 128,-1,35
 215 489 215 489 215 418 c 2,36,-1
 215 0 l 1,37,-1
 115 0 l 1,0,-1
EndSplineSet
EndChar

StartChar: N.ss01
Encoding: 65656 -1 482
Width: 818
GlyphClass: 2
Flags: W
AnchorPoint: "Anchor-3" 412 700 basechar 0
AnchorPoint: "Anchor-0" 411 0 basechar 0
LayerCount: 2
Fore
SplineSet
115 0 m 1,0,-1
 115 700 l 1,1,-1
 211 700 l 1,2,-1
 211 529 l 1,3,-1
 183 545 l 1,4,5
 216 630 216 630 282.5 669 c 128,-1,6
 349 708 349 708 441 708 c 0,7,8
 566 708 566 708 637.5 632.5 c 128,-1,9
 709 557 709 557 709 415 c 2,10,-1
 709 0 l 1,11,-1
 610 0 l 1,12,-1
 610 412 l 2,13,14
 610 516 610 516 559 567.5 c 128,-1,15
 508 619 508 619 421 619 c 0,16,17
 328 619 328 619 271.5 564.5 c 128,-1,18
 215 510 215 510 215 397 c 2,19,-1
 215 0 l 1,20,-1
 115 0 l 1,0,-1
EndSplineSet
EndChar

StartChar: Eng.ss01
Encoding: 65668 -1 494
Width: 818
GlyphClass: 2
Flags: W
AnchorPoint: "Anchor-3" 443 700 basechar 0
AnchorPoint: "Anchor-0" 409 -194 basechar 0
LayerCount: 2
Fore
SplineSet
492 -200 m 0,0,1
 438 -200 438 -200 390.5 -179.5 c 128,-1,2
 343 -159 343 -159 310 -121 c 1,3,-1
 359 -46 l 1,4,5
 383 -78 383 -78 416.5 -95.5 c 128,-1,6
 450 -113 450 -113 491 -113 c 0,7,8
 610 -113 610 -113 610 31 c 2,9,-1
 610 412 l 2,10,11
 610 516 610 516 559 567.5 c 128,-1,12
 508 619 508 619 421 619 c 0,13,14
 328 619 328 619 271.5 564.5 c 128,-1,15
 215 510 215 510 215 397 c 2,16,-1
 215 0 l 1,17,-1
 115 0 l 1,18,-1
 115 700 l 1,19,-1
 211 700 l 1,20,-1
 211 529 l 1,21,-1
 183 545 l 1,22,23
 216 630 216 630 282.5 669 c 128,-1,24
 349 708 349 708 441 708 c 0,25,26
 566 708 566 708 637.5 632.5 c 128,-1,27
 709 557 709 557 709 415 c 2,28,-1
 709 34 l 2,29,30
 709 -84 709 -84 654 -142 c 128,-1,31
 599 -200 599 -200 492 -200 c 0,0,1
EndSplineSet
EndChar

StartChar: Q.ss01
Encoding: 65669 -1 495
Width: 860
GlyphClass: 1
Flags: W
LayerCount: 2
Fore
SplineSet
431 -8 m 256,0,1
 351 -8 351 -8 282.5 19 c 128,-1,2
 214 46 214 46 164 94.5 c 128,-1,3
 114 143 114 143 86 208 c 128,-1,4
 58 273 58 273 58 350 c 256,5,6
 58 427 58 427 86 492 c 128,-1,7
 114 557 114 557 164 605.5 c 128,-1,8
 214 654 214 654 282 681 c 128,-1,9
 350 708 350 708 431 708 c 0,10,11
 511 708 511 708 578.5 681.5 c 128,-1,12
 646 655 646 655 696.5 606.5 c 128,-1,13
 747 558 747 558 774.5 493 c 128,-1,14
 802 428 802 428 802 350 c 256,15,16
 802 272 802 272 774.5 207 c 128,-1,17
 747 142 747 142 696.5 93.5 c 128,-1,18
 646 45 646 45 578.5 18.5 c 128,-1,19
 511 -8 511 -8 431 -8 c 256,0,1
380 -135 m 1,20,-1
 380 11 l 1,21,-1
 383 44 l 1,22,-1
 383 250 l 1,23,-1
 476 250 l 1,24,-1
 476 44 l 1,25,-1
 480 11 l 1,26,-1
 480 -135 l 1,27,-1
 380 -135 l 1,20,-1
431 81 m 0,28,29
 489 81 489 81 538.5 101 c 128,-1,30
 588 121 588 121 624.5 158 c 128,-1,31
 661 195 661 195 681.5 244 c 128,-1,32
 702 293 702 293 702 350 c 0,33,34
 702 408 702 408 681.5 457 c 128,-1,35
 661 506 661 506 624.5 542.5 c 128,-1,36
 588 579 588 579 538.5 599 c 128,-1,37
 489 619 489 619 431 619 c 0,38,39
 372 619 372 619 322.5 599 c 128,-1,40
 273 579 273 579 236 542.5 c 128,-1,41
 199 506 199 506 178.5 457 c 128,-1,42
 158 408 158 408 158 350 c 0,43,44
 158 293 158 293 178.5 244 c 128,-1,45
 199 195 199 195 236 158 c 128,-1,46
 273 121 273 121 322.5 101 c 128,-1,47
 372 81 372 81 431 81 c 0,28,29
EndSplineSet
EndChar

StartChar: T.ss01
Encoding: 65670 -1 496
Width: 618
GlyphClass: 2
Flags: W
AnchorPoint: "Anchor-3" 311 700 basechar 0
AnchorPoint: "Anchor-1" 309 358 basechar 0
AnchorPoint: "Anchor-0" 309 0 basechar 0
LayerCount: 2
Fore
SplineSet
41 549 m 1,0,-1
 6 628 l 1,1,2
 76 669 76 669 153 688.5 c 128,-1,3
 230 708 230 708 308 708 c 0,4,5
 387 708 387 708 465 688.5 c 128,-1,6
 543 669 543 669 612 628 c 1,7,-1
 577 549 l 1,8,9
 515 585 515 585 447.5 602.5 c 128,-1,10
 380 620 380 620 308 620 c 0,11,12
 238 620 238 620 171 602.5 c 128,-1,13
 104 585 104 585 41 549 c 1,0,-1
260 0 m 1,14,-1
 260 655 l 1,15,-1
 359 655 l 1,16,-1
 359 0 l 1,17,-1
 260 0 l 1,14,-1
EndSplineSet
EndChar

StartChar: Tbar.ss01
Encoding: 65671 -1 497
Width: 618
GlyphClass: 2
Flags: W
AnchorPoint: "Anchor-3" 311 700 basechar 0
AnchorPoint: "Anchor-1" 309 358 basechar 0
AnchorPoint: "Anchor-0" 309 0 basechar 0
LayerCount: 2
Fore
SplineSet
41 549 m 1,0,-1
 6 628 l 1,1,2
 76 669 76 669 153 688.5 c 128,-1,3
 230 708 230 708 308 708 c 0,4,5
 387 708 387 708 465 688.5 c 128,-1,6
 543 669 543 669 612 628 c 1,7,-1
 577 549 l 1,8,9
 515 585 515 585 447.5 602.5 c 128,-1,10
 380 620 380 620 308 620 c 0,11,12
 238 620 238 620 171 602.5 c 128,-1,13
 104 585 104 585 41 549 c 1,0,-1
260 0 m 1,14,-1
 260 655 l 1,15,-1
 359 655 l 1,16,-1
 359 0 l 1,17,-1
 260 0 l 1,14,-1
107 319 m 1,18,-1
 107 398 l 1,19,-1
 512 398 l 1,20,-1
 512 319 l 1,21,-1
 107 319 l 1,18,-1
EndSplineSet
EndChar

StartChar: uni023E.ss01
Encoding: 65676 -1 502
Width: 618
GlyphClass: 2
Flags: W
AnchorPoint: "Anchor-3" 310 700 basechar 0
AnchorPoint: "Anchor-1" 310 341 basechar 0
AnchorPoint: "Anchor-0" 310 0 basechar 0
LayerCount: 2
Fore
SplineSet
114 -70 m 1,0,-1
 493 770 l 1,1,-1
 572 770 l 1,2,-1
 193 -70 l 1,3,-1
 114 -70 l 1,0,-1
41 549 m 1,4,-1
 6 628 l 1,5,6
 76 669 76 669 153 688.5 c 128,-1,7
 230 708 230 708 308 708 c 0,8,9
 387 708 387 708 465 688.5 c 128,-1,10
 543 669 543 669 612 628 c 1,11,-1
 577 549 l 1,12,13
 515 585 515 585 447.5 602.5 c 128,-1,14
 380 620 380 620 308 620 c 0,15,16
 238 620 238 620 171 602.5 c 128,-1,17
 104 585 104 585 41 549 c 1,4,-1
261 0 m 1,18,-1
 261 655 l 1,19,-1
 357 655 l 1,20,-1
 357 0 l 1,21,-1
 261 0 l 1,18,-1
EndSplineSet
EndChar

StartChar: uni01AC.ss01
Encoding: 65679 -1 505
Width: 631
GlyphClass: 2
Flags: W
AnchorPoint: "Anchor-3" 323 700 basechar 0
AnchorPoint: "Anchor-1" 323 339 basechar 0
AnchorPoint: "Anchor-0" 323 0 basechar 0
LayerCount: 2
Fore
SplineSet
69 373 m 1,0,1
 33 410 33 410 17 454.5 c 128,-1,2
 1 499 1 499 8.5 544 c 128,-1,3
 16 589 16 589 51 625.5 c 128,-1,4
 86 662 86 662 151.5 685 c 128,-1,5
 217 708 217 708 317 708 c 0,6,7
 401 708 401 708 477.5 689.5 c 128,-1,8
 554 671 554 671 626 628 c 1,9,-1
 591 549 l 1,10,11
 545 575 545 575 501.5 590.5 c 128,-1,12
 458 606 458 606 412.5 613 c 128,-1,13
 367 620 367 620 316 620 c 0,14,15
 221 620 221 620 169.5 600.5 c 128,-1,16
 118 581 118 581 101.5 550 c 128,-1,17
 85 519 85 519 95 485 c 128,-1,18
 105 451 105 451 134 419 c 1,19,-1
 69 373 l 1,0,1
273 0 m 1,20,-1
 273 655 l 1,21,-1
 373 655 l 1,22,-1
 373 0 l 1,23,-1
 273 0 l 1,20,-1
EndSplineSet
EndChar

StartChar: uni01AE.ss01
Encoding: 65681 -1 507
Width: 642
GlyphClass: 2
Flags: W
AnchorPoint: "Anchor-3" 321 700 basechar 0
AnchorPoint: "Anchor-1" 321 339 basechar 0
AnchorPoint: "Anchor-0" 321 0 basechar 0
LayerCount: 2
Fore
SplineSet
553 -166 m 1,0,1
 510 -192 510 -192 461.5 -198 c 128,-1,2
 413 -204 413 -204 369.5 -189 c 128,-1,3
 326 -174 326 -174 298.5 -135.5 c 128,-1,4
 271 -97 271 -97 271 -36 c 2,5,-1
 271 628 l 1,6,-1
 370 628 l 1,7,-1
 370 -33 l 2,8,9
 370 -64 370 -64 384 -83.5 c 128,-1,10
 398 -103 398 -103 420 -110 c 128,-1,11
 442 -117 442 -117 468.5 -112.5 c 128,-1,12
 495 -108 495 -108 519 -92 c 1,13,-1
 553 -166 l 1,0,1
52 549 m 1,14,-1
 17 628 l 1,15,16
 87 669 87 669 164 688.5 c 128,-1,17
 241 708 241 708 320 708 c 256,18,19
 399 708 399 708 477 688.5 c 128,-1,20
 555 669 555 669 624 628 c 1,21,-1
 588 549 l 1,22,23
 527 585 527 585 459 602.5 c 128,-1,24
 391 620 391 620 320 620 c 256,25,26
 249 620 249 620 182 602.5 c 128,-1,27
 115 585 115 585 52 549 c 1,14,-1
EndSplineSet
EndChar

StartChar: uniA7B1.ss01
Encoding: 65682 -1 508
Width: 618
GlyphClass: 1
Flags: W
LayerCount: 2
Fore
SplineSet
577 151 m 1,0,-1
 612 72 l 1,1,2
 543 31 543 31 465.5 11.5 c 128,-1,3
 388 -8 388 -8 309 -8 c 0,4,5
 231 -8 231 -8 153 11.5 c 128,-1,6
 75 31 75 31 6 72 c 1,7,-1
 41 151 l 1,8,9
 103 115 103 115 170.5 97.5 c 128,-1,10
 238 80 238 80 309 80 c 256,11,12
 380 80 380 80 447 97.5 c 128,-1,13
 514 115 514 115 577 151 c 1,0,-1
358 700 m 1,14,-1
 358 45 l 1,15,-1
 259 45 l 1,16,-1
 259 700 l 1,17,-1
 358 700 l 1,14,-1
EndSplineSet
EndChar

StartChar: U.ss01
Encoding: 65683 -1 509
Width: 814
GlyphClass: 2
Flags: W
AnchorPoint: "Anchor-4" 664 700 basechar 0
AnchorPoint: "Anchor-3" 402 700 basechar 0
AnchorPoint: "Anchor-2" 699 0 basechar 0
AnchorPoint: "Anchor-1" 405 358 basechar 0
AnchorPoint: "Anchor-0" 402 0 basechar 0
LayerCount: 2
Fore
SplineSet
375 -8 m 0,0,1
 252 -8 252 -8 180.5 67.5 c 128,-1,2
 109 143 109 143 109 285 c 2,3,-1
 109 700 l 1,4,-1
 209 700 l 1,5,-1
 209 288 l 2,6,7
 209 184 209 184 260 132.5 c 128,-1,8
 311 81 311 81 396 81 c 0,9,10
 487 81 487 81 543.5 135.5 c 128,-1,11
 600 190 600 190 600 303 c 2,12,-1
 600 700 l 1,13,-1
 699 700 l 1,14,-1
 699 0 l 1,15,-1
 603 0 l 1,16,-1
 603 171 l 1,17,-1
 631 155 l 1,18,19
 599 70 599 70 533 31 c 128,-1,20
 467 -8 467 -8 375 -8 c 0,0,1
EndSplineSet
EndChar

StartChar: uni0244.ss01
Encoding: 65685 -1 511
Width: 821
GlyphClass: 2
Flags: W
AnchorPoint: "Anchor-4" 663 700 basechar 0
AnchorPoint: "Anchor-3" 401 700 basechar 0
AnchorPoint: "Anchor-2" 698 0 basechar 0
AnchorPoint: "Anchor-1" 404 358 basechar 0
AnchorPoint: "Anchor-0" 401 0 basechar 0
LayerCount: 2
Fore
SplineSet
374 -8 m 0,0,1
 251 -8 251 -8 179.5 67.5 c 128,-1,2
 108 143 108 143 108 285 c 2,3,-1
 108 700 l 1,4,-1
 208 700 l 1,5,-1
 208 288 l 2,6,7
 208 184 208 184 259 132.5 c 128,-1,8
 310 81 310 81 395 81 c 0,9,10
 486 81 486 81 542.5 135.5 c 128,-1,11
 599 190 599 190 599 303 c 2,12,-1
 599 700 l 1,13,-1
 698 700 l 1,14,-1
 698 0 l 1,15,-1
 602 0 l 1,16,-1
 602 171 l 1,17,-1
 631 155 l 1,18,19
 598 70 598 70 532 31 c 128,-1,20
 466 -8 466 -8 374 -8 c 0,0,1
5 319 m 1,21,-1
 5 398 l 1,22,-1
 801 398 l 1,23,-1
 801 319 l 1,24,-1
 5 319 l 1,21,-1
EndSplineSet
EndChar

StartChar: W.ss01
Encoding: 65715 -1 541
Width: 1210
GlyphClass: 2
Flags: W
AnchorPoint: "Anchor-3" 604 700 basechar 0
AnchorPoint: "Anchor-0" 605 0 basechar 0
LayerCount: 2
Fore
SplineSet
380 -8 m 0,0,1
 251 -8 251 -8 180 64 c 128,-1,2
 109 136 109 136 109 279 c 2,3,-1
 109 700 l 1,4,-1
 209 700 l 1,5,-1
 209 282 l 2,6,7
 209 175 209 175 254.5 128 c 128,-1,8
 300 81 300 81 380 81 c 0,9,10
 461 81 461 81 508 128 c 128,-1,11
 555 175 555 175 555 282 c 2,12,-1
 555 700 l 1,13,-1
 655 700 l 1,14,-1
 655 282 l 2,15,16
 655 175 655 175 702 128 c 128,-1,17
 749 81 749 81 829 81 c 256,18,19
 909 81 909 81 955 128 c 128,-1,20
 1001 175 1001 175 1001 282 c 2,21,-1
 1001 700 l 1,22,-1
 1101 700 l 1,23,-1
 1101 279 l 2,24,25
 1101 136 1101 136 1029.5 64 c 128,-1,26
 958 -8 958 -8 829 -8 c 0,27,28
 738 -8 738 -8 675 28.5 c 128,-1,29
 612 65 612 65 588 126 c 1,30,-1
 621 126 l 1,31,32
 596 65 596 65 534.5 28.5 c 128,-1,33
 473 -8 473 -8 380 -8 c 0,0,1
EndSplineSet
EndChar

StartChar: uni2C72.ss01
Encoding: 65722 -1 548
Width: 1211
GlyphClass: 2
Flags: W
AnchorPoint: "Anchor-3" 604 700 basechar 0
AnchorPoint: "Anchor-0" 605 0 basechar 0
LayerCount: 2
Fore
SplineSet
1101 587 m 2,0,-1
 1101 279 l 2,1,2
 1101 136 1101 136 1029.5 64 c 128,-1,3
 958 -8 958 -8 829 -8 c 0,4,5
 738 -8 738 -8 675 28.5 c 128,-1,6
 612 65 612 65 588 126 c 1,7,-1
 621 126 l 1,8,9
 596 65 596 65 534.5 28.5 c 128,-1,10
 473 -8 473 -8 380 -8 c 0,11,12
 251 -8 251 -8 180 64 c 128,-1,13
 109 136 109 136 109 279 c 2,14,-1
 109 700 l 1,15,-1
 209 700 l 1,16,-1
 209 282 l 2,17,18
 209 175 209 175 254.5 128 c 128,-1,19
 300 81 300 81 380 81 c 0,20,21
 461 81 461 81 508 128 c 128,-1,22
 555 175 555 175 555 282 c 2,23,-1
 555 700 l 1,24,-1
 655 700 l 1,25,-1
 655 282 l 2,26,27
 655 175 655 175 702 128 c 128,-1,28
 749 81 749 81 829 81 c 256,29,30
 909 81 909 81 955 128 c 128,-1,31
 1001 175 1001 175 1001 282 c 2,32,-1
 1001 587 l 2,33,34
 1001 630 1001 630 1015 662 c 128,-1,35
 1029 694 1029 694 1053 715 c 128,-1,36
 1077 736 1077 736 1108 746 c 128,-1,37
 1139 756 1139 756 1172.5 754.5 c 128,-1,38
 1206 753 1206 753 1239 739 c 1,39,-1
 1212 661 l 1,40,41
 1186 672 1186 672 1160 667 c 128,-1,42
 1134 662 1134 662 1117.5 642 c 128,-1,43
 1101 622 1101 622 1101 587 c 2,0,-1
EndSplineSet
EndChar

StartChar: Y.ss01
Encoding: 65723 -1 549
Width: 807
GlyphClass: 2
Flags: W
AnchorPoint: "Anchor-3" 401 700 basechar 0
AnchorPoint: "Anchor-2" 453 -100 basechar 0
AnchorPoint: "Anchor-0" 673 0 basechar 0
LayerCount: 2
Fore
SplineSet
393 -106 m 0,0,1
 302 -106 302 -106 230.5 -77 c 128,-1,2
 159 -48 159 -48 111 3 c 1,3,-1
 161 74 l 1,4,5
 207 29 207 29 264.5 6.5 c 128,-1,6
 322 -16 322 -16 393 -16 c 0,7,8
 493 -16 493 -16 546 38 c 128,-1,9
 599 92 599 92 599 204 c 2,10,-1
 599 346 l 1,11,-1
 630 335 l 1,12,13
 598 250 598 250 533.5 211.5 c 128,-1,14
 469 173 469 173 382 173 c 0,15,16
 252 173 252 173 178 248.5 c 128,-1,17
 104 324 104 324 104 466 c 2,18,-1
 104 700 l 1,19,-1
 204 700 l 1,20,-1
 204 470 l 2,21,22
 204 366 204 366 255 314 c 128,-1,23
 306 262 306 262 393 262 c 0,24,25
 486 262 486 262 542.5 316.5 c 128,-1,26
 599 371 599 371 599 485 c 2,27,-1
 599 700 l 1,28,-1
 698 700 l 1,29,-1
 698 208 l 2,30,31
 698 105 698 105 661 35.5 c 128,-1,32
 624 -34 624 -34 555.5 -70 c 128,-1,33
 487 -106 487 -106 393 -106 c 0,0,1
EndSplineSet
EndChar

StartChar: uni01B3.ss01
Encoding: 65730 -1 556
Width: 809
GlyphClass: 2
Flags: W
AnchorPoint: "Anchor-3" 401 700 basechar 0
AnchorPoint: "Anchor-0" 673 0 basechar 0
LayerCount: 2
Fore
SplineSet
393 -106 m 0,0,1
 303 -106 303 -106 231.5 -78 c 128,-1,2
 160 -50 160 -50 113 0 c 1,3,-1
 164 73 l 1,4,5
 208 28 208 28 265 6 c 128,-1,6
 322 -16 322 -16 393 -16 c 0,7,8
 493 -16 493 -16 546 38 c 128,-1,9
 599 92 599 92 599 204 c 2,10,-1
 599 346 l 1,11,-1
 630 335 l 1,12,13
 598 250 598 250 533.5 211.5 c 128,-1,14
 469 173 469 173 382 173 c 0,15,16
 252 173 252 173 178 248.5 c 128,-1,17
 104 324 104 324 104 466 c 2,18,-1
 104 700 l 1,19,-1
 204 700 l 1,20,-1
 204 470 l 2,21,22
 204 366 204 366 255 314 c 128,-1,23
 306 262 306 262 393 262 c 0,24,25
 486 262 486 262 542.5 316.5 c 128,-1,26
 599 371 599 371 599 485 c 2,27,-1
 599 588 l 2,28,29
 599 630 599 630 613 662 c 128,-1,30
 627 694 627 694 651 715.5 c 128,-1,31
 675 737 675 737 706 746.5 c 128,-1,32
 737 756 737 756 770.5 754.5 c 128,-1,33
 804 753 804 753 837 739 c 1,34,-1
 810 661 l 1,35,36
 783 672 783 672 757.5 667 c 128,-1,37
 732 662 732 662 715 642 c 128,-1,38
 698 622 698 622 698 588 c 2,39,-1
 698 208 l 2,40,41
 698 105 698 105 661 35.5 c 128,-1,42
 624 -34 624 -34 555.5 -70 c 128,-1,43
 487 -106 487 -106 393 -106 c 0,0,1
EndSplineSet
EndChar

StartChar: uni024E.ss01
Encoding: 65733 -1 559
Width: 805
GlyphClass: 2
Flags: W
AnchorPoint: "Anchor-3" 399 700 basechar 0
AnchorPoint: "Anchor-0" 671 0 basechar 0
LayerCount: 2
Fore
SplineSet
391 -106 m 0,0,1
 300 -106 300 -106 228.5 -77 c 128,-1,2
 157 -48 157 -48 109 3 c 1,3,-1
 159 74 l 1,4,5
 205 29 205 29 262.5 6.5 c 128,-1,6
 320 -16 320 -16 391 -16 c 0,7,8
 491 -16 491 -16 544 38 c 128,-1,9
 597 92 597 92 597 204 c 2,10,-1
 597 346 l 1,11,-1
 628 335 l 1,12,13
 596 250 596 250 531.5 211.5 c 128,-1,14
 467 173 467 173 380 173 c 0,15,16
 250 173 250 173 176 248.5 c 128,-1,17
 102 324 102 324 102 466 c 2,18,-1
 102 700 l 1,19,-1
 201 700 l 1,20,-1
 201 470 l 2,21,22
 201 366 201 366 252.5 314 c 128,-1,23
 304 262 304 262 391 262 c 0,24,25
 484 262 484 262 540.5 316.5 c 128,-1,26
 597 371 597 371 597 485 c 2,27,-1
 597 700 l 1,28,-1
 696 700 l 1,29,-1
 696 208 l 2,30,31
 696 105 696 105 659 35.5 c 128,-1,32
 622 -34 622 -34 553.5 -70 c 128,-1,33
 485 -106 485 -106 391 -106 c 0,0,1
-1 505 m 1,34,-1
 -1 584 l 1,35,-1
 799 584 l 1,36,-1
 799 505 l 1,37,-1
 -1 505 l 1,34,-1
EndSplineSet
EndChar

StartChar: Z.ss01
Encoding: 65735 -1 561
Width: 687
GlyphClass: 2
Flags: W
AnchorPoint: "Anchor-3" 348 700 basechar 0
AnchorPoint: "Anchor-0" 353 0 basechar 0
LayerCount: 2
Fore
SplineSet
58 0 m 1,0,-1
 58 62 l 1,1,-1
 526 652 l 1,2,-1
 537 613 l 1,3,-1
 62 613 l 1,4,-1
 62 700 l 1,5,-1
 628 700 l 1,6,-1
 628 639 l 1,7,-1
 161 48 l 1,8,-1
 149 87 l 1,9,-1
 643 87 l 1,10,-1
 643 0 l 1,11,-1
 58 0 l 1,0,-1
339 313 m 1,12,-1
 312 315 l 1,13,-1
 118 315 l 1,14,-1
 118 398 l 1,15,-1
 361 398 l 1,16,-1
 388 396 l 1,17,-1
 566 396 l 1,18,-1
 566 313 l 1,19,-1
 339 313 l 1,12,-1
EndSplineSet
EndChar

StartChar: uni01B2.loclTOD0.ss01
Encoding: 65746 -1 572
Width: 742
GlyphClass: 2
Flags: W
AnchorPoint: "Anchor-3" 366 700 basechar 0
AnchorPoint: "Anchor-0" 366 0 basechar 0
LayerCount: 2
Fore
SplineSet
318 0 m 1,0,-1
 9 700 l 1,1,-1
 117 700 l 1,2,-1
 388 77 l 1,3,-1
 349 77 l 1,4,-1
 628 715 l 2,5,6
 648 759 648 759 674.5 786 c 128,-1,7
 701 813 701 813 733 824 c 128,-1,8
 765 835 765 835 799 830.5 c 128,-1,9
 833 826 833 826 865 806 c 1,10,-1
 825 733 l 1,11,12
 795 751 795 751 764 741 c 128,-1,13
 733 731 733 731 714 687 c 2,14,-1
 416 0 l 1,15,-1
 318 0 l 1,0,-1
EndSplineSet
EndChar

StartChar: T_h
Encoding: 65747 -1 573
Width: 1221
GlyphClass: 3
LigCaretCntFixed: 1
Flags: W
AnchorPoint: "Anchor-8" 311 700 baselig 0
AnchorPoint: "Anchor-6" 311 350 baselig 0
AnchorPoint: "Anchor-5" 311 0 baselig 0
AnchorPoint: "Anchor-8" 911 700 baselig 1
AnchorPoint: "Anchor-5" 911 0 baselig 1
AnchorPoint: "Anchor-6" 911 350 baselig 1
LayerCount: 2
Fore
SplineSet
254 0 m 1,0,-1
 254 613 l 1,1,-1
 14 613 l 1,2,-1
 14 700 l 1,3,-1
 631 700 l 1,4,-1
 631 613 l 1,5,-1
 353 613 l 1,6,-1
 353 0 l 1,7,-1
 254 0 l 1,0,-1
622 0 m 1,8,-1
 622 700 l 1,9,-1
 718 700 l 1,10,-1
 718 387 l 1,11,-1
 698 425 l 1,12,13
 725 477 725 477 778.5 506 c 128,-1,14
 832 535 832 535 904 535 c 0,15,16
 969 535 969 535 1018.5 510 c 128,-1,17
 1068 485 1068 485 1096.5 434 c 128,-1,18
 1125 383 1125 383 1125 305 c 2,19,-1
 1125 0 l 1,20,-1
 1029 0 l 1,21,-1
 1029 294 l 2,22,23
 1029 371 1029 371 991.5 410 c 128,-1,24
 954 449 954 449 885 449 c 0,25,26
 835 449 835 449 797 429 c 128,-1,27
 759 409 759 409 738.5 370 c 128,-1,28
 718 331 718 331 718 273 c 2,29,-1
 718 0 l 1,30,-1
 622 0 l 1,8,-1
EndSplineSet
Ligature2: "'dlig' Discretionary Ligatures lookup 48 subtable" T h
LCarets2: 1 601
EndChar

StartChar: Iacute_J.loclNLD.ss01
Encoding: 65748 -1 574
Width: 740
GlyphClass: 2
LigCaretCntFixed: 1
Flags: W
LayerCount: 2
Fore
SplineSet
337 -106 m 0,0,1
 266 -106 266 -106 204.5 -85.5 c 128,-1,2
 143 -65 143 -65 97 -33 c 1,3,-1
 136 46 l 1,4,5
 179 15 179 15 230.5 -1 c 128,-1,6
 282 -17 282 -17 334 -17 c 0,7,8
 429 -17 429 -17 480 37 c 128,-1,9
 531 91 531 91 531 204 c 2,10,-1
 531 700 l 1,11,-1
 631 700 l 1,12,-1
 631 208 l 2,13,14
 631 105 631 105 594 35.5 c 128,-1,15
 557 -34 557 -34 491.5 -70 c 128,-1,16
 426 -106 426 -106 337 -106 c 0,0,1
109 209 m 1,17,-1
 109 700 l 1,18,-1
 209 700 l 1,19,-1
 209 209 l 1,20,-1
 109 209 l 1,17,-1
111 757 m 1,21,-1
 248 887 l 1,22,-1
 353 887 l 1,23,-1
 185 757 l 1,24,-1
 111 757 l 1,21,-1
533 757 m 1,25,-1
 670 887 l 1,26,-1
 775 887 l 1,27,-1
 607 757 l 1,28,-1
 533 757 l 1,25,-1
EndSplineSet
LCarets2: 1 360
EndChar

StartChar: uni026A
Encoding: 618 618 575
Width: 385
GlyphClass: 2
Flags: W
AnchorPoint: "Anchor-3" 193 530 basechar 0
AnchorPoint: "Anchor-2" 241 0 basechar 0
AnchorPoint: "Anchor-0" 193 0 basechar 0
LayerCount: 2
Fore
SplineSet
47 451 m 1,0,-1
 47 530 l 1,1,-1
 338 530 l 1,2,-1
 338 451 l 1,3,-1
 47 451 l 1,0,-1
47 0 m 1,4,-1
 47 79 l 1,5,-1
 338 79 l 1,6,-1
 338 0 l 1,7,-1
 47 0 l 1,4,-1
145 0 m 1,8,-1
 145 530 l 1,9,-1
 241 530 l 1,10,-1
 241 0 l 1,11,-1
 145 0 l 1,8,-1
EndSplineSet
Substitution2: "'smcp' Lowercase to Small Capitals lookup 46 subtable" uni026A.sc
Substitution2: "'aalt' Access All Alternates lookup 0 subtable" uni026A.sc
EndChar

StartChar: uni1D7B
Encoding: 7547 7547 576
Width: 422
GlyphClass: 2
Flags: W
AnchorPoint: "Anchor-3" 211 530 basechar 0
AnchorPoint: "Anchor-2" 259 0 basechar 0
AnchorPoint: "Anchor-0" 211 0 basechar 0
LayerCount: 2
Fore
SplineSet
66 451 m 1,0,-1
 66 530 l 1,1,-1
 356 530 l 1,2,-1
 356 451 l 1,3,-1
 66 451 l 1,0,-1
66 0 m 1,4,-1
 66 79 l 1,5,-1
 356 79 l 1,6,-1
 356 0 l 1,7,-1
 66 0 l 1,4,-1
163 0 m 1,8,-1
 163 530 l 1,9,-1
 259 530 l 1,10,-1
 259 0 l 1,11,-1
 163 0 l 1,8,-1
67 237 m 1,12,-1
 67 305 l 1,13,-1
 355 305 l 1,14,-1
 355 237 l 1,15,-1
 67 237 l 1,12,-1
EndSplineSet
Substitution2: "'smcp' Lowercase to Small Capitals lookup 46 subtable" uni1D7B.sc
Substitution2: "'aalt' Access All Alternates lookup 0 subtable" uni1D7B.sc
EndChar

StartChar: uni0274
Encoding: 628 628 577
Width: 682
GlyphClass: 2
Flags: W
AnchorPoint: "Anchor-3" 341 530 basechar 0
AnchorPoint: "Anchor-0" 341 0 basechar 0
LayerCount: 2
Fore
SplineSet
91 0 m 1,0,-1
 91 530 l 1,1,-1
 171 530 l 1,2,-1
 536 119 l 1,3,-1
 496 119 l 1,4,-1
 496 530 l 1,5,-1
 592 530 l 1,6,-1
 592 0 l 1,7,-1
 512 0 l 1,8,-1
 147 411 l 1,9,-1
 187 411 l 1,10,-1
 187 0 l 1,11,-1
 91 0 l 1,0,-1
EndSplineSet
Substitution2: "'smcp' Lowercase to Small Capitals lookup 46 subtable" uni0274.sc
Substitution2: "'aalt' Access All Alternates lookup 0 subtable" uni0274.sc
EndChar

StartChar: uni0280
Encoding: 640 640 578
Width: 627
GlyphClass: 2
Flags: W
AnchorPoint: "Anchor-3" 324 530 basechar 0
AnchorPoint: "Anchor-0" 324 0 basechar 0
LayerCount: 2
Fore
SplineSet
101 0 m 1,0,-1
 101 530 l 1,1,-1
 331 530 l 2,2,3
 443 530 443 530 507.5 480 c 128,-1,4
 572 430 572 430 572 342 c 0,5,6
 572 284 572 284 543 242 c 128,-1,7
 514 200 514 200 460 178 c 128,-1,8
 406 156 406 156 331 156 c 2,9,-1
 155 156 l 1,10,-1
 197 199 l 1,11,-1
 197 0 l 1,12,-1
 101 0 l 1,0,-1
477 0 m 1,13,-1
 332 192 l 1,14,-1
 435 192 l 1,15,-1
 582 0 l 1,16,-1
 477 0 l 1,13,-1
197 189 m 1,17,-1
 155 236 l 1,18,-1
 327 236 l 2,19,20
 400 236 400 236 437.5 264 c 128,-1,21
 475 292 475 292 475 342 c 0,22,23
 475 393 475 393 437.5 421 c 128,-1,24
 400 449 400 449 327 449 c 2,25,-1
 155 449 l 1,26,-1
 197 495 l 1,27,-1
 197 189 l 1,17,-1
EndSplineSet
Substitution2: "'smcp' Lowercase to Small Capitals lookup 46 subtable" uni0280.sc
Substitution2: "'aalt' Access All Alternates lookup 0 subtable" uni0280.sc
EndChar

StartChar: a
Encoding: 97 97 580
Width: 618
GlyphClass: 2
Flags: W
AnchorPoint: "Anchor-3" 301 530 basechar 0
AnchorPoint: "Anchor-2" 521 0 basechar 0
AnchorPoint: "Anchor-0" 299 0 basechar 0
LayerCount: 2
Fore
SplineSet
430 0 m 1,0,-1
 430 112 l 1,1,-1
 425 133 l 1,2,-1
 425 324 l 2,3,4
 425 385 425 385 389.5 418.5 c 128,-1,5
 354 452 354 452 283 452 c 0,6,7
 236 452 236 452 191 436.5 c 128,-1,8
 146 421 146 421 115 395 c 1,9,-1
 75 467 l 1,10,11
 116 500 116 500 173.5 517.5 c 128,-1,12
 231 535 231 535 294 535 c 0,13,14
 403 535 403 535 462 482 c 128,-1,15
 521 429 521 429 521 320 c 2,16,-1
 521 0 l 1,17,-1
 430 0 l 1,0,-1
256 -6 m 0,18,19
 197 -6 197 -6 152.5 14 c 128,-1,20
 108 34 108 34 84 69.5 c 128,-1,21
 60 105 60 105 60 150 c 0,22,23
 60 193 60 193 80.5 228 c 128,-1,24
 101 263 101 263 147.5 284 c 128,-1,25
 194 305 194 305 273 305 c 2,26,-1
 441 305 l 1,27,-1
 441 236 l 1,28,-1
 277 236 l 2,29,30
 205 236 205 236 180 212 c 128,-1,31
 155 188 155 188 155 154 c 0,32,33
 155 115 155 115 186 91.5 c 128,-1,34
 217 68 217 68 272 68 c 0,35,36
 326 68 326 68 366.5 92 c 128,-1,37
 407 116 407 116 425 162 c 1,38,-1
 444 96 l 1,39,40
 425 49 425 49 377 21.5 c 128,-1,41
 329 -6 329 -6 256 -6 c 0,18,19
EndSplineSet
Substitution2: "'ss01' Style Set 1 lookup 50 subtable" a.ss01
Substitution2: "'smcp' Lowercase to Small Capitals lookup 46 subtable" a.sc
Substitution2: "Single Substitution lookup 39 subtable" ordfeminine
AlternateSubs2: "'aalt' Access All Alternates lookup 1 subtable" ordfeminine a.sc a.ss01
EndChar

StartChar: uni2C65
Encoding: 11365 11365 611
Width: 618
GlyphClass: 2
Flags: W
AnchorPoint: "Anchor-3" 301 530 basechar 0
AnchorPoint: "Anchor-2" 521 0 basechar 0
AnchorPoint: "Anchor-0" 299 0 basechar 0
LayerCount: 2
Fore
SplineSet
430 0 m 1,0,-1
 430 112 l 1,1,-1
 425 133 l 1,2,-1
 425 324 l 2,3,4
 425 385 425 385 389.5 418.5 c 128,-1,5
 354 452 354 452 283 452 c 0,6,7
 236 452 236 452 191 436.5 c 128,-1,8
 146 421 146 421 115 395 c 1,9,-1
 75 467 l 1,10,11
 116 500 116 500 173.5 517.5 c 128,-1,12
 231 535 231 535 294 535 c 0,13,14
 403 535 403 535 462 482 c 128,-1,15
 521 429 521 429 521 320 c 2,16,-1
 521 0 l 1,17,-1
 430 0 l 1,0,-1
256 -6 m 0,18,19
 197 -6 197 -6 152.5 14 c 128,-1,20
 108 34 108 34 84 69.5 c 128,-1,21
 60 105 60 105 60 150 c 0,22,23
 60 193 60 193 80.5 228 c 128,-1,24
 101 263 101 263 147.5 284 c 128,-1,25
 194 305 194 305 273 305 c 2,26,-1
 441 305 l 1,27,-1
 441 236 l 1,28,-1
 277 236 l 2,29,30
 205 236 205 236 180 212 c 128,-1,31
 155 188 155 188 155 154 c 0,32,33
 155 115 155 115 186 91.5 c 128,-1,34
 217 68 217 68 272 68 c 0,35,36
 326 68 326 68 366.5 92 c 128,-1,37
 407 116 407 116 425 162 c 1,38,-1
 444 96 l 1,39,40
 425 49 425 49 377 21.5 c 128,-1,41
 329 -6 329 -6 256 -6 c 0,18,19
128 -80 m 1,42,-1
 409 609 l 1,43,-1
 475 609 l 1,44,-1
 194 -80 l 1,45,-1
 128 -80 l 1,42,-1
EndSplineSet
Substitution2: "'ss01' Style Set 1 lookup 50 subtable" uni2C65.ss01
Substitution2: "'smcp' Lowercase to Small Capitals lookup 46 subtable" uni2C65.sc
AlternateSubs2: "'aalt' Access All Alternates lookup 1 subtable" uni2C65.sc uni2C65.ss01
EndChar

StartChar: uni0250
Encoding: 592 592 613
Width: 618
GlyphClass: 2
Flags: W
AnchorPoint: "Anchor-3" 309 530 basechar 0
AnchorPoint: "Anchor-0" 309 0 basechar 0
LayerCount: 2
Fore
SplineSet
188 530 m 1,0,-1
 188 418 l 1,1,-1
 192 396 l 1,2,-1
 192 205 l 2,3,4
 192 144 192 144 228 111 c 128,-1,5
 264 78 264 78 334 78 c 0,6,7
 382 78 382 78 426.5 93 c 128,-1,8
 471 108 471 108 503 134 c 1,9,-1
 543 63 l 1,10,11
 502 30 502 30 444.5 12 c 128,-1,12
 387 -6 387 -6 323 -6 c 0,13,14
 215 -6 215 -6 155.5 48 c 128,-1,15
 96 102 96 102 96 210 c 2,16,-1
 96 530 l 1,17,-1
 188 530 l 1,0,-1
361 535 m 0,18,19
 422 535 422 535 466 515.5 c 128,-1,20
 510 496 510 496 534 461 c 128,-1,21
 558 426 558 426 558 379 c 0,22,23
 558 337 558 337 537.5 302 c 128,-1,24
 517 267 517 267 470.5 245.5 c 128,-1,25
 424 224 424 224 345 224 c 2,26,-1
 177 224 l 1,27,-1
 177 294 l 1,28,-1
 341 294 l 2,29,30
 412 294 412 294 437.5 317.5 c 128,-1,31
 463 341 463 341 463 376 c 0,32,33
 463 415 463 415 431.5 438 c 128,-1,34
 400 461 400 461 345 461 c 0,35,36
 292 461 292 461 251.5 437 c 128,-1,37
 211 413 211 413 192 367 c 1,38,-1
 174 434 l 1,39,40
 193 481 193 481 241 508 c 128,-1,41
 289 535 289 535 361 535 c 0,18,19
EndSplineSet
Substitution2: "'smcp' Lowercase to Small Capitals lookup 46 subtable" uni0250.sc
Substitution2: "'aalt' Access All Alternates lookup 0 subtable" uni0250.sc
EndChar

StartChar: ae
Encoding: 230 230 614
Width: 1009
GlyphClass: 2
Flags: W
AnchorPoint: "Anchor-3" 473 530 basechar 0
AnchorPoint: "Anchor-2" 758 0 basechar 0
AnchorPoint: "Anchor-0" 485 0 basechar 0
LayerCount: 2
Fore
SplineSet
266 -6 m 0,0,1
 169 -6 169 -6 114.5 38.5 c 128,-1,2
 60 83 60 83 60 154 c 0,3,4
 60 194 60 194 80.5 228 c 128,-1,5
 101 262 101 262 147.5 283 c 128,-1,6
 194 304 194 304 273 304 c 2,7,-1
 440 304 l 1,8,-1
 440 235 l 1,9,-1
 277 235 l 2,10,11
 206 235 206 235 180.5 211.5 c 128,-1,12
 155 188 155 188 155 156 c 0,13,14
 155 115 155 115 186.5 91.5 c 128,-1,15
 218 68 218 68 274 68 c 0,16,17
 345 68 345 68 385 104.5 c 128,-1,18
 425 141 425 141 425 201 c 2,19,-1
 425 324 l 2,20,21
 425 385 425 385 389.5 418.5 c 128,-1,22
 354 452 354 452 284 452 c 0,23,24
 236 452 236 452 191 436.5 c 128,-1,25
 146 421 146 421 115 395 c 1,26,-1
 75 467 l 1,27,28
 116 500 116 500 173.5 517.5 c 128,-1,29
 231 535 231 535 293 535 c 0,30,31
 385 535 385 535 439 498.5 c 128,-1,32
 493 462 493 462 508 391 c 1,33,-1
 462 397 l 1,34,35
 493 461 493 461 553.5 498 c 128,-1,36
 614 535 614 535 693 535 c 0,37,38
 750 535 750 535 798.5 515.5 c 128,-1,39
 847 496 847 496 882.5 460 c 128,-1,40
 918 424 918 424 937.5 375 c 128,-1,41
 957 326 957 326 957 268 c 0,42,43
 957 258 957 258 956.5 250 c 128,-1,44
 956 242 956 242 954 235 c 1,45,-1
 502 235 l 1,46,-1
 502 304 l 1,47,-1
 904 304 l 1,48,-1
 864 278 l 1,49,50
 864 335 864 335 840 374 c 128,-1,51
 816 413 816 413 776.5 433.5 c 128,-1,52
 737 454 737 454 692 454 c 0,53,54
 649 454 649 454 609.5 433.5 c 128,-1,55
 570 413 570 413 545.5 373.5 c 128,-1,56
 521 334 521 334 521 276 c 2,57,-1
 521 260 l 2,58,59
 521 207 521 207 545 165.5 c 128,-1,60
 569 124 569 124 612.5 101 c 128,-1,61
 656 78 656 78 714 78 c 0,62,63
 761 78 761 78 799 94 c 128,-1,64
 837 110 837 110 867 142 c 1,65,-1
 921 80 l 1,66,67
 884 37 884 37 830.5 15.5 c 128,-1,68
 777 -6 777 -6 711 -6 c 0,69,70
 650 -6 650 -6 596 13 c 128,-1,71
 542 32 542 32 502 72 c 128,-1,72
 462 112 462 112 440 175 c 1,73,-1
 502 173 l 1,74,75
 490 106 490 106 453.5 66.5 c 128,-1,76
 417 27 417 27 367.5 10.5 c 128,-1,77
 318 -6 318 -6 266 -6 c 0,0,1
EndSplineSet
Substitution2: "'ss01' Style Set 1 lookup 50 subtable" ae.ss01
Substitution2: "'smcp' Lowercase to Small Capitals lookup 46 subtable" ae.sc
AlternateSubs2: "'aalt' Access All Alternates lookup 1 subtable" ae.sc ae.ss01
EndChar

StartChar: b
Encoding: 98 98 617
Width: 702
GlyphClass: 2
Flags: W
AnchorPoint: "Anchor-3" 384 530 basechar 0
AnchorPoint: "Anchor-0" 384 0 basechar 0
LayerCount: 2
Fore
SplineSet
382 -6 m 0,0,1
 314 -6 314 -6 259.5 24.5 c 128,-1,2
 205 55 205 55 173.5 115 c 128,-1,3
 142 175 142 175 142 265 c 256,4,5
 142 355 142 355 174.5 415 c 128,-1,6
 207 475 207 475 261.5 505 c 128,-1,7
 316 535 316 535 382 535 c 0,8,9
 460 535 460 535 520 501 c 128,-1,10
 580 467 580 467 615 406.5 c 128,-1,11
 650 346 650 346 650 265 c 256,12,13
 650 184 650 184 615 123 c 128,-1,14
 580 62 580 62 520 28 c 128,-1,15
 460 -6 460 -6 382 -6 c 0,0,1
101 0 m 1,16,-1
 101 742 l 1,17,-1
 197 742 l 1,18,-1
 197 389 l 1,19,-1
 187 266 l 1,20,-1
 193 143 l 1,21,-1
 193 0 l 1,22,-1
 101 0 l 1,16,-1
374 78 m 0,23,24
 425 78 425 78 465.5 101 c 128,-1,25
 506 124 506 124 529.5 166.5 c 128,-1,26
 553 209 553 209 553 265 c 0,27,28
 553 322 553 322 529.5 363.5 c 128,-1,29
 506 405 506 405 465.5 428 c 128,-1,30
 425 451 425 451 374 451 c 0,31,32
 324 451 324 451 283.5 428 c 128,-1,33
 243 405 243 405 219.5 363.5 c 128,-1,34
 196 322 196 322 196 265 c 0,35,36
 196 209 196 209 219.5 166.5 c 128,-1,37
 243 124 243 124 283.5 101 c 128,-1,38
 324 78 324 78 374 78 c 0,23,24
EndSplineSet
Substitution2: "'smcp' Lowercase to Small Capitals lookup 46 subtable" b.sc
Substitution2: "'aalt' Access All Alternates lookup 0 subtable" b.sc
EndChar

StartChar: uniA7B5
Encoding: 42933 42933 620
Width: 696
GlyphClass: 1
Flags: W
LayerCount: 2
Fore
SplineSet
101 -194 m 1,0,-1
 101 494 l 2,1,2
 101 578 101 578 134 634.5 c 128,-1,3
 167 691 167 691 223.5 719.5 c 128,-1,4
 280 748 280 748 352 748 c 256,5,6
 424 748 424 748 476 722 c 128,-1,7
 528 696 528 696 556 651 c 128,-1,8
 584 606 584 606 584 550 c 0,9,10
 584 504 584 504 566.5 469 c 128,-1,11
 549 434 549 434 521 409.5 c 128,-1,12
 493 385 493 385 459.5 372 c 128,-1,13
 426 359 426 359 393 359 c 1,14,-1
 423 397 l 1,15,16
 485 397 485 397 535 374 c 128,-1,17
 585 351 585 351 614 307.5 c 128,-1,18
 643 264 643 264 643 199 c 0,19,20
 643 145 643 145 622 105.5 c 128,-1,21
 601 66 601 66 565.5 41.5 c 128,-1,22
 530 17 530 17 484.5 5 c 128,-1,23
 439 -7 439 -7 390 -7 c 0,24,25
 324 -7 324 -7 263.5 13.5 c 128,-1,26
 203 34 203 34 161 71 c 1,27,-1
 194 144 l 1,28,29
 231 111 231 111 283 93.5 c 128,-1,30
 335 76 335 76 385 76 c 0,31,32
 428 76 428 76 464.5 89.5 c 128,-1,33
 501 103 501 103 524 131.5 c 128,-1,34
 547 160 547 160 547 204 c 0,35,36
 547 265 547 265 502.5 297.5 c 128,-1,37
 458 330 458 330 387 330 c 2,38,-1
 330 330 l 1,39,-1
 330 411 l 1,40,41
 406 412 406 412 448.5 448.5 c 128,-1,42
 491 485 491 485 491 545 c 0,43,44
 491 599 491 599 455 631.5 c 128,-1,45
 419 664 419 664 352 664 c 0,46,47
 280 664 280 664 238.5 623 c 128,-1,48
 197 582 197 582 197 502 c 2,49,-1
 197 -194 l 1,50,-1
 101 -194 l 1,0,-1
EndSplineSet
Substitution2: "'smcp' Lowercase to Small Capitals lookup 46 subtable" uniA7B5.sc
Substitution2: "'aalt' Access All Alternates lookup 0 subtable" uniA7B5.sc
EndChar

StartChar: uni0253
Encoding: 595 595 621
Width: 704
GlyphClass: 1
Flags: W
LayerCount: 2
Fore
SplineSet
384 -6 m 0,0,1
 316 -6 316 -6 261.5 24.5 c 128,-1,2
 207 55 207 55 175.5 115 c 128,-1,3
 144 175 144 175 144 265 c 256,4,5
 144 355 144 355 176.5 415 c 128,-1,6
 209 475 209 475 263.5 505 c 128,-1,7
 318 535 318 535 384 535 c 0,8,9
 462 535 462 535 522.5 501 c 128,-1,10
 583 467 583 467 617.5 406.5 c 128,-1,11
 652 346 652 346 652 265 c 256,12,13
 652 184 652 184 617.5 123 c 128,-1,14
 583 62 583 62 522.5 28 c 128,-1,15
 462 -6 462 -6 384 -6 c 0,0,1
104 0 m 1,16,-1
 104 577 l 2,17,18
 104 622 104 622 119 654.5 c 128,-1,19
 134 687 134 687 160 708 c 128,-1,20
 186 729 186 729 218 738.5 c 128,-1,21
 250 748 250 748 284 748 c 0,22,23
 326 748 326 748 365.5 735 c 128,-1,24
 405 722 405 722 431 699 c 1,25,-1
 384 631 l 1,26,27
 366 649 366 649 340 658 c 128,-1,28
 314 667 314 667 288 667 c 0,29,30
 252 667 252 667 226 646.5 c 128,-1,31
 200 626 200 626 200 576 c 2,32,-1
 200 389 l 1,33,-1
 190 266 l 1,34,-1
 195 143 l 1,35,-1
 195 0 l 1,36,-1
 104 0 l 1,16,-1
376 78 m 0,37,38
 427 78 427 78 467.5 101 c 128,-1,39
 508 124 508 124 531.5 166.5 c 128,-1,40
 555 209 555 209 555 265 c 0,41,42
 555 322 555 322 531.5 363.5 c 128,-1,43
 508 405 508 405 467.5 428 c 128,-1,44
 427 451 427 451 376 451 c 0,45,46
 326 451 326 451 285.5 428 c 128,-1,47
 245 405 245 405 221.5 363.5 c 128,-1,48
 198 322 198 322 198 265 c 0,49,50
 198 209 198 209 221.5 166.5 c 128,-1,51
 245 124 245 124 285.5 101 c 128,-1,52
 326 78 326 78 376 78 c 0,37,38
EndSplineSet
Substitution2: "'smcp' Lowercase to Small Capitals lookup 46 subtable" uni0253.sc
Substitution2: "'aalt' Access All Alternates lookup 0 subtable" uni0253.sc
EndChar

StartChar: uni0298
Encoding: 664 664 622
Width: 877
GlyphClass: 2
Flags: W
AnchorPoint: "Anchor-4" 648 700 basechar 0
AnchorPoint: "Anchor-3" 430 370 basechar 0
AnchorPoint: "Anchor-2" 508 0 basechar 0
AnchorPoint: "Anchor-1" 431 350 basechar 0
AnchorPoint: "Anchor-0" 431 0 basechar 0
LayerCount: 2
Fore
SplineSet
431 -8 m 256,0,1
 351 -8 351 -8 282.5 19 c 128,-1,2
 214 46 214 46 164 94.5 c 128,-1,3
 114 143 114 143 86 208 c 128,-1,4
 58 273 58 273 58 350 c 256,5,6
 58 427 58 427 86 492 c 128,-1,7
 114 557 114 557 164 605.5 c 128,-1,8
 214 654 214 654 282 681 c 128,-1,9
 350 708 350 708 431 708 c 0,10,11
 511 708 511 708 578.5 681.5 c 128,-1,12
 646 655 646 655 696.5 606.5 c 128,-1,13
 747 558 747 558 774.5 493 c 128,-1,14
 802 428 802 428 802 350 c 256,15,16
 802 272 802 272 774.5 207 c 128,-1,17
 747 142 747 142 696.5 93.5 c 128,-1,18
 646 45 646 45 578.5 18.5 c 128,-1,19
 511 -8 511 -8 431 -8 c 256,0,1
431 81 m 0,20,21
 489 81 489 81 538.5 101 c 128,-1,22
 588 121 588 121 624.5 157.5 c 128,-1,23
 661 194 661 194 681.5 243 c 128,-1,24
 702 292 702 292 702 350 c 256,25,26
 702 408 702 408 681.5 457 c 128,-1,27
 661 506 661 506 624.5 542.5 c 128,-1,28
 588 579 588 579 538.5 599 c 128,-1,29
 489 619 489 619 431 619 c 0,30,31
 372 619 372 619 322.5 599 c 128,-1,32
 273 579 273 579 236 542.5 c 128,-1,33
 199 506 199 506 178.5 457 c 128,-1,34
 158 408 158 408 158 350 c 256,35,36
 158 292 158 292 178.5 243 c 128,-1,37
 199 194 199 194 236 157.5 c 128,-1,38
 273 121 273 121 322.5 101 c 128,-1,39
 372 81 372 81 431 81 c 0,20,21
430 283 m 0,40,41
 401 283 401 283 381.5 302.5 c 128,-1,42
 362 322 362 322 362 351 c 0,43,44
 362 379 362 379 381.5 398.5 c 128,-1,45
 401 418 401 418 430 418 c 0,46,47
 458 418 458 418 477.5 398.5 c 128,-1,48
 497 379 497 379 497 351 c 0,49,50
 497 322 497 322 477.5 302.5 c 128,-1,51
 458 283 458 283 430 283 c 0,40,41
EndSplineSet
Substitution2: "'smcp' Lowercase to Small Capitals lookup 46 subtable" uni0298.sc
Substitution2: "'aalt' Access All Alternates lookup 0 subtable" uni0298.sc
EndChar

StartChar: uni0180
Encoding: 384 384 624
Width: 714
GlyphClass: 1
Flags: W
LayerCount: 2
Fore
SplineSet
394 -6 m 0,0,1
 326 -6 326 -6 271.5 24.5 c 128,-1,2
 217 55 217 55 185 115 c 128,-1,3
 153 175 153 175 153 265 c 256,4,5
 153 355 153 355 185.5 415 c 128,-1,6
 218 475 218 475 273 505 c 128,-1,7
 328 535 328 535 394 535 c 0,8,9
 471 535 471 535 531.5 501 c 128,-1,10
 592 467 592 467 627 406.5 c 128,-1,11
 662 346 662 346 662 265 c 256,12,13
 662 184 662 184 627 123 c 128,-1,14
 592 62 592 62 531.5 28 c 128,-1,15
 471 -6 471 -6 394 -6 c 0,0,1
113 0 m 1,16,-1
 113 742 l 1,17,-1
 209 742 l 1,18,-1
 209 389 l 1,19,-1
 199 266 l 1,20,-1
 205 143 l 1,21,-1
 205 0 l 1,22,-1
 113 0 l 1,16,-1
386 78 m 256,23,24
 437 78 437 78 477 101 c 128,-1,25
 517 124 517 124 541 166.5 c 128,-1,26
 565 209 565 209 565 265 c 0,27,28
 565 322 565 322 541 363.5 c 128,-1,29
 517 405 517 405 477 428 c 128,-1,30
 437 451 437 451 386 451 c 256,31,32
 335 451 335 451 295 428 c 128,-1,33
 255 405 255 405 231 363.5 c 128,-1,34
 207 322 207 322 207 265 c 0,35,36
 207 209 207 209 231 166.5 c 128,-1,37
 255 124 255 124 295 101 c 128,-1,38
 335 78 335 78 386 78 c 256,23,24
17 601 m 1,39,-1
 17 669 l 1,40,-1
 383 669 l 1,41,-1
 383 601 l 1,42,-1
 17 601 l 1,39,-1
EndSplineSet
Substitution2: "'smcp' Lowercase to Small Capitals lookup 46 subtable" uni0180.sc
Substitution2: "'aalt' Access All Alternates lookup 0 subtable" uni0180.sc
EndChar

StartChar: uni0183
Encoding: 387 387 625
Width: 702
GlyphClass: 1
Flags: W
LayerCount: 2
Fore
SplineSet
382 -6 m 0,0,1
 314 -6 314 -6 259.5 24.5 c 128,-1,2
 205 55 205 55 173.5 115 c 128,-1,3
 142 175 142 175 142 265 c 256,4,5
 142 355 142 355 174.5 415 c 128,-1,6
 207 475 207 475 261.5 505 c 128,-1,7
 316 535 316 535 382 535 c 0,8,9
 460 535 460 535 520 501 c 128,-1,10
 580 467 580 467 615 406.5 c 128,-1,11
 650 346 650 346 650 265 c 256,12,13
 650 184 650 184 615 123 c 128,-1,14
 580 62 580 62 520 28 c 128,-1,15
 460 -6 460 -6 382 -6 c 0,0,1
101 0 m 1,16,-1
 101 742 l 1,17,-1
 197 742 l 1,18,-1
 197 389 l 1,19,-1
 187 266 l 1,20,-1
 193 143 l 1,21,-1
 193 0 l 1,22,-1
 101 0 l 1,16,-1
374 78 m 0,23,24
 425 78 425 78 465.5 101 c 128,-1,25
 506 124 506 124 529.5 166.5 c 128,-1,26
 553 209 553 209 553 265 c 0,27,28
 553 322 553 322 529.5 363.5 c 128,-1,29
 506 405 506 405 465.5 428 c 128,-1,30
 425 451 425 451 374 451 c 0,31,32
 324 451 324 451 283.5 428 c 128,-1,33
 243 405 243 405 219.5 363.5 c 128,-1,34
 196 322 196 322 196 265 c 0,35,36
 196 209 196 209 219.5 166.5 c 128,-1,37
 243 124 243 124 283.5 101 c 128,-1,38
 324 78 324 78 374 78 c 0,23,24
197 663 m 1,39,-1
 101 742 l 1,40,-1
 529 742 l 1,41,-1
 529 663 l 1,42,-1
 197 663 l 1,39,-1
EndSplineSet
Substitution2: "'smcp' Lowercase to Small Capitals lookup 46 subtable" uni0183.sc
Substitution2: "'aalt' Access All Alternates lookup 0 subtable" uni0183.sc
EndChar

StartChar: c
Encoding: 99 99 626
Width: 591
GlyphClass: 2
Flags: W
AnchorPoint: "Anchor-3" 317 530 basechar 0
AnchorPoint: "Anchor-1" 140 265 basechar 0
AnchorPoint: "Anchor-0" 317 0 basechar 0
LayerCount: 2
Fore
SplineSet
332 -6 m 0,0,1
 251 -6 251 -6 187.5 29 c 128,-1,2
 124 64 124 64 88 125 c 128,-1,3
 52 186 52 186 52 265 c 256,4,5
 52 344 52 344 88 405 c 128,-1,6
 124 466 124 466 187.5 500.5 c 128,-1,7
 251 535 251 535 332 535 c 0,8,9
 404 535 404 535 460.5 506.5 c 128,-1,10
 517 478 517 478 548 422 c 1,11,-1
 475 375 l 1,12,13
 449 414 449 414 411.5 432.5 c 128,-1,14
 374 451 374 451 331 451 c 0,15,16
 279 451 279 451 238 428 c 128,-1,17
 197 405 197 405 173 363.5 c 128,-1,18
 149 322 149 322 149 265 c 256,19,20
 149 208 149 208 173 166 c 128,-1,21
 197 124 197 124 238 101 c 128,-1,22
 279 78 279 78 331 78 c 0,23,24
 374 78 374 78 411.5 96.5 c 128,-1,25
 449 115 449 115 475 154 c 1,26,-1
 548 108 l 1,27,28
 517 53 517 53 460.5 23.5 c 128,-1,29
 404 -6 404 -6 332 -6 c 0,0,1
EndSplineSet
Substitution2: "'smcp' Lowercase to Small Capitals lookup 46 subtable" c.sc
Substitution2: "'aalt' Access All Alternates lookup 0 subtable" c.sc
EndChar

StartChar: uniA793
Encoding: 42899 42899 628
Width: 649
GlyphClass: 2
Flags: W
AnchorPoint: "Anchor-3" 375 530 basechar 0
AnchorPoint: "Anchor-1" 197 265 basechar 0
AnchorPoint: "Anchor-0" 375 0 basechar 0
LayerCount: 2
Fore
SplineSet
389 -6 m 0,0,1
 309 -6 309 -6 245.5 29 c 128,-1,2
 182 64 182 64 146 125 c 128,-1,3
 110 186 110 186 110 265 c 256,4,5
 110 344 110 344 146 405 c 128,-1,6
 182 466 182 466 245.5 500.5 c 128,-1,7
 309 535 309 535 389 535 c 0,8,9
 461 535 461 535 517.5 506.5 c 128,-1,10
 574 478 574 478 606 422 c 1,11,-1
 533 375 l 1,12,13
 507 414 507 414 469.5 432.5 c 128,-1,14
 432 451 432 451 388 451 c 0,15,16
 337 451 337 451 295.5 428 c 128,-1,17
 254 405 254 405 230.5 363.5 c 128,-1,18
 207 322 207 322 207 265 c 256,19,20
 207 208 207 208 230.5 166 c 128,-1,21
 254 124 254 124 295.5 101 c 128,-1,22
 337 78 337 78 388 78 c 0,23,24
 432 78 432 78 469.5 96.5 c 128,-1,25
 507 115 507 115 533 154 c 1,26,-1
 606 108 l 1,27,28
 574 53 574 53 517.5 23.5 c 128,-1,29
 461 -6 461 -6 389 -6 c 0,0,1
14 237 m 1,30,-1
 14 305 l 1,31,-1
 361 305 l 1,32,-1
 361 237 l 1,33,-1
 14 237 l 1,30,-1
EndSplineSet
Substitution2: "'smcp' Lowercase to Small Capitals lookup 46 subtable" uniA793.sc
Substitution2: "'aalt' Access All Alternates lookup 0 subtable" uniA793.sc
EndChar

StartChar: uniAB53
Encoding: 43859 43859 634
Width: 567
GlyphClass: 1
Flags: W
LayerCount: 2
Fore
SplineSet
652 -141 m 1,0,1
 634 -167 634 -167 603 -184 c 128,-1,2
 572 -201 572 -201 537.5 -202 c 128,-1,3
 503 -203 503 -203 471.5 -184.5 c 128,-1,4
 440 -166 440 -166 418 -123 c 2,5,-1
 289 129 l 1,6,-1
 262 169 l 1,7,-1
 128 419 l 2,8,9
 115 444 115 444 96.5 452.5 c 128,-1,10
 78 461 78 461 58.5 454.5 c 128,-1,11
 39 448 39 448 23 427 c 1,12,-1
 -32 476 l 1,13,14
 -13 503 -13 503 17 519.5 c 128,-1,15
 47 536 47 536 81 537 c 128,-1,16
 115 538 115 538 146.5 520 c 128,-1,17
 178 502 178 502 201 459 c 2,18,-1
 314 243 l 1,19,-1
 339 205 l 1,20,-1
 491 -83 l 2,21,22
 505 -107 505 -107 523 -116.5 c 128,-1,23
 541 -126 541 -126 561 -119.5 c 128,-1,24
 581 -113 581 -113 599 -92 c 1,25,-1
 652 -141 l 1,0,1
38 -194 m 1,26,-1
 272 217 l 1,27,-1
 283 219 l 1,28,-1
 456 530 l 1,29,-1
 557 530 l 1,30,-1
 334 154 l 1,31,-1
 323 148 l 1,32,-1
 136 -194 l 1,33,-1
 38 -194 l 1,26,-1
EndSplineSet
Substitution2: "'smcp' Lowercase to Small Capitals lookup 46 subtable" uniAB53.sc
Substitution2: "'aalt' Access All Alternates lookup 0 subtable" uniAB53.sc
EndChar

StartChar: uni0188
Encoding: 392 392 635
Width: 605
GlyphClass: 1
Flags: W
LayerCount: 2
Fore
SplineSet
548 422 m 1,0,-1
 457 423 l 1,1,-1
 457 595 l 2,2,3
 457 646 457 646 477 679.5 c 128,-1,4
 497 713 497 713 529.5 730.5 c 128,-1,5
 562 748 562 748 600.5 749 c 128,-1,6
 639 750 639 750 676 735 c 1,7,-1
 656 663 l 1,8,9
 630 674 630 674 605 670 c 128,-1,10
 580 666 580 666 564 647 c 128,-1,11
 548 628 548 628 548 595 c 2,12,-1
 548 422 l 1,0,-1
332 -6 m 0,13,14
 251 -6 251 -6 187.5 29 c 128,-1,15
 124 64 124 64 88 125 c 128,-1,16
 52 186 52 186 52 265 c 256,17,18
 52 344 52 344 88 405 c 128,-1,19
 124 466 124 466 187.5 500.5 c 128,-1,20
 251 535 251 535 332 535 c 0,21,22
 404 535 404 535 460.5 506.5 c 128,-1,23
 517 478 517 478 548 422 c 1,24,-1
 475 375 l 1,25,26
 449 414 449 414 411.5 432.5 c 128,-1,27
 374 451 374 451 331 451 c 0,28,29
 279 451 279 451 238 428 c 128,-1,30
 197 405 197 405 173 363.5 c 128,-1,31
 149 322 149 322 149 265 c 256,32,33
 149 208 149 208 173 166 c 128,-1,34
 197 124 197 124 238 101 c 128,-1,35
 279 78 279 78 331 78 c 0,36,37
 374 78 374 78 411.5 96.5 c 128,-1,38
 449 115 449 115 475 154 c 1,39,-1
 548 108 l 1,40,41
 517 53 517 53 460.5 23.5 c 128,-1,42
 404 -6 404 -6 332 -6 c 0,13,14
EndSplineSet
Substitution2: "'smcp' Lowercase to Small Capitals lookup 46 subtable" uni0188.sc
Substitution2: "'aalt' Access All Alternates lookup 0 subtable" uni0188.sc
EndChar

StartChar: uni023C
Encoding: 572 572 637
Width: 591
GlyphClass: 2
Flags: W
AnchorPoint: "Anchor-3" 317 530 basechar 0
AnchorPoint: "Anchor-1" 140 265 basechar 0
AnchorPoint: "Anchor-0" 317 0 basechar 0
LayerCount: 2
Fore
SplineSet
332 -6 m 0,0,1
 251 -6 251 -6 187.5 29 c 128,-1,2
 124 64 124 64 88 125 c 128,-1,3
 52 186 52 186 52 265 c 256,4,5
 52 344 52 344 88 405 c 128,-1,6
 124 466 124 466 187.5 500.5 c 128,-1,7
 251 535 251 535 332 535 c 0,8,9
 404 535 404 535 460.5 506.5 c 128,-1,10
 517 478 517 478 548 422 c 1,11,-1
 475 375 l 1,12,13
 449 414 449 414 411.5 432.5 c 128,-1,14
 374 451 374 451 331 451 c 0,15,16
 279 451 279 451 238 428 c 128,-1,17
 197 405 197 405 173 363.5 c 128,-1,18
 149 322 149 322 149 265 c 256,19,20
 149 208 149 208 173 166 c 128,-1,21
 197 124 197 124 238 101 c 128,-1,22
 279 78 279 78 331 78 c 0,23,24
 374 78 374 78 411.5 96.5 c 128,-1,25
 449 115 449 115 475 154 c 1,26,-1
 548 108 l 1,27,28
 517 53 517 53 460.5 23.5 c 128,-1,29
 404 -6 404 -6 332 -6 c 0,0,1
146 -80 m 1,30,-1
 428 609 l 1,31,-1
 494 609 l 1,32,-1
 211 -80 l 1,33,-1
 146 -80 l 1,30,-1
EndSplineSet
Substitution2: "'smcp' Lowercase to Small Capitals lookup 46 subtable" uni023C.sc
Substitution2: "'aalt' Access All Alternates lookup 0 subtable" uni023C.sc
EndChar

StartChar: d
Encoding: 100 100 638
Width: 702
GlyphClass: 2
Flags: W
AnchorPoint: "Anchor-4" 691 742 basechar 0
AnchorPoint: "Anchor-3" 320 530 basechar 0
AnchorPoint: "Anchor-1" 494 634 basechar 0
AnchorPoint: "Anchor-0" 357 0 basechar 0
LayerCount: 2
Fore
SplineSet
320 -6 m 0,0,1
 243 -6 243 -6 182.5 28 c 128,-1,2
 122 62 122 62 87 123 c 128,-1,3
 52 184 52 184 52 265 c 256,4,5
 52 346 52 346 87 406.5 c 128,-1,6
 122 467 122 467 182.5 501 c 128,-1,7
 243 535 243 535 320 535 c 0,8,9
 387 535 387 535 441 505 c 128,-1,10
 495 475 495 475 527.5 415 c 128,-1,11
 560 355 560 355 560 265 c 256,12,13
 560 175 560 175 528.5 115 c 128,-1,14
 497 55 497 55 443 24.5 c 128,-1,15
 389 -6 389 -6 320 -6 c 0,0,1
328 78 m 0,16,17
 378 78 378 78 418.5 101 c 128,-1,18
 459 124 459 124 482.5 166.5 c 128,-1,19
 506 209 506 209 506 265 c 0,20,21
 506 322 506 322 482.5 363.5 c 128,-1,22
 459 405 459 405 418.5 428 c 128,-1,23
 378 451 378 451 328 451 c 0,24,25
 277 451 277 451 237 428 c 128,-1,26
 197 405 197 405 173 363.5 c 128,-1,27
 149 322 149 322 149 265 c 0,28,29
 149 209 149 209 173 166.5 c 128,-1,30
 197 124 197 124 237 101 c 128,-1,31
 277 78 277 78 328 78 c 0,16,17
509 0 m 1,32,-1
 509 143 l 1,33,-1
 515 266 l 1,34,-1
 505 389 l 1,35,-1
 505 742 l 1,36,-1
 601 742 l 1,37,-1
 601 0 l 1,38,-1
 509 0 l 1,32,-1
EndSplineSet
Substitution2: "'smcp' Lowercase to Small Capitals lookup 46 subtable" d.sc
Substitution2: "'aalt' Access All Alternates lookup 0 subtable" d.sc
EndChar

StartChar: uni0257
Encoding: 599 599 645
Width: 692
GlyphClass: 2
Flags: W
AnchorPoint: "Anchor-4" 691 742 basechar 0
AnchorPoint: "Anchor-1" 494 634 basechar 0
AnchorPoint: "Anchor-0" 357 0 basechar 0
LayerCount: 2
Fore
SplineSet
320 -6 m 0,0,1
 243 -6 243 -6 182.5 28 c 128,-1,2
 122 62 122 62 87 123 c 128,-1,3
 52 184 52 184 52 265 c 256,4,5
 52 346 52 346 87 406.5 c 128,-1,6
 122 467 122 467 182.5 501 c 128,-1,7
 243 535 243 535 320 535 c 0,8,9
 387 535 387 535 441 505 c 128,-1,10
 495 475 495 475 527.5 415 c 128,-1,11
 560 355 560 355 560 265 c 256,12,13
 560 175 560 175 528.5 115 c 128,-1,14
 497 55 497 55 443 24.5 c 128,-1,15
 389 -6 389 -6 320 -6 c 0,0,1
328 78 m 0,16,17
 378 78 378 78 418.5 101 c 128,-1,18
 459 124 459 124 482.5 166.5 c 128,-1,19
 506 209 506 209 506 265 c 0,20,21
 506 322 506 322 482.5 363.5 c 128,-1,22
 459 405 459 405 418.5 428 c 128,-1,23
 378 451 378 451 328 451 c 0,24,25
 277 451 277 451 237 428 c 128,-1,26
 197 405 197 405 173 363.5 c 128,-1,27
 149 322 149 322 149 265 c 0,28,29
 149 209 149 209 173 166.5 c 128,-1,30
 197 124 197 124 237 101 c 128,-1,31
 277 78 277 78 328 78 c 0,16,17
509 0 m 1,32,-1
 509 143 l 1,33,-1
 515 266 l 1,34,-1
 505 389 l 1,35,-1
 505 595 l 2,36,37
 505 647 505 647 524.5 681.5 c 128,-1,38
 544 716 544 716 577 733 c 128,-1,39
 610 750 610 750 650 749.5 c 128,-1,40
 690 749 690 749 730 732 c 1,41,-1
 706 660 l 1,42,43
 683 674 683 674 658.5 671.5 c 128,-1,44
 634 669 634 669 617.5 652 c 128,-1,45
 601 635 601 635 601 602 c 2,46,-1
 601 0 l 1,47,-1
 509 0 l 1,32,-1
EndSplineSet
Substitution2: "'smcp' Lowercase to Small Capitals lookup 46 subtable" uni0257.sc
Substitution2: "'aalt' Access All Alternates lookup 0 subtable" uni0257.sc
EndChar

StartChar: uni1D91
Encoding: 7569 7569 646
Width: 698
GlyphClass: 1
Flags: W
LayerCount: 2
Fore
SplineSet
320 -6 m 0,0,1
 243 -6 243 -6 182.5 28 c 128,-1,2
 122 62 122 62 87 123 c 128,-1,3
 52 184 52 184 52 265 c 256,4,5
 52 346 52 346 87 406.5 c 128,-1,6
 122 467 122 467 182.5 501 c 128,-1,7
 243 535 243 535 320 535 c 0,8,9
 387 535 387 535 441 505 c 128,-1,10
 495 475 495 475 527.5 415 c 128,-1,11
 560 355 560 355 560 265 c 256,12,13
 560 175 560 175 528.5 115 c 128,-1,14
 497 55 497 55 443 24.5 c 128,-1,15
 389 -6 389 -6 320 -6 c 0,0,1
328 78 m 0,16,17
 378 78 378 78 418.5 101 c 128,-1,18
 459 124 459 124 482.5 166.5 c 128,-1,19
 506 209 506 209 506 265 c 0,20,21
 506 322 506 322 482.5 363.5 c 128,-1,22
 459 405 459 405 418.5 428 c 128,-1,23
 378 451 378 451 328 451 c 0,24,25
 277 451 277 451 237 428 c 128,-1,26
 197 405 197 405 173 363.5 c 128,-1,27
 149 322 149 322 149 265 c 0,28,29
 149 209 149 209 173 166.5 c 128,-1,30
 197 124 197 124 237 101 c 128,-1,31
 277 78 277 78 328 78 c 0,16,17
505 143 m 1,32,-1
 515 266 l 1,33,-1
 505 389 l 1,34,-1
 505 587 l 2,35,36
 505 629 505 629 518 660 c 128,-1,37
 531 691 531 691 553.5 710.5 c 128,-1,38
 576 730 576 730 605.5 739.5 c 128,-1,39
 635 749 635 749 668 748.5 c 128,-1,40
 701 748 701 748 735 736 c 1,41,-1
 716 661 l 1,42,43
 670 679 670 679 635.5 659 c 128,-1,44
 601 639 601 639 601 587 c 2,45,-1
 601 -39 l 2,46,47
 601 -90 601 -90 635.5 -110 c 128,-1,48
 670 -130 670 -130 716 -113 c 1,49,-1
 735 -188 l 1,50,51
 701 -200 701 -200 668 -200.5 c 128,-1,52
 635 -201 635 -201 605.5 -191.5 c 128,-1,53
 576 -182 576 -182 553.5 -162.5 c 128,-1,54
 531 -143 531 -143 518 -112 c 128,-1,55
 505 -81 505 -81 505 -39 c 2,56,-1
 505 143 l 1,32,-1
EndSplineSet
Substitution2: "'smcp' Lowercase to Small Capitals lookup 46 subtable" uni1D91.sc
Substitution2: "'aalt' Access All Alternates lookup 0 subtable" uni1D91.sc
EndChar

StartChar: uni0256
Encoding: 598 598 648
Width: 698
GlyphClass: 1
Flags: W
LayerCount: 2
Fore
SplineSet
320 -6 m 0,0,1
 243 -6 243 -6 182.5 28 c 128,-1,2
 122 62 122 62 87 123 c 128,-1,3
 52 184 52 184 52 265 c 256,4,5
 52 346 52 346 87 406.5 c 128,-1,6
 122 467 122 467 182.5 501 c 128,-1,7
 243 535 243 535 320 535 c 0,8,9
 387 535 387 535 441 505 c 128,-1,10
 495 475 495 475 527.5 415 c 128,-1,11
 560 355 560 355 560 265 c 256,12,13
 560 175 560 175 528.5 115 c 128,-1,14
 497 55 497 55 443 24.5 c 128,-1,15
 389 -6 389 -6 320 -6 c 0,0,1
328 78 m 0,16,17
 378 78 378 78 418.5 101 c 128,-1,18
 459 124 459 124 482.5 166.5 c 128,-1,19
 506 209 506 209 506 265 c 0,20,21
 506 322 506 322 482.5 363.5 c 128,-1,22
 459 405 459 405 418.5 428 c 128,-1,23
 378 451 378 451 328 451 c 0,24,25
 277 451 277 451 237 428 c 128,-1,26
 197 405 197 405 173 363.5 c 128,-1,27
 149 322 149 322 149 265 c 0,28,29
 149 209 149 209 173 166.5 c 128,-1,30
 197 124 197 124 237 101 c 128,-1,31
 277 78 277 78 328 78 c 0,16,17
505 49 m 1,32,-1
 509 148 l 1,33,-1
 523 266 l 1,34,-1
 505 389 l 1,35,-1
 505 742 l 1,36,-1
 601 742 l 1,37,-1
 601 -41 l 2,38,39
 601 -92 601 -92 635.5 -112 c 128,-1,40
 670 -132 670 -132 716 -114 c 1,41,-1
 735 -190 l 1,42,43
 701 -202 701 -202 668 -202.5 c 128,-1,44
 635 -203 635 -203 605.5 -193.5 c 128,-1,45
 576 -184 576 -184 553.5 -164 c 128,-1,46
 531 -144 531 -144 518 -113 c 128,-1,47
 505 -82 505 -82 505 -41 c 2,48,-1
 505 49 l 1,32,-1
EndSplineSet
Substitution2: "'smcp' Lowercase to Small Capitals lookup 46 subtable" uni0256.sc
Substitution2: "'aalt' Access All Alternates lookup 0 subtable" uni0256.sc
EndChar

StartChar: uni018C
Encoding: 396 396 649
Width: 702
GlyphClass: 2
Flags: W
AnchorPoint: "Anchor-4" 691 742 basechar 0
AnchorPoint: "Anchor-1" 494 634 basechar 0
AnchorPoint: "Anchor-0" 357 0 basechar 0
LayerCount: 2
Fore
SplineSet
320 -6 m 0,0,1
 243 -6 243 -6 182.5 28 c 128,-1,2
 122 62 122 62 87 123 c 128,-1,3
 52 184 52 184 52 265 c 256,4,5
 52 346 52 346 87 406.5 c 128,-1,6
 122 467 122 467 182.5 501 c 128,-1,7
 243 535 243 535 320 535 c 0,8,9
 387 535 387 535 441 505 c 128,-1,10
 495 475 495 475 527.5 415 c 128,-1,11
 560 355 560 355 560 265 c 256,12,13
 560 175 560 175 528.5 115 c 128,-1,14
 497 55 497 55 443 24.5 c 128,-1,15
 389 -6 389 -6 320 -6 c 0,0,1
328 78 m 0,16,17
 378 78 378 78 418.5 101 c 128,-1,18
 459 124 459 124 482.5 166.5 c 128,-1,19
 506 209 506 209 506 265 c 0,20,21
 506 322 506 322 482.5 363.5 c 128,-1,22
 459 405 459 405 418.5 428 c 128,-1,23
 378 451 378 451 328 451 c 0,24,25
 277 451 277 451 237 428 c 128,-1,26
 197 405 197 405 173 363.5 c 128,-1,27
 149 322 149 322 149 265 c 0,28,29
 149 209 149 209 173 166.5 c 128,-1,30
 197 124 197 124 237 101 c 128,-1,31
 277 78 277 78 328 78 c 0,16,17
509 0 m 1,32,-1
 509 143 l 1,33,-1
 515 266 l 1,34,-1
 505 389 l 1,35,-1
 505 742 l 1,36,-1
 601 742 l 1,37,-1
 601 0 l 1,38,-1
 509 0 l 1,32,-1
173 663 m 1,39,-1
 173 742 l 1,40,-1
 601 742 l 1,41,-1
 505 663 l 1,42,-1
 173 663 l 1,39,-1
EndSplineSet
Substitution2: "'smcp' Lowercase to Small Capitals lookup 46 subtable" uni018C.sc
Substitution2: "'aalt' Access All Alternates lookup 0 subtable" uni018C.sc
EndChar

StartChar: eth
Encoding: 240 240 652
Width: 618
GlyphClass: 1
Flags: W
LayerCount: 2
Fore
SplineSet
292 -4 m 0,0,1
 219 -4 219 -4 164.5 24 c 128,-1,2
 110 52 110 52 80 103.5 c 128,-1,3
 50 155 50 155 50 224 c 0,4,5
 50 291 50 291 78 339.5 c 128,-1,6
 106 388 106 388 157 415 c 128,-1,7
 208 442 208 442 277 442 c 0,8,9
 336 442 336 442 385.5 417.5 c 128,-1,10
 435 393 435 393 459 351 c 1,11,12
 447 420 447 420 401 485.5 c 128,-1,13
 355 551 355 551 287 606.5 c 128,-1,14
 219 662 219 662 138 700 c 1,15,-1
 204 746 l 1,16,17
 312 695 312 695 392 616.5 c 128,-1,18
 472 538 472 538 516 445.5 c 128,-1,19
 560 353 560 353 560 257 c 0,20,21
 560 177 560 177 526.5 118.5 c 128,-1,22
 493 60 493 60 433 28 c 128,-1,23
 373 -4 373 -4 292 -4 c 0,0,1
299 75 m 0,24,25
 369 75 369 75 411.5 114.5 c 128,-1,26
 454 154 454 154 454 219 c 0,27,28
 454 286 454 286 411.5 326.5 c 128,-1,29
 369 367 369 367 299 367 c 256,30,31
 229 367 229 367 187.5 328.5 c 128,-1,32
 146 290 146 290 146 224 c 0,33,34
 146 156 146 156 188 115.5 c 128,-1,35
 230 75 230 75 299 75 c 0,24,25
148 494 m 1,36,-1
 123 546 l 1,37,-1
 489 714 l 1,38,-1
 514 662 l 1,39,-1
 148 494 l 1,36,-1
EndSplineSet
Substitution2: "'smcp' Lowercase to Small Capitals lookup 46 subtable" eth.sc
Substitution2: "'aalt' Access All Alternates lookup 0 subtable" eth.sc
EndChar

StartChar: e
Encoding: 101 101 653
Width: 632
GlyphClass: 2
Flags: W
AnchorPoint: "Anchor-3" 317 530 basechar 0
AnchorPoint: "Anchor-2" 529 0 basechar 0
AnchorPoint: "Anchor-0" 317 0 basechar 0
LayerCount: 2
Fore
SplineSet
337 -6 m 0,0,1
 252 -6 252 -6 187.5 29 c 128,-1,2
 123 64 123 64 87.5 125 c 128,-1,3
 52 186 52 186 52 265 c 256,4,5
 52 344 52 344 86.5 405 c 128,-1,6
 121 466 121 466 181.5 500.5 c 0,7,8
 240 534 240 534 318 535 c 0,9,10
 395.444335938 535.944335938 395.444335938 535.944335938 454 501 c 0,11,12
 516 464 516 464 544 412 c 0,13,14
 578 351.361328125 578 351.361328125 578 280 c 1,15,-1
 127 190 l 1,16,-1
 127 259 l 1,17,-1
 527 340 l 1,18,-1
 489 278 l 1,19,20
 490 329 490 329 468 369 c 128,-1,21
 446 409 446 409 407.5 431.5 c 128,-1,22
 369 454 369 454 318 454 c 0,23,24
 268 454 268 454 229 431.5 c 128,-1,25
 190 409 190 409 168 368.5 c 128,-1,26
 146 328 146 328 146 276 c 2,27,-1
 146 260 l 2,28,29
 146 207 146 207 170.5 165.5 c 128,-1,30
 195 124 195 124 239 101 c 128,-1,31
 283 78 283 78 340 78 c 0,32,33
 387 78 387 78 425.5 94 c 128,-1,34
 464 110 464 110 493 142 c 1,35,-1
 546 80 l 1,36,37
 510 38 510 38 456.5 16 c 128,-1,38
 403 -6 403 -6 337 -6 c 0,0,1
EndSplineSet
Substitution2: "'ss01' Style Set 1 lookup 50 subtable" e.ss01
Substitution2: "'smcp' Lowercase to Small Capitals lookup 46 subtable" e.sc
AlternateSubs2: "'aalt' Access All Alternates lookup 1 subtable" e.sc e.ss01
EndChar

